<svg xmlns="http://www.w3.org/2000/svg" width="1080" height="1080" version="1.0" viewBox="0 0 810 810"><defs><clipPath id="a"><path d="M117.398 117.398h575.25v575.25h-575.25Zm0 0"/></clipPath></defs><path fill="#fbc21b" d="M679.363 404.996q0 6.738-.332 13.465-.329 6.725-.988 13.43a279 279 0 0 1-1.648 13.363 275 275 0 0 1-8.844 39.387 278 278 0 0 1-4.227 12.789 273 273 0 0 1-4.847 12.562 268 268 0 0 1-5.457 12.313 273 273 0 0 1-6.055 12.027 270 270 0 0 1-6.637 11.719 275 275 0 0 1-23.242 33.004 276 276 0 0 1-18.082 19.949 276 276 0 0 1-19.95 18.082 274 274 0 0 1-21.629 16.04 275 275 0 0 1-11.374 7.202 270 270 0 0 1-11.719 6.637 273 273 0 0 1-12.027 6.055 268 268 0 0 1-12.313 5.457 273 273 0 0 1-12.562 4.847 278 278 0 0 1-12.79 4.227c-4.296 1.3-8.62 2.5-12.976 3.59a275 275 0 0 1-39.773 6.902 276 276 0 0 1-26.895 1.32q-6.733 0-13.46-.332-6.728-.329-13.43-.988a279 279 0 0 1-13.368-1.648 272 272 0 0 1-13.265-2.305 274 274 0 0 1-51.47-15.613 268 268 0 0 1-12.312-5.457 270 270 0 0 1-12.027-6.055 270 270 0 0 1-11.719-6.637 278 278 0 0 1-11.379-7.203 276 276 0 0 1-11.007-7.754 273 273 0 0 1-20.812-17.082 274 274 0 0 1-19.04-19.039 276 276 0 0 1-8.797-10.195 274 274 0 0 1-16.04-21.629 267 267 0 0 1-7.202-11.375 274 274 0 0 1-12.695-23.746 273 273 0 0 1-10.3-24.875 274 274 0 0 1-7.818-25.766 275 275 0 0 1-2.953-13.14 274 274 0 0 1-5.27-53.527q0-6.735.329-13.462a276 276 0 0 1 2.64-26.797q.99-6.662 2.301-13.265c.88-4.407 1.86-8.786 2.953-13.141a272 272 0 0 1 7.817-25.766 273 273 0 0 1 10.3-24.875 274.6 274.6 0 0 1 27.653-46.132 273 273 0 0 1 17.082-20.812 274 274 0 0 1 19.04-19.04 273 273 0 0 1 20.812-17.082 274 274 0 0 1 22.387-14.957 274 274 0 0 1 23.745-12.695 273 273 0 0 1 24.875-10.3 272 272 0 0 1 25.766-7.818 274 274 0 0 1 13.14-2.953q6.605-1.311 13.266-2.3a274 274 0 0 1 40.258-2.97q6.738 0 13.465.329a276 276 0 0 1 26.793 2.64c4.441.66 8.867 1.426 13.27 2.301a275 275 0 0 1 51.468 15.614 277 277 0 0 1 12.313 5.457 274 274 0 0 1 23.746 12.695 271 271 0 0 1 11.375 7.203 274 274 0 0 1 21.629 16.04 276 276 0 0 1 19.949 18.081 274 274 0 0 1 9.285 9.754 273 273 0 0 1 17.082 20.813 280 280 0 0 1 7.754 11.007 278 278 0 0 1 7.203 11.38 270 270 0 0 1 6.637 11.718 270 270 0 0 1 6.055 12.027 268 268 0 0 1 5.457 12.313 273 273 0 0 1 4.847 12.562 277 277 0 0 1 4.227 12.786 274 274 0 0 1 6.54 26.121 272 272 0 0 1 2.304 13.265 279 279 0 0 1 1.648 13.367 276 276 0 0 1 1.32 26.891m0 0"/><path fill="#fa800a" d="M672.402 343.719c.508 6.77.856 13.574.856 20.476 0 148.157-120.106 268.262-268.262 268.262S136.738 512.34 136.738 364.184c0-6.903.348-13.707.856-20.477-4.5 19.715-6.961 40.203-6.961 61.277 0 151.524 122.832 274.368 274.363 274.368 151.535 0 274.367-122.832 274.367-274.368 0-21.074-2.46-41.562-6.96-61.277Zm0 0"/><path fill="#faf5a7" d="M554.516 186.973a21.1 21.1 0 0 0-10.832-7.371c-40.032-25.782-87.653-40.813-138.809-40.813-51.152 0-98.906 15.066-138.973 40.922a21.16 21.16 0 0 0-10.132 6.89 20.95 20.95 0 0 0-4.72 12.97c-.12 7.261 4.067 13.874 10.087 17.929 5.406 3.629 12.148 4.621 18.277 2.242 8.508-3.293 16.156-9.52 24.734-13.187a253 253 0 0 1 31.91-11.196c22.38-6.226 45.594-9.351 68.817-9.351 42.734 0 85.117 10.484 122.121 31.77 12.442 7.152 28.906.808 31.598-13.926 1.172-6.38-.567-12.352-4.078-16.88m0 0"/><g clip-path="url(#a)"><path fill="#100b0f" d="M404.996 692.598c-158.578 0-287.598-129.02-287.598-287.602 0-158.578 129.02-287.598 287.598-287.598 158.582 0 287.602 129.02 287.602 287.598 0 158.582-129.02 287.602-287.602 287.602m0-548.72c-143.98 0-261.117 117.138-261.117 261.118 0 143.984 117.137 261.121 261.117 261.121 143.984 0 261.121-117.137 261.121-261.12 0-143.981-117.137-261.118-261.12-261.118m0 0"/></g><path fill="#111720" d="M531.375 466.77c17.145 0 29.719 14.851 26.172 30.57-15.012 66.48-77.942 116.355-153.297 116.355s-138.3-49.89-153.297-116.355c-3.547-15.719 9.027-30.57 26.168-30.57h254.266Zm0 0"/><path fill="#fd8585" d="M475.938 566.57c-1 .653-2.016 1.278-3.016 1.883-19.965 12.172-45.508 17.457-68.672 17.457a143.9 143.9 0 0 1-41.672-6.152c-7.82-2.38-15.562-5.164-22.816-8.965-3.617-1.895-7.117-4.043-10.375-6.492-1.473-1.11-6.211-4.293-6.211-6.344 0-1.258 24.066-27.824 45.71-27.824 7.41 0 13.563 3.113 18.462 7.265 4.379 3.715 10.12 5.32 15.863 5.27h2.074c5.746.05 11.488-1.555 15.867-5.27 4.899-4.152 11.051-7.265 18.461-7.265 21.63 0 45.7 26.566 45.711 27.824 0 1.41-3.183 3.883-4.101 4.691-1.63 1.438-3.438 2.727-5.286 3.922m57.129-292.656s9.797-28.535 39.633-22.805c29.848 5.72 51.59 27.547 44.203 65.02-11.617 58.96-81.605 86.723-104.539 88.82-22.926 2.098-67.394-74.789-59.965-116.773 7.434-41.988 32.336-46.125 46.368-46.848 14.03-.726 31.379 13.113 34.289 32.586Zm0 0"/><path fill="#fe524a" d="M617.277 290.781c1.508 7.442 1.496 15.887-.363 25.336-11.617 58.961-81.605 86.723-104.539 88.82-11.512 1.051-28.437-17.785-41.504-42.117 15.031 5.297 31.406 7.54 48.32 5.996 46.727-4.285 84.262-36.148 98.075-78.035Zm0 0"/><path fill="#08071b" d="M511.012 418.246c-19.282 0-33.13-20.027-40.719-30.996l-.242-.352c-12.86-18.578-22.5-39.605-27.871-60.793-8.118-32.054-2.375-61.386 15.757-80.484 14.2-14.95 34.903-20.484 54.028-14.453 9.844 3.102 18.086 8.902 24.07 16.625 15.961-12.824 39.34-14.164 60.95-2.402 26.386 14.347 38.992 42.445 32.913 73.297-13.43 68.152-91.078 97.132-116.316 99.449q-1.306.122-2.57.12Zm-14.504-162.984c-7.082 0-14.078 3.015-19.375 8.59-11.57 12.183-15.043 33.035-9.29 55.75 4.598 18.16 12.9 36.23 23.973 52.23l.243.363c12.87 18.602 17.89 19.688 19.097 19.567 16.672-1.532 82.27-24.973 92.754-78.203 3.824-19.375-3.5-36.172-19.582-44.918-8.805-4.79-26.254-9.325-35.7 4.066l-.773 1.063c-.37.507-1.218 1.652-1.761 2.507-.989 5.418-5.32 9.86-11.063 10.727-7.226 1.062-13.968-3.91-15.054-11.137-1.438-9.613-7.266-16.707-15.977-19.46a25 25 0 0 0-7.492-1.157Zm49.648 16.683v.075zm0 0"/><path fill="#fd8585" d="M275.434 273.914s-9.797-28.535-39.633-22.805c-29.848 5.72-51.59 27.547-44.207 65.02 11.62 58.96 81.61 86.723 104.543 88.82 22.922 2.098 67.394-74.789 59.96-116.773-7.429-41.988-32.331-46.125-46.363-46.848-14.03-.726-31.382 13.113-34.289 32.586Zm0 0"/><path fill="#fe524a" d="M191.223 290.781c-1.508 7.442-1.496 15.887.359 25.336 11.621 58.961 81.61 86.723 104.543 88.82 11.508 1.051 28.438-17.785 41.504-42.117-15.035 5.297-31.406 7.54-48.32 5.996-46.727-4.285-84.262-36.148-98.075-78.035Zm0 0"/><path fill="#08071b" d="M297.477 418.246c-.844 0-1.704-.039-2.57-.121-25.25-2.316-102.891-31.297-116.317-99.45-6.082-30.863 6.527-58.948 32.914-73.296 21.594-11.75 44.976-10.422 60.95 2.402 5.983-7.722 14.226-13.523 24.07-16.625 19.132-6.031 39.835-.496 54.027 14.453 18.133 19.098 23.887 48.43 15.754 80.485-5.368 21.187-15.008 42.215-27.868 60.793l-.253.363c-7.59 10.969-21.442 30.984-40.72 30.984Zm-55.45-154.394c-6.734 0-13.406 2.363-17.87 4.789-16.083 8.746-23.403 25.543-19.579 44.918 10.484 53.23 76.078 76.671 92.754 78.203 1.219.11 6.227-.953 19.098-19.555l.254-.363c11.074-16.012 19.375-34.07 23.972-52.23 5.754-22.716 2.281-43.563-9.289-55.75-7.168-7.551-17.472-10.4-26.87-7.434-8.712 2.754-14.524 9.847-15.974 19.46-1.086 7.227-7.804 12.188-15.054 11.137a13.24 13.24 0 0 1-11.067-10.726c-.554-.856-1.386-1.988-1.761-2.508l-.77-1.063c-4.672-6.62-11.281-8.867-17.844-8.867Zm20.305 8.093v.075zm0 0"/></svg>