<svg xmlns="http://www.w3.org/2000/svg" xmlns:xlink="http://www.w3.org/1999/xlink" width="1080" zoomAndPan="magnify" viewBox="0 0 810 809.999993" height="1080" preserveAspectRatio="xMidYMid meet" version="1.0"><defs><clipPath id="597b4c5eae"><path d="M 117.398438 117.398438 L 692.648438 117.398438 L 692.648438 692.648438 L 117.398438 692.648438 Z M 117.398438 117.398438 " clip-rule="nonzero"/></clipPath></defs><path fill="#fbc21b" d="M 679.363281 404.996094 C 679.363281 409.488281 679.253906 413.976562 679.03125 418.460938 C 678.8125 422.945312 678.480469 427.421875 678.042969 431.890625 C 677.601562 436.359375 677.050781 440.8125 676.394531 445.253906 C 675.734375 449.695312 674.96875 454.121094 674.089844 458.523438 C 673.214844 462.925781 672.230469 467.308594 671.140625 471.664062 C 670.050781 476.019531 668.851562 480.34375 667.550781 484.640625 C 666.246094 488.9375 664.835938 493.199219 663.324219 497.429688 C 661.8125 501.65625 660.195312 505.84375 658.476562 509.992188 C 656.761719 514.140625 654.941406 518.246094 653.019531 522.304688 C 651.101562 526.363281 649.082031 530.371094 646.964844 534.332031 C 644.851562 538.292969 642.636719 542.199219 640.328125 546.050781 C 638.019531 549.902344 635.617188 553.695312 633.125 557.425781 C 630.628906 561.160156 628.042969 564.832031 625.371094 568.4375 C 622.695312 572.042969 619.933594 575.582031 617.085938 579.054688 C 614.238281 582.523438 611.304688 585.921875 608.289062 589.25 C 605.273438 592.578125 602.179688 595.828125 599.003906 599.003906 C 595.828125 602.179688 592.578125 605.273438 589.25 608.289062 C 585.921875 611.304688 582.523438 614.238281 579.054688 617.085938 C 575.582031 619.933594 572.042969 622.695312 568.4375 625.371094 C 564.832031 628.046875 561.160156 630.628906 557.425781 633.125 C 553.695312 635.617188 549.902344 638.019531 546.050781 640.328125 C 542.199219 642.636719 538.292969 644.851562 534.332031 646.964844 C 530.371094 649.082031 526.363281 651.101562 522.304688 653.019531 C 518.246094 654.941406 514.140625 656.761719 509.992188 658.476562 C 505.84375 660.195312 501.65625 661.8125 497.429688 663.324219 C 493.199219 664.835938 488.9375 666.246094 484.640625 667.550781 C 480.34375 668.851562 476.019531 670.050781 471.664062 671.140625 C 467.308594 672.230469 462.925781 673.214844 458.523438 674.089844 C 454.121094 674.96875 449.695312 675.734375 445.253906 676.394531 C 440.8125 677.050781 436.359375 677.601562 431.890625 678.042969 C 427.421875 678.480469 422.945312 678.8125 418.460938 679.03125 C 413.976562 679.253906 409.488281 679.363281 404.996094 679.363281 C 400.507812 679.363281 396.019531 679.253906 391.535156 679.03125 C 387.050781 678.8125 382.574219 678.480469 378.105469 678.042969 C 373.636719 677.601562 369.179688 677.050781 364.738281 676.394531 C 360.296875 675.734375 355.875 674.96875 351.472656 674.089844 C 347.066406 673.214844 342.6875 672.230469 338.332031 671.140625 C 333.976562 670.050781 329.648438 668.851562 325.351562 667.550781 C 321.054688 666.246094 316.792969 664.835938 312.566406 663.324219 C 308.339844 661.8125 304.152344 660.195312 300.003906 658.476562 C 295.855469 656.761719 291.75 654.941406 287.691406 653.019531 C 283.632812 651.101562 279.621094 649.082031 275.664062 646.964844 C 271.703125 644.851562 267.796875 642.636719 263.945312 640.328125 C 260.09375 638.019531 256.300781 635.617188 252.566406 633.125 C 248.835938 630.628906 245.164062 628.046875 241.558594 625.371094 C 237.953125 622.695312 234.414062 619.933594 230.941406 617.085938 C 227.472656 614.238281 224.070312 611.304688 220.746094 608.289062 C 217.417969 605.273438 214.167969 602.179688 210.992188 599.003906 C 207.816406 595.828125 204.722656 592.578125 201.707031 589.25 C 198.691406 585.921875 195.757812 582.523438 192.910156 579.054688 C 190.0625 575.582031 187.300781 572.042969 184.625 568.4375 C 181.949219 564.832031 179.367188 561.160156 176.871094 557.425781 C 174.375 553.695312 171.972656 549.902344 169.667969 546.050781 C 167.359375 542.199219 165.144531 538.292969 163.027344 534.332031 C 160.910156 530.371094 158.894531 526.363281 156.972656 522.304688 C 155.054688 518.246094 153.234375 514.140625 151.515625 509.992188 C 149.796875 505.84375 148.183594 501.65625 146.671875 497.429688 C 145.15625 493.199219 143.75 488.9375 142.445312 484.640625 C 141.140625 480.34375 139.945312 476.019531 138.855469 471.664062 C 137.761719 467.308594 136.78125 462.925781 135.902344 458.523438 C 135.027344 454.121094 134.261719 449.695312 133.601562 445.253906 C 132.941406 440.8125 132.394531 436.359375 131.953125 431.890625 C 131.511719 427.421875 131.183594 422.945312 130.960938 418.460938 C 130.742188 413.976562 130.632812 409.488281 130.632812 404.996094 C 130.632812 400.507812 130.742188 396.019531 130.960938 391.535156 C 131.183594 387.050781 131.511719 382.574219 131.953125 378.105469 C 132.394531 373.636719 132.941406 369.179688 133.601562 364.738281 C 134.261719 360.296875 135.027344 355.875 135.902344 351.472656 C 136.78125 347.066406 137.761719 342.6875 138.855469 338.332031 C 139.945312 333.976562 141.140625 329.648438 142.445312 325.351562 C 143.75 321.054688 145.15625 316.792969 146.671875 312.566406 C 148.183594 308.339844 149.796875 304.152344 151.515625 300.003906 C 153.234375 295.855469 155.054688 291.75 156.972656 287.691406 C 158.894531 283.632812 160.910156 279.621094 163.027344 275.664062 C 165.144531 271.703125 167.359375 267.796875 169.667969 263.945312 C 171.972656 260.09375 174.375 256.300781 176.871094 252.566406 C 179.367188 248.835938 181.949219 245.164062 184.625 241.558594 C 187.300781 237.953125 190.0625 234.414062 192.910156 230.941406 C 195.757812 227.472656 198.691406 224.070312 201.707031 220.746094 C 204.722656 217.417969 207.816406 214.167969 210.992188 210.992188 C 214.167969 207.816406 217.417969 204.722656 220.746094 201.707031 C 224.070312 198.691406 227.472656 195.757812 230.941406 192.910156 C 234.414062 190.0625 237.953125 187.300781 241.558594 184.625 C 245.164062 181.949219 248.835938 179.367188 252.566406 176.871094 C 256.300781 174.375 260.09375 171.976562 263.945312 169.667969 C 267.796875 167.359375 271.703125 165.144531 275.664062 163.027344 C 279.621094 160.910156 283.632812 158.894531 287.691406 156.972656 C 291.75 155.054688 295.855469 153.234375 300.003906 151.515625 C 304.152344 149.796875 308.339844 148.183594 312.566406 146.671875 C 316.792969 145.15625 321.054688 143.75 325.351562 142.445312 C 329.648438 141.140625 333.976562 139.945312 338.332031 138.855469 C 342.6875 137.761719 347.066406 136.78125 351.472656 135.902344 C 355.875 135.027344 360.296875 134.261719 364.738281 133.601562 C 369.179688 132.941406 373.636719 132.394531 378.105469 131.953125 C 382.574219 131.511719 387.050781 131.183594 391.535156 130.960938 C 396.019531 130.742188 400.507812 130.632812 404.996094 130.632812 C 409.488281 130.632812 413.976562 130.742188 418.460938 130.960938 C 422.945312 131.183594 427.421875 131.511719 431.890625 131.953125 C 436.359375 132.394531 440.8125 132.941406 445.253906 133.601562 C 449.695312 134.261719 454.121094 135.027344 458.523438 135.902344 C 462.925781 136.78125 467.308594 137.761719 471.664062 138.855469 C 476.019531 139.945312 480.34375 141.140625 484.640625 142.445312 C 488.9375 143.75 493.199219 145.15625 497.429688 146.671875 C 501.65625 148.183594 505.84375 149.796875 509.992188 151.515625 C 514.140625 153.234375 518.246094 155.054688 522.304688 156.972656 C 526.363281 158.894531 530.371094 160.910156 534.332031 163.027344 C 538.292969 165.144531 542.199219 167.359375 546.050781 169.667969 C 549.902344 171.976562 553.695312 174.375 557.425781 176.871094 C 561.160156 179.367188 564.832031 181.949219 568.4375 184.625 C 572.042969 187.300781 575.582031 190.0625 579.054688 192.910156 C 582.523438 195.757812 585.921875 198.691406 589.25 201.707031 C 592.578125 204.722656 595.828125 207.816406 599.003906 210.992188 C 602.179688 214.167969 605.273438 217.417969 608.289062 220.746094 C 611.304688 224.070312 614.238281 227.472656 617.085938 230.941406 C 619.933594 234.414062 622.695312 237.953125 625.371094 241.558594 C 628.042969 245.164062 630.628906 248.835938 633.125 252.566406 C 635.617188 256.300781 638.019531 260.09375 640.328125 263.945312 C 642.636719 267.796875 644.851562 271.703125 646.964844 275.664062 C 649.082031 279.621094 651.101562 283.632812 653.019531 287.691406 C 654.941406 291.75 656.761719 295.855469 658.476562 300.003906 C 660.195312 304.152344 661.8125 308.339844 663.324219 312.566406 C 664.835938 316.792969 666.246094 321.054688 667.550781 325.351562 C 668.851562 329.648438 670.050781 333.976562 671.140625 338.332031 C 672.230469 342.6875 673.214844 347.066406 674.089844 351.472656 C 674.96875 355.875 675.734375 360.296875 676.394531 364.738281 C 677.050781 369.179688 677.601562 373.636719 678.042969 378.105469 C 678.480469 382.574219 678.8125 387.050781 679.03125 391.535156 C 679.253906 396.019531 679.363281 400.507812 679.363281 404.996094 Z M 679.363281 404.996094 " fill-opacity="1" fill-rule="nonzero"/><path fill="#fa800a" d="M 672.402344 343.71875 C 672.910156 350.488281 673.257812 357.292969 673.257812 364.195312 C 673.257812 512.351562 553.152344 632.457031 404.996094 632.457031 C 256.839844 632.457031 136.738281 512.339844 136.738281 364.183594 C 136.738281 357.28125 137.085938 350.476562 137.59375 343.707031 C 133.09375 363.421875 130.632812 383.910156 130.632812 404.984375 C 130.632812 556.507812 253.464844 679.351562 404.996094 679.351562 C 556.53125 679.351562 679.363281 556.519531 679.363281 404.984375 C 679.363281 383.910156 676.902344 363.421875 672.402344 343.707031 Z M 672.402344 343.71875 " fill-opacity="1" fill-rule="nonzero"/><path fill="#faf5a7" d="M 554.515625 186.972656 C 551.8125 183.476562 548.039062 180.859375 543.683594 179.601562 C 503.652344 153.820312 456.03125 138.789062 404.875 138.789062 C 353.722656 138.789062 305.96875 153.855469 265.902344 179.710938 C 261.871094 180.964844 258.363281 183.402344 255.769531 186.601562 C 252.882812 190.148438 251.121094 194.648438 251.050781 199.570312 C 250.929688 206.832031 255.117188 213.445312 261.136719 217.5 C 266.542969 221.128906 273.285156 222.121094 279.414062 219.742188 C 287.921875 216.449219 295.570312 210.222656 304.148438 206.554688 C 314.523438 202.117188 325.1875 198.375 336.058594 195.359375 C 358.4375 189.132812 381.652344 186.007812 404.875 186.007812 C 447.609375 186.007812 489.992188 196.492188 526.996094 217.777344 C 539.4375 224.929688 555.902344 218.585938 558.59375 203.851562 C 559.765625 197.472656 558.027344 191.5 554.515625 186.972656 Z M 554.515625 186.972656 " fill-opacity="1" fill-rule="nonzero"/><g clip-path="url(#597b4c5eae)"><path fill="#100b0f" d="M 404.996094 692.597656 C 246.417969 692.597656 117.398438 563.578125 117.398438 404.996094 C 117.398438 246.417969 246.417969 117.398438 404.996094 117.398438 C 563.578125 117.398438 692.597656 246.417969 692.597656 404.996094 C 692.597656 563.578125 563.578125 692.597656 404.996094 692.597656 Z M 404.996094 143.878906 C 261.015625 143.878906 143.878906 261.015625 143.878906 404.996094 C 143.878906 548.980469 261.015625 666.117188 404.996094 666.117188 C 548.980469 666.117188 666.117188 548.980469 666.117188 404.996094 C 666.117188 261.015625 548.980469 143.878906 404.996094 143.878906 Z M 404.996094 143.878906 " fill-opacity="1" fill-rule="nonzero"/></g><path fill="#111720" d="M 531.375 466.769531 C 548.519531 466.769531 561.09375 481.621094 557.546875 497.339844 C 542.535156 563.820312 479.605469 613.695312 404.25 613.695312 C 328.894531 613.695312 265.949219 563.804688 250.953125 497.339844 C 247.40625 481.621094 259.980469 466.769531 277.121094 466.769531 L 531.386719 466.769531 Z M 531.375 466.769531 " fill-opacity="1" fill-rule="nonzero"/><path fill="#fd8585" d="M 475.9375 566.570312 C 474.9375 567.222656 473.921875 567.847656 472.921875 568.453125 C 452.957031 580.625 427.414062 585.910156 404.25 585.910156 C 390.15625 585.910156 376.078125 583.847656 362.578125 579.757812 C 354.757812 577.378906 347.015625 574.59375 339.761719 570.792969 C 336.144531 568.898438 332.644531 566.75 329.386719 564.300781 C 327.914062 563.191406 323.175781 560.007812 323.175781 557.957031 C 323.175781 556.699219 347.242188 530.132812 368.886719 530.132812 C 376.296875 530.132812 382.449219 533.246094 387.347656 537.398438 C 391.726562 541.113281 397.46875 542.71875 403.210938 542.667969 C 403.5625 542.667969 403.910156 542.667969 404.25 542.667969 C 404.585938 542.667969 404.949219 542.667969 405.285156 542.667969 C 411.03125 542.71875 416.773438 541.113281 421.152344 537.398438 C 426.050781 533.246094 432.203125 530.132812 439.613281 530.132812 C 461.242188 530.132812 485.3125 556.699219 485.324219 557.957031 C 485.324219 559.367188 482.140625 561.839844 481.222656 562.648438 C 479.59375 564.085938 477.785156 565.375 475.9375 566.570312 Z M 475.9375 566.570312 " fill-opacity="1" fill-rule="nonzero"/><path fill="#fd8585" d="M 533.066406 273.914062 C 533.066406 273.914062 542.863281 245.378906 572.699219 251.109375 C 602.546875 256.828125 624.289062 278.65625 616.902344 316.128906 C 605.285156 375.089844 535.296875 402.851562 512.363281 404.949219 C 489.4375 407.046875 444.96875 330.160156 452.398438 288.175781 C 459.832031 246.1875 484.734375 242.050781 498.765625 241.328125 C 512.796875 240.601562 530.144531 254.441406 533.054688 273.914062 Z M 533.066406 273.914062 " fill-opacity="1" fill-rule="nonzero"/><path fill="#fe524a" d="M 617.277344 290.78125 C 618.785156 298.222656 618.773438 306.667969 616.914062 316.117188 C 605.296875 375.078125 535.308594 402.839844 512.375 404.9375 C 500.863281 405.988281 483.9375 387.152344 470.871094 362.820312 C 485.902344 368.117188 502.277344 370.359375 519.191406 368.816406 C 565.917969 364.53125 603.453125 332.667969 617.265625 290.78125 Z M 617.277344 290.78125 " fill-opacity="1" fill-rule="nonzero"/><path fill="#08071b" d="M 511.011719 418.246094 C 491.730469 418.246094 477.882812 398.21875 470.292969 387.25 L 470.050781 386.898438 C 457.191406 368.320312 447.550781 347.292969 442.179688 326.105469 C 434.0625 294.050781 439.804688 264.71875 457.9375 245.621094 C 472.136719 230.671875 492.839844 225.136719 511.964844 231.167969 C 521.808594 234.269531 530.050781 240.070312 536.035156 247.792969 C 551.996094 234.96875 575.375 233.628906 596.984375 245.390625 C 623.371094 259.738281 635.976562 287.835938 629.898438 318.6875 C 616.46875 386.839844 538.820312 415.820312 513.582031 418.136719 C 512.710938 418.21875 511.855469 418.257812 511.011719 418.257812 Z M 496.507812 255.261719 C 489.425781 255.261719 482.429688 258.277344 477.132812 263.851562 C 465.5625 276.035156 462.089844 296.886719 467.84375 319.601562 C 472.441406 337.761719 480.742188 355.832031 491.816406 371.832031 L 492.058594 372.195312 C 504.929688 390.796875 509.949219 391.882812 511.15625 391.761719 C 527.828125 390.230469 593.425781 366.789062 603.910156 313.558594 C 607.734375 294.183594 600.410156 277.386719 584.328125 268.640625 C 575.523438 263.851562 558.074219 259.316406 548.628906 272.707031 L 547.855469 273.769531 C 547.484375 274.277344 546.636719 275.421875 546.09375 276.277344 C 545.105469 281.695312 540.773438 286.136719 535.03125 287.003906 C 527.804688 288.066406 521.0625 283.09375 519.976562 275.867188 C 518.539062 266.253906 512.710938 259.160156 504 256.40625 C 501.539062 255.636719 499.019531 255.25 496.507812 255.25 Z M 546.15625 271.945312 C 546.15625 271.945312 546.15625 271.996094 546.15625 272.019531 C 546.15625 271.996094 546.15625 271.972656 546.15625 271.945312 Z M 546.15625 271.945312 " fill-opacity="1" fill-rule="nonzero"/><path fill="#fd8585" d="M 275.433594 273.914062 C 275.433594 273.914062 265.636719 245.378906 235.800781 251.109375 C 205.953125 256.828125 184.210938 278.65625 191.59375 316.128906 C 203.214844 375.089844 273.203125 402.851562 296.136719 404.949219 C 319.058594 407.046875 363.53125 330.160156 356.097656 288.175781 C 348.667969 246.1875 323.765625 242.050781 309.734375 241.328125 C 295.703125 240.601562 278.351562 254.441406 275.445312 273.914062 Z M 275.433594 273.914062 " fill-opacity="1" fill-rule="nonzero"/><path fill="#fe524a" d="M 191.222656 290.78125 C 189.714844 298.222656 189.726562 306.667969 191.582031 316.117188 C 203.203125 375.078125 273.191406 402.839844 296.125 404.9375 C 307.632812 405.988281 324.5625 387.152344 337.628906 362.820312 C 322.59375 368.117188 306.222656 370.359375 289.308594 368.816406 C 242.582031 364.53125 205.046875 332.667969 191.234375 290.78125 Z M 191.222656 290.78125 " fill-opacity="1" fill-rule="nonzero"/><path fill="#08071b" d="M 297.476562 418.246094 C 296.632812 418.246094 295.773438 418.207031 294.90625 418.125 C 269.65625 415.808594 192.015625 386.828125 178.589844 318.675781 C 172.507812 287.8125 185.117188 259.726562 211.503906 245.378906 C 233.097656 233.628906 256.480469 234.957031 272.453125 247.78125 C 278.4375 240.058594 286.679688 234.257812 296.523438 231.15625 C 315.65625 225.125 336.359375 230.660156 350.550781 245.609375 C 368.683594 264.707031 374.4375 294.039062 366.304688 326.09375 C 360.9375 347.28125 351.296875 368.308594 338.4375 386.886719 L 338.183594 387.25 C 330.59375 398.21875 316.742188 418.234375 297.464844 418.234375 Z M 242.027344 263.851562 C 235.292969 263.851562 228.621094 266.214844 224.15625 268.640625 C 208.074219 277.386719 200.753906 294.183594 204.578125 313.558594 C 215.0625 366.789062 280.65625 390.230469 297.332031 391.761719 C 298.550781 391.871094 303.558594 390.808594 316.429688 372.207031 L 316.683594 371.84375 C 327.757812 355.832031 336.058594 337.773438 340.65625 319.613281 C 346.410156 296.898438 342.9375 276.050781 331.367188 263.863281 C 324.199219 256.3125 313.894531 253.464844 304.496094 256.429688 C 295.785156 259.183594 289.972656 266.277344 288.523438 275.890625 C 287.4375 283.117188 280.71875 288.078125 273.46875 287.027344 C 267.710938 286.160156 263.382812 281.71875 262.402344 276.300781 C 261.847656 275.445312 261.015625 274.3125 260.640625 273.792969 L 259.871094 272.730469 C 255.199219 266.109375 248.589844 263.863281 242.027344 263.863281 Z M 262.332031 271.945312 C 262.332031 271.945312 262.332031 271.996094 262.332031 272.019531 C 262.332031 271.996094 262.332031 271.972656 262.332031 271.945312 Z M 262.332031 271.945312 " fill-opacity="1" fill-rule="nonzero"/></svg>