<svg xmlns="http://www.w3.org/2000/svg" width="1080" height="1080" version="1.0" viewBox="0 0 810 810"><defs><clipPath id="b"><path d="M118.133 141.082h573.75v528h-573.75Zm0 0"/></clipPath><clipPath id="e"><path d="M1 .16h91.52V73H1Zm0 0"/></clipPath><clipPath id="d"><path d="M0 0h93v74H0z"/></clipPath><clipPath id="h"><path d="M1 1h90.48v72H1Zm0 0"/></clipPath><clipPath id="g"><path d="M0 0h92v74H0z"/></clipPath><mask id="c"><g filter="url(#a)"><path fill-opacity=".7" d="M-81-81h972v972H-81z"/></g></mask><mask id="f"><g filter="url(#a)"><path fill-opacity=".7" d="M-81-81h972v972H-81z"/></g></mask><filter id="a" width="100%" height="100%" x="0%" y="0%"><feColorMatrix color-interpolation-filters="sRGB" values="0 0 0 0 1 0 0 0 0 1 0 0 0 0 1 0 0 0 1 0"/></filter></defs><g clip-path="url(#b)"><path fill="#fffaf5" d="M690.316 396.535c-6.836-72.816-45.062-142.2-101.785-188.758-73.898-60.648-178.226-82.058-270.02-55.437-107.038 31.055-189.741 120.664-198.956 231.332-9.118 109.594 50.46 223.363 155.457 264.793 46 18.148 96.46 22.246 145.867 20.086 52.578-2.293 106.008-11.864 151.656-38.07 71.813-41.227 117.219-122.946 118.844-205.758.18-9.414-.188-18.828-1.063-28.188m0 0"/></g><path fill="#f2d768" d="M668.242 404.95c-5.617-79.438-50.93-156.204-118.762-198.997-84.027-53.015-196.953-53.55-284.148-5.91-19.074 10.426-37.039 22.977-52.828 37.914-69.856 66.145-85.871 171.61-52.899 260.082 17.81 47.797 51.45 90.18 95.856 115.254 44.332 25.027 96.7 31.937 147.61 31.773 69.206-.218 141.991-14.386 194.128-59.91 36.028-31.46 59.489-76.215 68.031-123.281 3.43-18.848 4.348-37.965 3.012-56.926m0 0"/><path fill="#fffaf5" d="M355.79 362.738q0 2.08-.099 4.149a89 89 0 0 1-.289 4.105c-.129 1.36-.289 2.7-.484 4.028a80 80 0 0 1-.664 3.906 71 71 0 0 1-.848 3.754 64 64 0 0 1-1.02 3.562 53 53 0 0 1-1.179 3.332 46 46 0 0 1-1.328 3.078 39 39 0 0 1-1.469 2.786 31 31 0 0 1-1.59 2.476q-.821 1.154-1.695 2.133a20 20 0 0 1-1.793 1.773q-.914.796-1.863 1.399-.95.602-1.922 1.011c-.645.27-1.3.473-1.957.606a9.7 9.7 0 0 1-1.977.207q-.991 0-1.976-.207a10.5 10.5 0 0 1-1.961-.606q-.974-.409-1.922-1.011a16 16 0 0 1-1.863-1.399 20 20 0 0 1-1.79-1.773 25 25 0 0 1-1.699-2.133 33 33 0 0 1-1.59-2.476c-.511-.88-1-1.805-1.464-2.786a48 48 0 0 1-1.332-3.078 55 55 0 0 1-1.18-3.332 61 61 0 0 1-1.016-3.562 71 71 0 0 1-.847-3.754 75 75 0 0 1-.668-3.906 83 83 0 0 1-.77-8.133 86 86 0 0 1-.098-4.149q0-2.077.098-4.144a84 84 0 0 1 .77-8.133q.287-1.99.668-3.91.38-1.92.847-3.754a60 60 0 0 1 1.016-3.559 56 56 0 0 1 1.18-3.336 47 47 0 0 1 1.332-3.074q.697-1.47 1.464-2.789a33 33 0 0 1 1.59-2.473q.827-1.153 1.7-2.136a20 20 0 0 1 1.789-1.774 16 16 0 0 1 1.863-1.398 12.6 12.6 0 0 1 1.922-1.008q.971-.405 1.96-.61a9.7 9.7 0 0 1 3.954 0c.656.137 1.312.34 1.957.61q.972.404 1.922 1.008.95.602 1.863 1.398a20 20 0 0 1 1.793 1.774 25 25 0 0 1 1.695 2.136q.827 1.155 1.59 2.473.767 1.319 1.469 2.79c.469.976.91 2.003 1.328 3.073q.631 1.606 1.18 3.336a64 64 0 0 1 1.02 3.559q.467 1.834.847 3.754.376 1.92.664 3.91a79 79 0 0 1 .484 4.023 89 89 0 0 1 .387 8.254m162.168 6.598c0 1.121-.023 2.234-.074 3.348a71 71 0 0 1-.219 3.316 67 67 0 0 1-.36 3.25 65 65 0 0 1-.5 3.156 62 62 0 0 1-.636 3.031 53 53 0 0 1-.762 2.875q-.412 1.393-.883 2.692a40 40 0 0 1-1 2.48 31 31 0 0 1-1.097 2.254 27 27 0 0 1-1.196 1.996 20 20 0 0 1-1.273 1.723 15 15 0 0 1-1.344 1.43c-.457.43-.922.804-1.394 1.133a9.6 9.6 0 0 1-1.442.812 7.6 7.6 0 0 1-1.468.492 6.8 6.8 0 0 1-2.97 0 7.6 7.6 0 0 1-1.468-.492 9.3 9.3 0 0 1-1.437-.812 12 12 0 0 1-1.399-1.133 15 15 0 0 1-1.344-1.43 20 20 0 0 1-1.273-1.723 25 25 0 0 1-1.191-1.996q-.574-1.064-1.102-2.254a37 37 0 0 1-.996-2.48 47 47 0 0 1-.887-2.692 58 58 0 0 1-1.398-5.906 70 70 0 0 1-.5-3.156 67 67 0 0 1-.36-3.25 71 71 0 0 1-.218-3.316 80 80 0 0 1-.075-3.348c0-1.117.028-2.234.075-3.344q.07-1.67.218-3.316a67 67 0 0 1 .36-3.25c.144-1.07.312-2.125.5-3.156a58 58 0 0 1 1.398-5.907c.278-.93.57-1.824.887-2.691q.468-1.296.996-2.48.528-1.19 1.102-2.255.572-1.062 1.191-1.996a20 20 0 0 1 1.273-1.722 15 15 0 0 1 1.344-1.434 12 12 0 0 1 1.399-1.129 9.3 9.3 0 0 1 1.437-.812 7.6 7.6 0 0 1 1.469-.492q.742-.165 1.484-.164.745 0 1.485.164.737.163 1.468.492.727.327 1.442.812.708.488 1.394 1.13.69.642 1.344 1.433a20 20 0 0 1 1.273 1.722c.415.622.81 1.29 1.196 1.997q.576 1.064 1.097 2.253.527 1.186 1 2.48.471 1.3.883 2.692c.274.93.532 1.89.762 2.875a63 63 0 0 1 1.137 6.188 67 67 0 0 1 .36 3.25q.146 1.646.218 3.316.074 1.667.074 3.344m0 0"/><g mask="url(#c)"><g clip-path="url(#d)" transform="translate(231 422)"><g clip-path="url(#e)"><path fill="#fc8181" d="M91.23 46.977c-.539-.41-1.062.718-1.156 2.5-.125 2.441-1.219 3.699-4.449 5.128-2.625 1.157-4.086 2.586-3.785 3.668.273.98-.176 1.774-1.008 1.774-.836 0-3.723 1.793-6.43 3.992-5.441 4.422-22.562 9.207-27.617 7.734-1.586-.457-2.898-.312-2.941.325-.082 1.71-13.11.28-16.86-1.844-1.773-1.012-3.898-1.543-4.722-1.192-.825.356-2.5-.5-3.742-1.894-1.227-1.398-3.168-2.387-4.293-2.2-1.125.188-2.407-.417-2.856-1.347-.437-.926-1.762-2.094-2.926-2.605-1.168-.5-1.847-1.688-1.504-2.625.344-.938-.457-3.547-1.78-5.797C1.878 47.016.616 41 1.854 36.914c.575-1.875 1.2-5.566 1.41-8.203.54-7.11 7.274-19.18 11.087-19.898.73-.137 4.222-1.543 7.742-3.13 3.535-1.585 8.441-2.878 10.922-2.878s4.867-.407 5.316-.883c1.586-1.723 9.172-1.23 9.078.594-.062 1.125 1.5 1.75 4.356 1.718 6.98-.05 9.765.407 9.703 1.618-.032.613.937.52 2.144-.2 1.692-1.011 2.512-.687 3.524 1.368.73 1.48 1.812 2.343 2.43 1.918 1.355-.93 10.492 4.5 12.44 7.398.782 1.16 1.845 3.484 2.376 5.172s1.754 3.066 2.73 3.066c.973 0 1.473.79 1.098 1.75-.375.957.406 3.168 1.719 4.91 1.656 2.188 2.375 5.203 2.332 9.809-.008 3.668-.477 6.328-1.032 5.934m0 0"/></g><path fill="#fcbdc8" d="M59.488 50.719c-2.636-1.461-2.668-1.95-.761-12.375.394-2.2 1.086-6.442 1.523-9.446.457-3.148 1.383-6.003 2.188-6.765.769-.719 1.675-1.969 2.03-2.762.344-.805.743-1.21.887-.93.137.293.364.762.489 1.055.136.293.531.8.875 1.137.355.332.742 1.48.867 2.531a55 55 0 0 0 .668 4.035c.238 1.156.082 2.012-.356 1.887-.437-.125-.773.844-.75 2.16.02 1.3-.218 2.656-.554 3-.32.344-.395 1.45-.156 2.45.242 1 .105 1.917-.313 2.042-.414.125-.57.98-.352 1.899.22.918-.011 2.972-.511 4.554-.5 1.586-.793 3.38-.649 3.985.149.601-.039 1.187-.425 1.3-.376.118-1.106.481-1.614.825-.48.344-1.886.082-3.086-.582m-17.019.789c-2.332.074-2.594-3.793-.637-9.473.992-2.867 1.918-7.55 2.066-10.406.145-2.856.645-5.992 1.102-6.973q.831-1.77-.031-.898c-.707.722-.782.543-.395-.938.262-1.011.649-1.875.856-1.937.562-.168 4.406 1.898 4.625 2.48.105.27.625 1.055 1.148 1.73.668.856.656 1.606-.02 2.442-.917 1.125-1.074 4.356-.417 8.305.156.93.082 1.566-.168 1.43-.532-.301-2.426 8.464-2 9.265.449.836-2.25 4.348-3.575 4.66a15.6 15.6 0 0 1-2.554.313M24.43 47.234c-1.332-.75-2.543-1.832-2.68-2.398-.332-1.406 3.703-18.375 5.672-23.871 1.707-4.742 4.031-6.492 5.21-3.918.352.77 1.044 1.52 1.52 1.656.555.156.586 1.024.075 2.348-.45 1.156-.688 2.613-.532 3.25.157.637-.261 1.93-.918 2.879-.75 1.074-.968 2.636-.605 4.191.562 2.324-.594 5.774-2.313 6.942-.406.269-.707 1.23-.668 2.124.043.899-.468 3.098-1.132 4.903l-1.211 3.273Zm0 0"/></g></g><g mask="url(#f)"><g clip-path="url(#g)" transform="translate(503 423)"><g clip-path="url(#h)"><path fill="#fc8181" d="M89.46 48.988c-.51-.418-1.105.676-1.315 2.438-.282 2.418-1.446 3.629-4.73 4.922-2.669 1.05-4.212 2.398-3.981 3.492.207.98-.293 1.75-1.114 1.719-.824-.032-3.797 1.636-6.61 3.71-5.667 4.172-22.874 8.258-27.76 6.602-1.532-.523-2.845-.43-2.919.207-.199 1.7-12.953-.238-16.52-2.504-1.687-1.07-3.738-1.687-4.585-1.363-.832.324-2.438-.594-3.563-2.035-1.125-1.438-2.96-2.489-4.086-2.356-1.125.149-2.355-.508-2.718-1.449-.375-.937-1.594-2.156-2.72-2.7-1.116-.55-1.71-1.75-1.304-2.667.406-.918-.207-3.543-1.363-5.828C1.305 45.504.46 39.48 1.96 35.469c.687-1.848 1.555-5.485 1.93-8.09 1.007-7.04 8.449-18.777 12.265-19.34.727-.101 4.262-1.363 7.848-2.805 3.582-1.425 8.523-2.52 10.96-2.425 2.438.093 4.825-.211 5.306-.68 1.68-1.649 9.14-.856 8.921.95-.136 1.116 1.364 1.792 4.18 1.886 6.899.219 9.606.793 9.461 1.992-.074.613.887.563 2.137-.117 1.73-.938 2.531-.582 3.386 1.492.618 1.492 1.637 2.398 2.274 2 1.394-.875 10.055 4.89 11.785 7.852.688 1.175 1.586 3.535 2 5.234.406 1.7 1.531 3.113 2.492 3.156.957.043 1.395.844.969 1.785-.426.938.188 3.168 1.375 4.95 1.492 2.242 2 5.254 1.648 9.832-.28 3.636-.93 6.265-1.437 5.847m0 0"/></g><path fill="#fcbdc8" d="M55.797 50.02c-1.156-2.805-.79-11.907.805-20.454.332-1.804.539-4.023.445-4.921-.164-1.657.898-2.832 3.012-3.293 1.511-.332 4.754 1.593 4.203 2.503a.786.786 0 0 0 .3 1.114c.895.5.168 6.84-.832 7.265-1.035.438-.94 4.036.102 3.961 1.18-.082.305 6.89-.969 7.77-.531.363-.793 1.351-.574 2.207.281 1.105-.289 2.16-1.988 3.68-3.004 2.68-3.461 2.699-4.504.168m-17.859-2.825c-.942-2.992.445-22.328 1.687-23.652.133-.148 1.656-.566 3.387-.918l3.136-.656.5 3.586c.282 1.968.106 5.898-.394 8.734-.492 2.824-1.086 6.535-1.316 8.227-.645 4.761-5.876 8.265-7 4.68m-15.508.636c-1.805-.762-2.504-1.598-2.543-3.066-.219-6.817-.149-8.203.457-8.684.367-.293.812-1.68.992-3.074.176-1.399.469-2.711.656-2.91s.04-1.137-.312-2.086c-.5-1.313-.305-2.063.843-3.168.825-.801 1.5-1.219 1.489-.926 0 .289.668.125 1.492-.375 2.781-1.68 3.73 1.082 3.25 9.535-.23 4.09-.75 8.07-1.145 8.832-.406.762-.742 2.043-.75 2.836-.011.79-.449 2.043-.992 2.781-.875 1.25-1.144 1.274-3.437.305m0 0"/></g></g><path fill="#633039" d="M298.555 288.016c-1.274 1.199-2.438 2.18-2.618 2.18-.488 0-4.761 4.253-4.761 4.73 0 .23-.969 1.441-2.168 2.691-2.125 2.219-2.668 3.223-1.7 3.223.25 0-.093.988-.769 2.219-.68 1.218-1.117 2.343-.96 2.492.386.387-1.25 1.543-2.22 1.562-.449.012-1.25.563-1.773 1.242-.863 1.094-.988 1.137-1.25.364-.156-.48-.977-1.27-1.844-1.774-.906-.53-1.312-1-.969-1.125.332-.125.582-.582.563-1.02-.02-.51-.137-.573-.281-.198-.137.332-.387.593-.563.593-.426 0-.324-5.972.125-6.691.188-.305.426-1.024.543-1.606.113-.574.613-1.5 1.125-2.054.5-.551 1.043-1.563 1.207-2.219.156-.668.938-1.941 1.754-2.816.813-.887 1.469-1.7 1.469-1.836 0-.239.312-.645 2.168-2.73.644-.731 1.289-1.325 1.437-1.325.145 0 .45.012.668.012s.645-.543.946-1.22c.304-.655.886-1.21 1.28-1.21.411 0 .743-.195.743-.45 0-.25.488-.6 1.082-.78.594-.176 1.524-.727 2.055-1.207 1.199-1.075 8.015-4.336 9.078-4.336.426 0 .906-.211 1.07-.493.168-.261.961-.48 1.785-.48.82 0 2.188-.438 3.051-.969l1.574-.957 2.274 1c1.738.77 2.574.895 3.586.543 1.687-.586 3.863 3.469 2.32 4.348-.445.238-.8.707-.8 1.02-.012 1.124-3.4 2.929-5.743 3.074-2.512.156-4.98 1.054-7.836 2.859-1.023.644-2.2 1.187-2.605 1.187-.418-.011-1.793.957-3.043 2.157m62.476 79.944c-.836-.698-.886-.948-.344-1.823.7-1.157.446-6.399-.523-10.371-.445-1.88-.445-2.418.024-2.575.875-.293.726-1.449-.243-2.011-.476-.274-.57-.5-.238-.512.688-.02.844-1.961.168-1.961-.574 0-1.648-3.23-1.348-4.035.262-.676-1.27-4.344-1.644-3.961-.137.137-.645-1.012-1.156-2.531-.512-1.524-1.856-4.004-3.004-5.516-1.145-1.512-2.07-3.004-2.07-3.324 0-.324-1.41-1.973-3.137-3.66-1.73-1.68-3.149-3.23-3.149-3.442-.02-.508-3.629-3.043-4.324-3.043-.75 0-4.734-1.836-5.035-2.324-.137-.207-1.281-.375-2.563-.355-1.28.011-2.441-.125-2.574-.301-.148-.176-1.824-.05-3.754.27-1.926.324-3.937.53-4.469.449-.543-.082-.968.043-.968.27 0 .218-.836.542-1.844.71-1.68.27-4.18 1.856-4.203 2.656 0 .18-1.133 1.524-2.52 2.985-1.386 1.457-2.535 2.875-2.535 3.148-.008.27-.625 1.258-1.375 2.176-3.113 3.828-6.543 12-8.512 20.328-.605 2.535-1.386 5.152-1.742 5.797-.363.656-.594 1.668-.52 2.273.071.582-.03 1.332-.23 1.645-.187.312-.3 1.855-.23 3.43.062 1.66-.133 3.128-.469 3.535-.363.449-.395.699-.07.699.343 0 .363.512.07 1.555-.25.851-.27 1.656-.07 1.812.207.145.414 1.781.457 3.649.043 1.867.386 5.128.77 7.253.429 2.325.542 4.086.273 4.399-.23.285-.274.691-.075.887.188.199.375.511.395.68.023.187.293.937.605 1.687.313.75.563 1.555.563 1.793 0 1.855 3.543 10.101 5.816 13.531.97 1.461 1.856 2.879 1.97 3.137.51 1.273 3.585 5.078 4.105 5.078.312 0 .71.324.867.73.156.395.594.72.988.72.399 0 .899.269 1.106.605.207.332 1.511 1.136 2.898 1.761 1.375.633 2.625 1.438 2.738 1.77.137.344.637.531 1.117.406.489-.113 1.532-.02 2.332.211 1.899.55 9.372.324 10.008-.324.27-.27.79-.387 1.145-.238.719.269 4.574-1.68 5.191-2.63.207-.331.645-.605.957-.605.324-.008 1.625-.976 2.899-2.176 1.27-1.199 2.457-2.168 2.656-2.168.512 0 2.742-2.46 3.45-3.796.323-.614.718-1 .874-.864.149.156.7-.586 1.219-1.648.531-1.051 1.137-1.918 1.355-1.918.762 0 2.188-3.824 3.086-8.258.137-.676.801-2.05 1.47-3.043.812-1.2 1.218-2.46 1.218-3.762 0-1.53.21-2.011.937-2.199 1.055-.281.825-1.605-.28-1.605-.563 0-.571-.125-.071-.68.344-.375.758-.582.926-.488.175.105.425-.25.55-.782.18-.648.012-.96-.488-.96-.594 0-.625-.133-.137-.72.325-.406.856-.73 1.168-.73 1.106.031.7-9.726-.457-10.695m-22.855 20.716c-.25.488-.363 1.168-.238 1.5.125.324-.024.594-.305.594-.29 0-.531.343-.531.761s-.27 1.031-.602 1.356c-1.242 1.23-4.535 1.105-5.898-.219-.25-.238-.856-.45-1.325-.45-.48 0-.886-.167-.906-.355-.273-3.855-.219-4.949.281-6.222.79-1.957 3.075-4.067 4.43-4.067 3.106.012 6.398 4.59 5.094 7.102m7.328-31.899c-.367.145-.668.582-.668 1 0 1.27-2.95 5.43-4.387 6.18-4.941 2.555-12.453-3.45-13.332-10.664-.094-.79-.281-1.793-.426-2.23-.136-.426.094-1.051.5-1.387.813-.676 1.032-4.606.274-5.074-1.012-.618 2.887-6.54 4.3-6.54.325 0 1.231-.457 1.993-1 .77-.542 1.613-.875 1.863-.707.254.165 1.629.395 3.035.543 3.086.29 4.73 1.04 4.73 2.168 0 .457.325.957.731 1.114.395.156.719.605.719 1.011 0 .407.2.739.45.739 1.062 0 1.706 8.039.675 8.433-.707.274-.707.356.062.918 1.012.742.606 5.067-.52 5.496M486.36 550.746l1.05 2.563-.957 2.586c-.992 2.648-2.273 3.543-4.043 2.867-.43-.168-1.148 0-1.598.363-.445.367-.664.43-.5.148.18-.293-.457-.793-1.476-1.16-.98-.351-2.043-1.011-2.367-1.468-.356-.5-1.137-.782-2-.73-1.313.085-2.524-1.157-2.7-2.731-.023-.188-.511-.875-1.085-1.532-.57-.668-.914-1.336-.758-1.504.156-.156-.18-.77-.742-1.363-.551-.594-1.063-1.305-1.125-1.574-.313-1.461-1.493-3.629-1.844-3.41-.586.355-1.367-.719-1.574-2.145-.106-.73-.676-1.449-1.461-1.828-.707-.332-1.57-1.258-1.914-2.02-.348-.78-1.012-1.523-1.493-1.636-.48-.125-.863-.524-.863-.875 0-.367-.68-1.035-1.512-1.512-.906-.523-1.386-1.117-1.23-1.535.312-.832-1.918-3.355-2.586-2.93-.258.168-.488-.156-.488-.695 0-.543-.27-.941-.606-.887-.324.074-.562-.25-.543-.71.086-.946-2.98-3.47-3.675-3.044-.25.157-.95-.207-1.567-.824-.601-.601-1.27-1.05-1.457-.988-.73.238-2.031-2.356-1.387-2.742.407-.25-.074-.649-1.394-1.18-1.094-.445-2.461-1.238-3.035-1.762-.563-.531-1.407-.957-1.875-.957-.457 0-1.168-.324-1.563-.718-.406-.407-1.148-.731-1.648-.731-1.188 0-3.98-1.375-3.98-1.973 0-.238-.563-.445-1.262-.445-.907 0-1.188-.2-.989-.7.176-.491.043-.616-.468-.425-.47.188-.825-.074-.98-.71-.27-1.02-1.458-1.544-3.638-1.556-.707 0-1.363-.25-1.468-.55-.106-.313-1.586-.625-3.461-.73-1.926-.106-3.543-.45-3.938-.845-1.398-1.398-12.828-1.554-17.02-.23-.874.273-2.167.437-2.906.355-.73-.074-1.648.063-2.035.293-.383.239-1.144.489-1.687.543-2.438.282-3.887.696-4.043 1.157-.094.257-.582.488-1.106.488-.508 0-1.355.219-1.886.492-.54.258-1.395.695-1.926.957-.531.27-1.387.492-1.906.492-.524 0-1.086.22-1.254.489-.164.261-.813.355-1.426.199s-1.27-.055-1.45.238c-.175.281-.706.52-1.175.52s-1.586.66-2.473 1.46c-.894.794-1.883 1.45-2.199 1.45-.313 0-1.375.636-2.352 1.418-.98.781-2.097 1.304-2.48 1.168-.399-.168-.836.113-1.024.625-.3.8-1.957 2.324-2.574 2.355-1.73.094-8.535 4.992-7.086 5.117.313.032.02.2-.644.387-.656.18-1.473.899-1.793 1.563-.324.68-1.93 2.285-3.543 3.554-1.629 1.274-4.235 3.973-5.805 5.996-1.574 2.024-3.262 4.13-3.773 4.649-.512.543-1.313 1.629-1.813 2.418-.492.804-1.023 1.566-1.191 1.691-.164.133-.895 1.438-1.625 2.899a111 111 0 0 1-2.719 5.074c-.77 1.336-1.406 2.793-1.418 3.254 0 .457-.418 1.562-.918 2.449-.656 1.187-.781 1.855-.437 2.469.367.66.156 1.273-.907 2.629-.77.968-1.937 2.804-2.593 4.074-.73 1.41-1.524 2.293-2.032 2.293-.468 0-.855.23-.855.523 0 .282-.188.395-.406.25-.23-.136-.836.063-1.325.45-1.386 1.042-1.992.874-2.812-.793-.75-1.5-.617-2.63.227-2.098.648.41.554-.125-.207-1.352-.938-1.523-1.356-3.617-.793-3.972.273-.18.492-.868.492-1.536 0-.675.3-1.918.664-2.75.367-.843.918-2.503 1.254-3.699.32-1.199 1-2.898 1.52-3.785.519-.898.8-1.824.636-2.086-.168-.262.031-.855.426-1.293.406-.449 1.062-1.625 1.48-2.625.406-1 .969-1.816 1.262-1.816.27 0 .512-.32.512-.727 0-.398.207-.722.488-.722.262 0 .48-.227.48-.52 0-.281.54-1.242 1.22-2.105.655-.875 1.206-1.743 1.206-1.938 0-.441 2.535-3.848 3.024-4.066.199-.094.363-.48.363-.868 0-.382.336-.832.742-.988.418-.156 1.043-.855 1.418-1.554.363-.7 1.457-2.137 2.438-3.188.968-1.066 2.093-2.555 2.492-3.316.77-1.493 3.449-4.067 5.25-5.036.605-.324 1.586-1.375 2.168-2.336.593-.949 1.543-1.949 2.093-2.21 3.274-1.489 8.766-5.825 8.16-6.43-.163-.156 0-.274.356-.274s1.344-.539 2.219-1.218c.887-.657 1.855-1.207 2.18-1.207.324 0 1.269-.512 2.082-1.137.824-.625 2.316-1.41 3.316-1.73.988-.325 1.812-.793 1.812-1.032 0-.254.532-.449 1.176-.449.649 0 1.305-.2 1.45-.437.148-.231.867-.575 1.585-.762.73-.188 2.418-.836 3.762-1.43 1.332-.605 3.305-1.344 4.367-1.637 3.336-.937 9.617-2.355 10.64-2.406.532-.031 3.794-.367 7.243-.762 3.438-.386 6.379-.636 6.524-.55.136.093 1.886.218 3.867.289 1.988.086 4.117.304 4.699.523.594.195 2.336.508 3.867.676s3.98.805 5.45 1.406c1.46.617 3.574 1.274 4.69 1.45 1.114.187 2.282.636 2.594 1.023.313.375.97.687 1.45.687.488 0 1.011.207 1.187.48.168.27.719.49 1.25.49.52 0 1.75.522 2.742 1.136 1.512.949 2.594 1.449 4.47 2.035 1.968.613 4.347 1.95 4.347 2.426 0 .336.594.91 1.332 1.285.73.363 1.762.906 2.293 1.195.543.293 1.949.887 3.148 1.293 1.324.469 2.356 1.192 2.656 1.856.262.597 1.157 1.418 1.993 1.824.832.398 2.199 1.43 3.062 2.297.856.875 1.742 1.574 1.98 1.574.45 0 10.141 9.535 10.141 9.965 0 .144.606.761 1.344 1.386 2.688 2.262 10.277 14.133 10.191 15.97-.082 1.812.063 2.23.625 1.874.375-.218.47-.082.274.43-.168.426-.149.844.05.926.188.105.813 1.324 1.387 2.734m52.887-189.113c-.437-.54-.562-1.625-.406-3.313.18-1.847.043-2.722-.5-3.254-.5-.5-.637-1.261-.445-2.418.156-.93.093-1.937-.137-2.222-.742-.946-1.031-3.082-.45-3.274.376-.132.137-1.082-.73-2.918-.707-1.5-1.281-2.968-1.281-3.28 0-.306-.356-1.356-.781-2.337-1.457-3.336-2.262-5.504-2.344-6.36-.012-.144-.524-.78-1.117-1.417-.594-.645-1.082-1.356-1.082-1.574 0-.22-.762-1.145-1.688-2.043-.93-.907-1.687-1.887-1.687-2.168s-.274-.532-.606-.532c-.336 0-1.21-.75-1.937-1.668-.848-1.043-1.617-1.574-2.055-1.398-.395.156-.719.074-.719-.187 0-.262-1.906-.739-4.23-1.082s-4.836-.91-5.586-1.262c-1.75-.836-7.934-1.024-8.672-.281-.313.312-.957.55-1.457.55s-.774.22-.598.493c.168.257-.031.488-.437.488s-1.27.543-1.946 1.21c-.66.665-1.335 1.208-1.503 1.208-.176 0-.614.324-1.008.71-.461.458-1.211.614-2.086.438-1.125-.219-1.45-.086-1.711.75-.188.563-.531.906-.77.75-.25-.156-.668.293-.925.98-.262.7-.7 1.145-.95.981-.468-.281-3.16 2.375-3.16 3.125 0 .219-.594.875-1.32 1.442-.73.57-1.324 1.48-1.324 2 0 .53-.22.832-.493.668-.257-.18-.488.175-.488.761 0 1.164-1.762 4.336-2.75 4.938-.75.472-.844 1.785-.117 1.785.563 0 .262 1.355-.82 3.598-.375.789-.817 2.261-.973 3.27-.164 1.01-.5 1.835-.75 1.835-.238 0-.312.219-.156.492.543.875-.219 1.488-1.188.969-.824-.438-.875-.305-.625 1.531.211 1.563.137 1.918-.355 1.617-.477-.293-.563-.074-.383.887.133.688.05 1.145-.18 1-.218-.148-.414-.156-.414-.023 0 .125-.148.605-.324 1.074-.219.574-.144.73.238.5.344-.207.563-.05.563.406 0 .418-.188.754-.438.754s-.507.945-.601 2.113c-.125 1.543 0 2.043.437 1.88.332-.126.602.007.602.3s-.352.543-.79.543c-.554 0-.636.176-.304.605.262.332.418 1.801.344 3.262-.082 1.606.086 2.781.418 2.992.406.25.406.875-.012 2.418-.3 1.137-.375 2.188-.176 2.325.207.136.532 2.21.688 4.597.187 2.555.55 4.547.906 4.836.625.512.762 1.043 1.074 4.461.207 2.305.594 3.18 1.239 2.785.617-.375 1.574 1.637 1.21 2.574-.168.438-.144.625.063.438.406-.418 2.812 4.441 2.656 5.34-.062.332.45 1.125 1.125 1.75.68.625 1.23 1.387 1.23 1.687 0 .293.18.543.376.543.199 0 .75.875 1.218 1.95.5 1.156 1.317 2.124 2.024 2.398.644.238 2.324 1.55 3.719 2.887 1.386 1.336 2.68 2.43 2.855 2.43.18 0 .586.312.906.699.317.382.887.57 1.274.437.375-.156.687-.031.687.258 0 .293.489.543 1.086.555.594.011 1.633.312 2.301.687.656.363 1.781.55 2.48.418.707-.148 1.418 0 1.625.313h-.007c.187.3.707.425 1.156.238 1.262-.5 2.55-.7 4.898-.781 1.196-.043 2.72-.438 3.387-.887.664-.45 1.781-.844 2.48-.887 1.313-.094 5.25-2.394 5.25-3.086 0-.219.368-.394.813-.394 1.063 0 7.34-6.672 7.734-8.227.176-.656.543-1.351.844-1.55.281-.188.543-.524.563-.731.093-.844.898-2.399 2-3.91.656-.887 1.23-1.856 1.273-2.176.05-.317.23-.817.418-1.098.188-.289.457-1.27.602-2.176.843-5.035 1.418-7.488 1.824-7.757.367-.239 1.031-13.926 1.031-21.309 0-1.113.188-1.656.512-1.48.293.199.23-.02-.137-.47m-32.742 29.148c-.2.668-.375 1.313-.375 1.45-.012.144-.406.667-.899 1.199-.488.52-.812 1.156-.718 1.418.093.27-.27.98-.801 1.605-2.531 2.906-9.203-1.441-8.828-5.746.418-4.742 3.629-6.191 8.965-4.043 3.386 1.344 3.468 1.488 2.656 4.117m1.293-37.476c-.086.261-.219 1.304-.324 2.312-.106 1.004-.375 2.211-.614 2.672-.23.457-.324 1.094-.199 1.426.125.336-.031.605-.336.605-.3 0-.426.207-.25.48.168.27 0 .49-.351.49-.356 0-1 .605-1.438 1.335-.992 1.676-3.617 4.46-3.93 4.148-.125-.125-1.117.22-2.187.77-2.648 1.348-3.297 1.305-2.992-.195.062-.274-.051-.336-.242-.149-.489.492-2.633-1.293-3.489-2.887-.968-1.812-.968-12.207 0-12.207.227 0 .313-.187.176-.406-.887-1.43 2.813-7.847 5.043-8.789 1.762-.719 7.734.594 7.734 1.711 0 .344.27.762.594.906.488.22.488.344 0 .563-.332.156-.48.5-.312.75.168.273.55.117.906-.363.574-.793.644-.793 1.105.093.512 1 1.332 5.934 1.106 6.735m36.403-64.89c-.618-.23-.712-.086-.45.738.344 1.086.094 1.23-2.031 1.137-.594-.02-1.086.176-1.086.457 0 .274-.27.406-.606.281-.332-.125-.925-.062-1.32.137-.398.188-1.46.05-2.355-.332-.899-.375-1.95-.992-2.336-1.379-.387-.383-.887-.695-1.114-.695-.218 0-1.23-.774-2.222-1.7-1.114-1.054-2.106-1.605-2.606-1.449-.445.145-1.8-.273-3.031-.906-1.219-.648-2.344-1.055-2.492-.91-.164.168-.29.074-.29-.188 0-.257-.261-.488-.593-.5-.336-.007-1.48-.394-2.543-.875-4.36-1.949-8.277-3.136-9.453-2.886-.668.144-1.98-.031-2.899-.375-1.925-.742-10.734-.606-13.84.187-.98.262-3.855-.781-4.624-1.66-.95-1.094-1.094-1.52-.368-1.07.274.176.618-.043.782-.45.168-.417.468-.648.687-.511.223.137.2-.469-.05-1.324-.594-2.106-.583-2.211.398-2.461.812-.207.812-.22 0-.282-1.418-.093-.942-.918.726-1.27.868-.187 1.782-.468 2.043-.624s1.75-.313 3.325-.367c1.562-.04 2.98-.282 3.136-.543.367-.54 5.461-.656 5.13-.125-.27.46 1.062.304 1.542-.176.445-.457 1.262-.426.969.031-.125.188.574.363 1.574.375 2.125.031 7.242 1.2 7.574 1.742.137.196.543.258.907.125.367-.148 1.574.313 2.68 1.012 1.105.695 2.366 1.219 2.812 1.156.46-.062 1.586.22 2.511.625.93.407 2.512 1 3.504 1.325.989.332 1.813.8 1.813 1.043 0 .238.406.449.894.449.493 0 1.286.437 1.762.969.492.53 1.149.957 1.469.957.312 0 1.137.437 1.816.96.664.543 1.57.97 2 .97.426 0 .77.269.77.605 0 .32.637.957 1.418 1.406.781.45 1.855 1.648 2.375 2.691.531 1.04 1.304 2.176 1.722 2.52.977.836.97 1.543-.03 1.16m0 0"/><path fill="#633039" d="M671.64 405.531c-.886-1.21-1.25-12.625-.437-13.605.406-.488.367-.719-.176-.914-.937-.367-1.605-6.809-.804-7.778.437-.53.375-.668-.227-.668-.48 0-.805-.425-.844-1.086-.086-1.738-.375-4.367-.636-5.804-.149-.77-.032-1.324.261-1.324.282 0 .414-.27.29-.606-.126-.332-.458-.55-.75-.488-.282.062-.645-.7-.813-1.688-.168-.992-.426-2.36-.594-3.023-.176-.668-.344-1.543-.387-1.942-.039-.394-.125-.832-.187-.957-.195-.46-.469-1.691-.781-3.628-.168-1.063-.438-2.262-.582-2.668a8.6 8.6 0 0 1-.43-1.45c-.07-.398-.375-1.593-.676-2.66-.3-1.062-.613-2.363-.699-2.906-.07-.531-.426-1.719-.781-2.66-.356-.926-.625-1.801-.606-1.938.032-.136.188-.898.367-1.687.22-1.024.176-1.254-.156-.742-.418.625-.5.625-.668 0-.113-.395-.449-1.47-.738-2.399-.293-.926-.68-2.656-.867-3.812-.176-1.18-.739-2.536-1.23-3.036-.5-.488-.907-1.43-.907-2.093 0-.668-.25-1.211-.55-1.211-.313 0-.43-.145-.262-.301.168-.18-.032-.95-.45-1.754-.406-.789-.508-1.293-.218-1.113.293.176.53-.012.53-.418 0-.488-.269-.637-.8-.426-.637.227-.75.094-.543-.719.168-.636-.062-1.316-.601-1.804-.942-.868-1.649-2.88-1.493-4.223.063-.457-.406-1.555-1.02-2.406-.624-.88-1.148-1.793-1.148-2.067-.02-.824-1.199-3.343-1.98-4.191-.406-.445-.582-1.05-.418-1.324.18-.282.094-.52-.176-.52s-.969-1.031-1.55-2.305c-.563-1.269-1.45-2.812-1.95-3.437-.5-.637-.906-1.637-.906-2.234 0-.582-.438-1.457-.961-1.938-.543-.488-.969-1.144-.969-1.469 0-.312-.394-1.105-.894-1.73-1.274-1.637-4.899-8.684-4.899-9.508 0-.387-.761-1.46-1.687-2.375-.93-.93-1.692-1.879-1.692-2.098 0-.207-.508-1.011-1.125-1.761-.605-.75-1.468-2.125-1.906-3.063-.437-.93-1.555-2.398-2.48-3.273-.918-.88-1.836-2.055-2.024-2.649-.176-.574-.851-1.472-1.488-1.972s-1.594-1.762-2.117-2.793c-.532-1.032-2.157-3.117-3.614-4.617-1.46-1.512-2.648-2.887-2.648-3.075 0-.187-.469-.75-1.023-1.261-.563-.512-1.22-1.407-1.438-2.004-.227-.594-.707-1.094-1.07-1.094-.785 0-2.93-2.313-4.297-4.629-.531-.906-1.219-1.644-1.531-1.656-.637-.012-1.95-1.356-3.961-4.106-1.856-2.504-2.457-3.14-3.043-3.14-.489 0-3.73-3.805-4.75-5.567-.305-.531-.805-.906-1.094-.843-.305.074-.668-.2-.824-.594-.168-.406-.457-.617-.668-.492-.48.293-5.793-4.899-5.793-5.66 0-.301-.156-.407-.324-.227-.176.176-.551-.168-.856-.762-.32-.637-1.07-1.148-1.855-1.242-.72-.082-1.72-.676-2.227-1.324-.512-.645-1.066-1.188-1.23-1.188-.305 0-6.297-4.773-8.559-6.828-.695-.625-1.594-1.363-2-1.637-3.398-2.218-8.105-5.816-8.105-6.18 0-.241-.325-.323-.723-.179-.438.18-.727.012-.727-.394 0-.375-.437-.825-.968-.993-.543-.164-.887-.468-.762-.656.125-.187-.742-.781-1.93-1.293-1.176-.52-2.137-1.105-2.137-1.293-.007-.195-.445-.363-.968-.363-.543 0-.907-.262-.856-.574.074-.313-.289-.668-.812-.782-1.125-.238-6.074-3.472-6.074-3.972 0-.188-.97-.625-2.168-.957-1.207-.336-2.18-.793-2.18-1.024 0-.226-.29-.426-.633-.426-.355 0-1.5-.718-2.543-1.605s-2.66-1.898-3.586-2.254c-.926-.351-1.969-.976-2.305-1.383-.32-.41-.726-.597-.894-.441-.176.18-1.176-.238-2.242-.914-1.063-.668-2.832-1.543-3.926-1.93-1.098-.387-2.535-1.062-3.2-1.5-.667-.437-1.273-.754-1.347-.7-.238.188-4.887-2.323-5.187-2.804-.168-.27-.782-.5-1.356-.512-.582 0-1.617-.437-2.273-.949-.664-.531-1.489-.949-1.825-.957-.332 0-1.632-.531-2.894-1.168-2.024-1.031-3.73-1.793-7.117-3.21a58 58 0 0 0-2.785-1.012c-.989-.332-1.813-.762-1.813-.938s-.488-.45-1.082-.586c-4.523-1.082-7.004-1.988-7.66-2.832-.43-.555-1.438-1.043-2.305-1.105-.855-.075-1.676-.262-1.855-.438-.176-.18-.82-.312-1.45-.312-.613 0-1.125-.2-1.125-.473 0-.469-1.53-.8-5.074-1.133-1.062-.105-2.636-.543-3.48-.98-.856-.438-2.086-.805-2.75-.805-.656 0-1.41-.351-1.649-.793-.3-.55-.855-.719-1.77-.539-1.198.227-2.91-.094-8.702-1.637-1.063-.28-2.274-.53-2.668-.543-.395-.011-1.25-.418-1.875-.906-1.274-.969-2.73-1.168-3.2-.406-.46.738-1.773.57-3.73-.469-1.035-.555-2.648-.941-3.86-.918-1.144.02-2.843-.094-3.769-.25-5.36-.93-31.215-1.316-41.344-.617-10.097.687-10.816.773-19.082 2.254-1.457.25-4.918.582-7.71.738-2.794.168-5.712.586-6.536.969-1.613.762-7.086 1.648-10.203 1.668-1.07 0-2.2.242-2.48.531-.29.281-1.582.586-2.875.68-1.293.082-4.094.738-6.223 1.469-2.125.73-4.238 1.304-4.7 1.28-.468-.019-.956.18-1.112.419-.168.25-.73.46-1.274.46-.543 0-2 .321-3.242.727-1.227.399-4.606 1.274-7.5 1.961-2.899.668-5.836 1.625-6.524 2.106-.699.492-2.128 1.156-3.19 1.492-1.063.332-2.544.926-3.294 1.312-.738.387-1.676.575-2.094.418-.406-.156-1.43.04-2.273.426-.844.399-3.156 1.074-5.149 1.524-1.988.449-3.832 1.093-4.117 1.449-.258.344-1.57.988-2.906 1.426-1.324.449-2.73 1.085-3.137 1.44-.824.727-6.21 2.669-7.71 2.774-.544.04-.993.25-.993.457s-.426.387-.926.387c-.52 0-1.074.207-1.25.477-.168.273-.718.492-1.242.492-.52 0-.926.187-.926.426 0 .23-.55.43-1.242.43-.676 0-1.738.476-2.351 1.05-.63.586-1.543.992-2.035.906-.508-.093-.856.106-.782.442.063.332-.187.469-.605.3-.395-.156-.719-.011-.719.313 0 .332-.32.469-.738.3-.426-.163-.867.024-1.024.43-.156.395-.582.72-.968.72-.383 0-.582.187-.438.437.242.394-1.562 1.312-5.387 2.722-.855.32-2.617 1.477-3.93 2.582-1.312 1.098-3.062 2.13-3.874 2.293-.825.18-1.743.606-2.043.973-.305.363-1.188.664-1.961.664-.988 0-1.551.324-1.906 1.106-.27.605-1.575 1.597-2.868 2.191-1.289.582-3.011 1.719-3.8 2.523-.793.79-1.68 1.426-1.993 1.426-.293 0-1.074.543-1.73 1.2-.645.656-2.05 1.449-3.117 1.761-1.75.531-2.145.93-1.989 2 .051.324-1.187.524-1.554.23-.082-.062-.54.262-1 .731-.457.469-1.156.856-1.531.856-.387 0-.688.187-.688.425 0 .23-1 1.157-2.23 2.043-1.23.907-3.188 2.555-4.368 3.692-1.175 1.136-2.324 2.054-2.53 2.054-.208 0-.782.426-1.263.95-.48.53-1.074.832-1.324.675-.476-.3-2.418 1.493-2.02 1.875.126.125-.117.5-.523.836-.406.344-.738.825-.738 1.075 0 .644-1.18 1.738-2.5 2.343-3.024 1.368-5.879 3.68-5.43 4.41.145.22-.523.868-1.449 1.418-.937.543-2.168 1.743-2.719 2.657-.566.91-1.316 1.648-1.68 1.648-.355 0-.792.438-.949.969-.175.531-.511.96-.738.96-.637 0-2.887 2.368-2.898 3.056 0 .312-1.2 1.761-2.657 3.21-1.46 1.458-2.66 2.868-2.66 3.149s-.445.789-.988 1.137c-.543.332-1.395 1.562-1.899 2.718-.5 1.157-1.375 2.43-1.968 2.848-.582.406-1.469 1.418-1.98 2.25-.509.824-1.407 1.7-1.989 1.938-.594.242-.93.46-.73.468.542.055-1.606 3.903-2.168 3.903-.676 0-1.782 1.511-1.801 2.468-.012.426-.785 1.594-1.7 2.575-.93.98-1.687 2.23-1.687 2.761s-.598 1.575-1.336 2.305c-.73.73-1.324 1.531-1.324 1.773-.02.938-3.668 7.942-4.149 7.942-.27 0-.394.18-.25.406.356.574-.625 3.934-1.187 4.004-.25.043-.73.094-1.063.125-.332.043-.605.71-.605 1.512 0 .804-.164 1.699-.363 2.011-.2.313-.094.668.238.805.336.145-.094.531-.957.875-1.055.426-1.574.957-1.574 1.625 0 .543-.426 1.66-.926 2.492-.625 1.043-.773 1.668-.43 2.012.625.625.094 1.555-.906 1.555-.594 0-.687.343-.426 1.73.25 1.344.133 1.906-.574 2.531-1.906 1.711-3.68 5.672-2.086 4.704.805-.512 1.106.738.387 1.582-.395.449-.613 1.066-.512 1.378.117.301-.031.696-.3.875-.282.176-.52.762-.52 1.301 0 .825-.125.899-.7.418-.855-.699-1.71-.27-1.718.867 0 .446-.313 1.418-.7 2.157-.386.742-.581 1.636-.449 2.011.149.368-.05 1.274-.437 2.036-.45.882-.55 1.843-.324 2.668.293 1.082.218 1.25-.438 1.011-.437-.156-.633-.105-.437.114.187.218.125.687-.176 1.043-.293.343-.406.957-.25 1.363.375.98-.137 2.191-.906 2.191-.532 0-.93 1.238-1.493 4.586-.039.262-.132.7-.187.961a2.7 2.7 0 0 0-.04.906c.04.22-.179.707-.48 1.075-.293.363-.574 1.73-.613 3.043-.043 1.312-.273 2.273-.512 2.117-.25-.157-.324.488-.168 1.488.168.96.094 1.887-.168 2.035-.238.156-.457.926-.457 1.73 0 .801-.23 1.907-.53 2.45-.395.738-.388 1.281.05 2.074.5.926.398 1.363-.633 2.969-.773 1.191-1.336 2.941-1.555 4.777-.343 2.957-.355 3.262-.28 5.805.093 3.18-.333 8.402-.731 9.015-.227.356-.469 1.961-.508 3.555-.055 1.598-.211 3.703-.375 4.684-.168.988-.074 1.906.195 2.074.313.187.23.906-.226 2.012-.399.937-.575 1.949-.418 2.218.457.73.52 6.653.07 6.653-.656 0-.414 1.355.398 2.156.614.617.645.918.188 1.48-.313.387-.461 1.024-.313 1.407.157.386.051.773-.21.867-.32.105-.29 1.242.085 3.293.301 1.723.625 4.117.72 5.308.331 4.563.655 7.368.874 7.586.137.125-.082.98-.469 1.91-.738 1.77-.562 2.43.918 3.5.688.493.77.762.32 1.036-.437.27-.468.738-.124 1.75.324.937.281 2.187-.114 3.949-.394 1.723-.417 2.398-.074 2.055.281-.282.649-.52.824-.52.512 0 .262 3.387-.25 3.387-.261.012-.167.219.239.488.566.367.574.473.062.48-.531 0-.539.157-.082.712.356.437.461 1.269.262 2.175-.25 1.168-.18 1.41.387 1.2.957-.364 1.363 2.417.476 3.304-.539.543-.52 1 .137 2.793 1.02 2.848 1.2 4.485.52 4.973-.344.262-.25.312.25.156.898-.281 2.722 4.14 1.835 4.441-.8.282-.5 1.461.47 1.762 1.292.406 1.835 1.91.55 1.574-.938-.238-.938-.226.023 1.063.532.723 1.157 2.598 1.395 4.172.617 4.097 1.355 6.36 2.187 6.683.399.157.711.633.711 1.07 0 .66-.136.692-.718.188-.899-.726-.961-.312-.118.574 1.043 1.075 1.711 3.942 1.137 4.86-.375.605-.281 1.043.375 1.762.48.53.73 1.199.563 1.468-.301.492.562 2.43 1.336 3.004.218.164.363.707.3 1.207-.05.512-.07 1.086-.039 1.274.032.199.008.418-.054.488-.063.074.261.656.718 1.316.47.657.844 1.989.844 2.938 0 2.055.387 2.597 1.293 1.836.367-.293.73-.461.805-.356.976 1.274 2.332 4.39 3.437 7.922.75 2.387 1.512 4.68 1.7 5.078.187.407.238 1.543.136 2.543-.242 1.992-.062 2.18 1.008 1.094.637-.625.781-.543 1.242.781.551 1.598.262 3.805-.512 3.805-.25 0-.324.223-.156.504.176.281.73.375 1.242.207.989-.313 1.989 1.344 1.54 2.543-.126.324.343 1.273 1.042 2.105 2.188 2.598 2.993 4.473 1.762 4.078-1.332-.43-1.27.258.2 1.98.667.77 1.218 1.645 1.218 1.97s.7 1.136 1.574 1.812c.864.68 1.293 1.242.957 1.254-.832 0-.761 1.207.125 1.938.586.488.805.394 1.18-.543.258-.668.469-.832.488-.395.02.418.68 1.774 1.47 3.024.792 1.261 1.312 2.273 1.167 2.273-.156 0 .281.656.961 1.469.676.8 1.102 1.78.945 2.18-.144.382-.02.706.274.706.344 0 .437.457.226 1.243-.238.957-.101 1.289.618 1.48.511.133 1.218.938 1.593 1.781.656 1.52 1.332 2.25 2.106 2.262.207.012.23-.262.031-.594-.188-.324.125-.187.7.324.57.508 1.05 1.196 1.05 1.543 0 .344.457.938 1.012 1.332.562.399.925 1 .812 1.356-.113.344.238.867.793 1.137.55.27 1.012.75 1.012 1.05 0 .305.164.711.363.91.188.196.356.77.356 1.27s.195.793.457.637c.238-.156.52.324.593 1.055.114.925.407 1.3.95 1.218.437-.074.918.207 1.082.625.168.426.492.645.718.512.594-.375 1.618.926 2.543 3.293.438 1.094 1.086 1.992 1.45 1.992 1.593 0 4.617 3.781 4.347 5.442-.054.332.133.593.406.593.27 0 .508.23.508.532 0 .77 1.274 1.898 2.16 1.898.438 0 .72.281.633.633-.175.773 5.305 6.11 6.078 5.933.301-.062.375-.02.157.094-.668.363 1.707 2.531 2.78 2.531.556 0 1.274.442 1.618.961.332.543 1.125.97 1.75.97.637 0 1.27.323 1.438.718.156.406.593.73.98.73.395 0 1.05.493 1.48 1.086.415.594 1.489 1.637 2.387 2.301 7.88 5.828 8.524 6.414 8.2 7.434-.282.898-.227.937.48.355.668-.555.793-.555.793.02 0 .375 1.23 1.23 2.719 1.879 1.492.656 2.96 1.543 3.261 1.957.301.43 1.18.93 1.95 1.117.761.187 2.023.988 2.812 1.773.781.781 1.95 1.563 2.574 1.707.637.168 1.407.594 1.711.969.313.367.844.68 1.176.68.336 0 .875.324 1.211.718.332.407 1.012.73 1.512.73s.906.196.906.45c0 .25 1.469 1.176 3.262 2.043 1.793.883 3.336 1.762 3.43 1.969.081.2.468.375.843.375s.688.207.688.488c0 .262.164.45.363.41.668-.156 6.68 2.551 8.336 3.742.93.665 4.39 1.645 5.805 1.645.605 0 2.335.563 3.816 1.273 1.48.688 3.137 1.418 3.668 1.625.543.211 2.055.825 3.387 1.368 1.324.543 5.035 1.78 8.222 2.761 3.18.98 6.23 1.97 6.762 2.188.535.21 2.098.512 3.473.637 1.375.148 3.23.636 4.117 1.093.875.47 2.574.918 3.77 1.012 1.199.094 3.628.594 5.39 1.117 1.77.531 3.676.95 4.23.95.551 0 1.012.187 1.012.437 0 .226 1.195.562 2.656.758 1.47.18 2.668.48 2.668.66 0 .176 1.27.332 2.844.344 1.563 0 3.149.257 3.524.57.375.316 1.105.555 1.625.543 2.636-.07 9.597.594 10.066.969.848.66 4.648 1.023 4.648.449 0-.48 6.36-.2 7.18.305.399.238 9.64 1.382 10.703 1.32.399-.02 1.918-.113 3.387-.195 1.46-.094 3.203.05 3.86.3 1.738.688 3.5.825 4.113.305.523-.43 2.535-.379 15.957.414 5.785.336 8.203.281 9.785-.187.332-.102.605.023.605.261 0 .293.45.293 1.207 0 .73-.27 2.098-.28 3.48-.03 1.274.237 3.4.25 4.798.019 1.375-.22 2.968-.282 3.52-.145.554.156 1.01.074 1.01-.176s2.981-.449 6.65-.46c8.421-.02 14.726-.489 23.437-1.712 3.793-.53 8.422-1.132 10.289-1.343 1.851-.207 4.144-.625 5.074-.918.926-.29 2.344-.54 3.137-.54 3.043 0 8.21-.593 8.46-.98.137-.21 1.118-.554 2.18-.75 1.063-.187 2.176-.543 2.48-.785.302-.238.74-.406.97-.363.218.043.52.031.644-.02.137-.054 1.117-.187 2.18-.324 1.062-.125 2.137-.437 2.387-.687.75-.743 1.23-.532.886.386-.304.813-.273.813.54 0 .98-.972 2.917-1.566 3.636-1.117.274.176 1.43-.176 2.574-.762 1.512-.77 2.868-1.043 5.055-1.011 2.473.03 3.223-.164 4.293-1.082 1.41-1.211 6.148-2.774 7.191-2.38.344.137.961-.093 1.368-.5.414-.406 1.468-.863 2.355-.988.895-.148 3.031-.593 4.762-1.023 1.718-.414 3.898-.918 4.836-1.094.925-.176 1.582-.543 1.449-.8-.137-.262.3-.544.969-.618.656-.074 2.511-.77 4.105-1.554 1.606-.77 4.969-2.188 7.492-3.157 2.524-.96 4.973-1.949 5.43-2.199.469-.242 1.18-.45 1.574-.45.406 0 .739-.206.739-.487 0-.262.449-.48 1-.48.554 0 1.574-.438 2.253-.97.664-.53 1.637-.96 2.145-.96.512 0 1.387-.438 1.96-.97.575-.53 1.407-.96 1.856-.96.446 0 1.364-.438 2.043-.969.676-.54 2.356-1.332 3.73-1.781 1.376-.45 3.138-1.407 3.93-2.149.79-.73 1.594-1.363 1.77-1.418 1.25-.3 2.512-.968 2.512-1.324 0-.219 1.199-1.02 2.656-1.75 1.504-.762 2.523-1.574 2.348-1.855-.18-.282-.075-.356.226-.168.668.418 2.512-.688 2.512-1.512 0-.332.219-.602.5-.602s.969-.441 1.555-.972c.562-.532 1.406-.957 1.855-.957.457 0 1.145-.5 1.543-1.106.406-.605 1.707-1.617 2.918-2.23 1.207-.617 4.969-3.61 8.367-6.64 3.406-3.036 6.348-5.505 6.574-5.505.211 0 .336-.199.262-.437-.062-.242 1.625-2.13 3.754-4.203 2.125-2.063 3.8-3.938 3.75-4.16-.074-.22.05-.344.25-.27.738.238 8.328-7.09 8.328-8.047 0-.27.438-.95.957-1.492 3.617-3.68 5.23-5.637 5.817-7.067.363-.906 1.062-1.937 1.543-2.285.476-.343.875-.945.875-1.343 0-.395.32-.844.718-.989.407-.156.73-.562.73-.93 0-.355.876-1.562 1.938-2.687 1.063-1.117 1.938-2.336 1.938-2.703 0-.363.324-.781.719-.926.406-.168.73-.574.73-.937 0-.688 2.875-5.172 3.5-5.442.188-.093.367-.554.367-1.031 0-.492.32-1.004.719-1.16.406-.156.726-.695.726-1.207s.325-1.2.723-1.524c.406-.332.727-1.011.727-1.511 0-.512.21-.907.492-.907.258 0 .476-.332.476-.738 0-.41.344-.879.774-1.035.469-.176.668-.645.52-1.219-.157-.594.273-1.449 1.23-2.418 1.543-1.586 2.469-3.449 3.617-7.285.375-1.262.895-2.297 1.145-2.297s.468-.406.468-.894c0-.489.157-1.032.336-1.23.176-.188.383-.595.457-.919.293-1.55 2.168-5.93 2.594-6.066.262-.094.492-.48.492-.863 0-.88 1.344-3.086 2.469-4.059.895-.77 1.344-3.25.77-4.188-.426-.69.062-2.097.73-2.097.273 0 .375-.45.23-.98-.175-.645.063-1.188.668-1.575.508-.312.915-.875.915-1.238 0-.356.293-1.336.66-2.18a28 28 0 0 0 1.976-7.14c.18-1.23.742-3.086 1.274-4.118.875-1.68 1.343-3.586 1.668-6.629.062-.574.175-1.16.238-1.285.074-.133.2-.894.293-1.687.363-3.45.45-3.899.863-4.543.242-.38.5-1.137.574-1.692.075-.55.282-1.77.45-2.71.175-.926.488-2.887.707-4.356.207-1.46.761-4.285 1.21-6.285.458-1.992.907-5.152 1.008-7.016.106-1.867.313-5.015.48-7.015.626-7.914.763-11.325.907-22.247.094-6.32.012-11.644-.187-11.906m-11.94 5.578c.132.532.05.832-.188.676-.586-.363-.563 3.336.02 3.93.292.293.292 1.68-.012 3.836-.426 3.015-.383 3.453.386 4.015.813.594.813.657.012 1.114-1.043.586-1.148 1.972-.125 1.574.637-.238.637-.125 0 1.105-.813 1.575-.961 3.286-.242 2.836.273-.175.355.02.187.461-.164.406-.437.656-.601.54-.168-.102-.356.824-.407 2.054-.437 10.3-1.418 18.941-2.128 18.941-.239 0-.438.325-.438.72 0 .405.23.73.524.73.3 0 .382.418.187 1.02-.555 1.753-.586 2.597-.117 2.898.449.293-.395 2.285-1.219 2.89-.207.156-.445 1.04-.531 1.988-.094.93-.344 1.993-.563 2.368-.52.836-.675 1.836-.894 5.578-.106 1.625-.406 3.367-.668 3.867s-.5 1.074-.52 1.27c-.011.199-.242 1.168-.511 2.128-.27.97-.387 1.938-.262 2.137.137.207.031.512-.219.656-.25.157-.594 1.532-.77 3.067-.374 3.367-1.042 5.316-2.335 6.754-.73.812-.801 1.093-.282 1.105.543.012.543.137-.082.606-.43.312-.68.875-.554 1.218.125.344-.176 1.051-.633 1.575-.656.73-.7.937-.18.949.555 0 .543.094-.039.476-.617.399-.605.473.125.48.469 0 .844.22.844.493 0 .27-.18.488-.399.488-.718 0-2.625 3.012-2.625 4.172 0 .633-.187 1.156-.425 1.156-.243 0-.43.29-.43.657 0 .375-.3.925-.688 1.25-.449.375-.593 1.105-.437 2.148.219 1.313.05 1.711-1.043 2.418-1.188.781-1.281 1.086-1.094 3.223.117 1.293.012 2.418-.207 2.5-.23.082-.719 1-1.086 2.062-.363 1.067-.851 1.836-1.07 1.723-.219-.117-1.086.918-1.918 2.293-.824 1.367-1.668 2.336-1.887 2.137-.199-.188-.261.125-.125.687.188.774 0 1.117-.699 1.293-.531.145-.863.543-.738.899.125.351-.43 1.457-1.219 2.457-1.035 1.324-1.367 2.191-1.191 3.097.18.98-.082 1.543-1.176 2.461-.781.656-1.344 1.426-1.25 1.707s-.555 1.16-1.438 1.942c-1.273 1.113-1.504 1.55-1.066 2.074.305.375.344.668.086.668-1.336 0-3.512 3.031-3.512 4.886 0 1.137-2.21 5.266-2.816 5.266-.594 0-2.012 2.73-1.633 3.149.187.207.113.25-.188.093-.293-.175-1.43.668-2.523 1.856-1.106 1.187-2.211 2.156-2.469 2.156-.25 0-.754.523-1.097 1.16-.989 1.813-4.645 6.48-6.844 8.735-2.742 2.824-4.235 4.617-3.836 4.617.176 0-.305.492-1.094 1.086-.781.593-2.105 1.738-2.941 2.543-2.063 1.968-4.961 4.304-5.617 4.535-.301.113-2.043 1.676-3.875 3.5-1.836 1.824-3.512 3.316-3.743 3.316-.218 0-1.113.637-1.98 1.43-.863.781-1.719 1.32-1.918 1.207-.188-.113-.477.113-.625.523-.156.395-.883.989-1.625 1.32-.738.325-2.082 1.294-2.992 2.173-.907.863-1.907 1.574-2.219 1.574-.313 0-1.207.539-1.988 1.219-.774.668-1.836 1.343-2.356 1.52-1.094.343-3.804 2.16-4.035 2.71-.094.2-.363.242-.605.105-.239-.156-.457.012-.47.356-.038.969-2.343 2.52-5.542 3.73-1.594.594-3.219 1.293-3.617 1.543-.407.239-1.188.637-1.739.887-.554.25-1.312.738-1.687 1.094-1.348 1.281-3.492 2.441-4.973 2.68-.832.125-2.187.644-3.023 1.156-.82.511-1.75.918-2.043.918-.3 0-.977.437-1.52.957-.53.543-1.48.972-2.117.972-.625 0-1.426.332-1.77.75-1.011 1.22-9.578 4.606-14.714 5.836-1.606.387-3.336.907-3.867 1.168-1.125.543-6.098 2.274-8.211 2.856-.805.21-2.473.75-3.723 1.191-1.25.438-3.2 1-4.356 1.262-1.144.25-3.93.875-6.19 1.363-2.263.5-6.212 1.48-8.763 2.192-2.566.707-5.785 1.28-7.152 1.28-1.469 0-2.98.313-3.676.77-.75.5-1.886.711-3.086.594-1.043-.101-1.812-.039-1.699.149.336.539-2.281.988-6.941 1.175-2.47.094-4.7.305-4.938.461-.543.332-8.785 1.625-12.328 1.938-6.453.562-8.047.699-12.09.949-2.387.168-5.004.375-5.804.488-6.649.91-25.836 1.254-37.102.625-2.918-.164-5.313-.093-5.469.157-.367.574-2.21.543-3.117-.063-.398-.258-1.555-.344-2.562-.176-1.887.293-14.989-.613-16.29-1.144-.898-.356-3.23-.606-6.89-.742-1.531-.051-2.77-.22-2.77-.375 0-.168-1.617-.293-3.586-.313-1.968-.012-3.855-.187-4.191-.394-.332-.211-1.168-.43-1.856-.493-3.613-.293-9.91-1.261-10.609-1.625-.437-.23-2.094-.562-3.687-.742-1.606-.176-4.211-.77-5.805-1.324-1.606-.55-3.875-1.082-5.074-1.164-3.617-.254-9.746-1.711-12.57-2.985-1.458-.656-3.083-1.261-3.626-1.312-2.125-.281-10.246-2.785-11.62-3.598-.801-.468-2.333-.988-3.387-1.168-1.051-.175-3.22-.968-4.813-1.77-1.605-.804-3.18-1.448-3.523-1.448-.344-.012-.743-.305-.887-.68-.145-.363-1.27-.945-2.524-1.293-1.25-.332-2.386-.813-2.542-1.04-.165-.23-1.008-.523-1.895-.628-.887-.113-2.125-.695-2.773-1.29-.637-.605-1.27-1.042-1.387-.948-.313.207-5.688-2.38-6.031-2.922-.168-.25-.438-.445-.606-.426-.656.082-4.898-2.187-6.023-3.21-.657-.606-1.5-1.095-1.875-1.095-.368 0-1.993-.875-3.586-1.937-1.606-1.067-3.086-1.942-3.324-1.942-.22 0-1.282-.812-2.356-1.812-3.25-3.035-3.898-3.504-4.785-3.504-.457 0-1.602-.73-2.531-1.613-.926-.899-2.188-1.88-2.793-2.203-.594-.32-.957-.79-.813-1.04.156-.25-.074-.46-.512-.46-1.886 0-8.722-5.868-8.242-7.078.2-.543.075-.688-.425-.5-.399.156-.856.062-1.024-.207-.168-.274-.832-.688-1.48-.942-.633-.238-1.313-.832-1.5-1.289-.188-.473-.832-1.348-1.438-1.973-.605-.605-1.117-1.312-1.117-1.582 0-.273-.54-.68-1.195-.93q-1.206-.45-.907-1.199c.196-.53-.023-.738-.785-.738-.656 0-1.164-.375-1.312-.96-.145-.544-.446-.97-.676-.97-.688 0-2.356-1.867-2.356-2.636 0-.387-.707-1.063-1.574-1.504-1.863-.945-5.336-4.742-5.43-5.93-.093-1.262-.707-2.031-1.988-2.523-.879-.332-1.168-.813-1.168-1.907 0-.918-.242-1.468-.656-1.468-.367 0-.96-.367-1.324-.817-.586-.718-.563-.78.219-.488.574.219.824.137.687-.238-.105-.324-.781-.742-1.5-.93-1.242-.324-3.168-2.137-3.21-2.992 0-.2-.888-1.563-1.95-3-1.063-1.442-1.938-2.86-1.938-3.14 0-.29-.543-1.114-1.21-1.833-.665-.71-1.239-1.629-1.27-2.023a23 23 0 0 0-.125-1.262c-.043-.281-.863-1.273-1.836-2.187-1.07-1.012-1.977-2.461-2.312-3.711-.301-1.13-.75-2.047-.981-2.047-.238 0-.582-.489-.781-1.082-.188-.594-.656-1.313-1.051-1.606-.762-.55-2.023-3.773-2.043-5.172 0-.468-.219-.855-.488-.855-.262 0-.492-.3-.492-.676 0-.898-1.575-3.66-2.075-3.668-.218 0-.257-.219-.093-.492.168-.262.074-.48-.188-.48-.582 0-2-3.083-3.469-7.598-.593-1.805-1.312-3.504-1.617-3.785-.95-.887-1.73-2.618-1.73-3.813 0-.66-.207-1.316-.47-1.48-.288-.18-.3-.723-.03-1.43.355-.937.261-1.187-.551-1.398-.543-.145-.844-.489-.676-.758.176-.274.082-.93-.187-1.48-.274-.544-.723-1.419-.98-1.95-.263-.535-.493-1.504-.493-2.148 0-.657-.207-1.325-.488-1.493-.262-.168-.457-.894-.426-1.605.039-.707-.274-2.219-.7-3.355-.417-1.125-.617-2.055-.46-2.055.18 0-.188-.531-.813-1.188-.687-.742-.988-1.492-.8-1.992.175-.45.136-1.05-.094-1.344-1.157-1.53-3.617-10.976-3.543-13.582.008-.523-.168-1.18-.375-1.449-.375-.48-.711-2.66-1.25-8.183-.125-1.293-.43-2.606-.668-2.899-.238-.3-.887-3.262-1.438-6.59-.875-5.316-1.281-9.265-1.804-17.406-.082-1.2-.25-10.008-.395-19.59-.148-9.578-.375-17.91-.531-18.504-.18-.695-.024-1.199.394-1.355.5-.188.637-1.238.563-4.219-.05-2.18.094-4.203.324-4.516.23-.3.543-2.586.707-5.078.168-2.488.5-4.78.75-5.097.242-.313.555-1.95.68-3.625.125-1.68.418-3.711.644-4.516.243-.8.575-2.543.75-3.867.18-1.324.649-3.567 1.043-4.973.457-1.582.606-3.273.418-4.441-.25-1.5-.125-2.063.637-2.824 1.02-1.02 1.988-4.336 2.05-6.985.012-.469.262-.844.555-.844.29 0 .395-.144.207-.324-.175-.176-.093-.582.188-.918.27-.332.543-1.344.605-2.261.051-.907.5-2.25.977-2.993.492-.738.918-2.355.96-3.593.044-1.43.388-2.555.938-3.11 1.094-1.094 1.793-2.906 1.793-4.668 0-.773.313-1.492.72-1.636.5-.188.73-.961.73-2.418 0-1.461.226-2.23.718-2.418.407-.157.73-.524.73-.805 0-.293-.21-.395-.491-.23-.856.535-.52-.176.605-1.258.594-.586.813-.91.488-.723-.855.492-.757-.438.125-1.164.399-.336.72-.817.72-1.074 0-.262.542-.91 1.218-1.43.668-.531 1.098-1.156.941-1.387-.148-.238.102-.98.54-1.648.437-.664.667-1.55.523-1.95-.188-.5.02-.726.664-.726.605 0 .95-.324.95-.91 0-.5.5-1.637 1.093-2.531 1.535-2.293 2.293-4.149 2.293-5.536 0-.656.273-1.199.605-1.21.75-.02 3.125-3.407 3.532-5.012.167-.649.605-1.293.98-1.45.375-.148.68-.562.68-.937 0-.387.32-.824.726-.973.399-.156.723-.687.723-1.199 0-.52.344-1.219.77-1.562.425-.356 1.093-1.469 1.5-2.48.406-1.012.906-1.837 1.124-1.837.211 0 .93-.925 1.594-2.05.668-1.137 1.774-2.586 2.461-3.235.7-.633 1.262-1.418 1.262-1.719 0-.3.762-1.168 1.687-1.906.926-.742 1.688-1.597 1.688-1.887 0-.304.73-1.199 1.617-2.003.887-.801 1.887-2.168 2.23-3.032.344-.879.844-1.574 1.083-1.574.804 0 5.71-5.39 6.015-6.601.156-.625.438-1.145.602-1.145.562 0 3.668-3.035 3.68-3.586.011-.586 2.023-2.918 2.574-2.98 1.312-.137 2.992-1.504 3.242-2.66.351-1.606.851-2.055 3.187-2.876 1.075-.386 1.72-.918 1.688-1.386-.031-.461.387-.848 1.023-.93.582-.082 1.531-.793 2.082-1.586.555-.781 1.219-1.289 1.469-1.144.242.156.574-.051.73-.461.157-.407.72-.875 1.262-1.04.543-.18 1.844-1.16 2.918-2.199 1.063-1.035 2.117-1.89 2.344-1.89.23 0 .574-.282.793-.633.207-.356.762-.781 1.23-.95.47-.179.856-.593.856-.949 0-.355.883-1.18 1.969-1.835 1.082-.645 2.23-1.418 2.554-1.708 1.27-1.148 4.575-3.035 4.856-2.742.164.164.289-.03.289-.437 0-.43.773-.961 1.867-1.285 1.02-.301 2.531-1.157 3.355-1.887 3-2.688 7.086-5.45 8.079-5.45.375 0 .812-.21.968-.48.168-.27.72-.488 1.239-.488.523 0 .937-.324.937-.73 0-.399.418-.72.918-.72.524 0 1-.167 1.094-.366.355-.793 4.148-3.024 5.14-3.024.582 0 1.063-.219 1.063-.488 0-.262.3-.492.664-.492.367 0 .93-.32 1.273-.72.332-.405 1.176-.73 1.875-.737.7-.012 1.813-.438 2.48-.95.657-.53 1.556-.949 1.981-.96.426 0 1.27-.438 1.868-.946.593-.523 2.144-1.293 3.449-1.73 1.289-.43 2.48-.98 2.637-1.23.156-.243.601-.45 1-.45.406 0 1.968-.574 3.468-1.273 1.524-.696 3.192-1.426 3.723-1.637a60 60 0 0 0 2.324-.906c.738-.301 1.688-.543 2.094-.543.414 0 1.293-.426 1.98-.957.664-.532 1.395-.844 1.614-.711.218.136 1.125-.188 1.992-.727.887-.543 1.875-.98 2.2-.98.32 0 1.769-.543 3.23-1.211 1.449-.668 3.175-1.207 3.843-1.207s1.336-.2 1.48-.45c.157-.23.708-.324 1.25-.175.544.144.962.02.962-.286 0-.3.539-.539 1.218-.539.664 0 1.594-.187 2.051-.437 1.324-.7 5.973-1.992 8.203-2.316 1.137-.157 2.055-.47 2.055-.7 0-.226.727-.414 1.613-.414.895 0 1.75-.148 1.93-.312.164-.168 1.063-.38 1.988-.461.93-.082 2.188-.426 2.793-.75.606-.332 1.43-.625 1.824-.668 2-.176 4.356-.8 4.356-1.145 0-.386 4.824-1.636 5.617-1.449.23.05.762-.031 1.156-.18 1.274-.5 4.555-1.043 5.536-.925.52.062 2.367-.325 4.117-.875 3.5-1.086 8.41-1.918 12.785-2.168 1.562-.094 2.98-.387 3.137-.649.418-.656 5.265-1.074 6.617-.55.605.226 1.18.226 1.262.007.093-.219 1.324-.219 2.761 0 1.805.293 2.918.242 3.63-.144.55-.313 1.187-.532 1.394-.469.199.062.96-.176 1.687-.543 1.668-.832 11.078-.605 12.516.293.316.2.691.176.836-.05.144-.231 1.73-.43 3.531-.442 1.805-.008 3.492-.082 3.762-.164.91-.282 9.433.582 9.433.957 0 .199 1.532.406 3.399.437 1.875.043 3.781.25 4.23.5.457.23 2.457.555 4.461.723 1.988.164 4.93.644 6.524 1.062 1.75.47 3.687.657 4.886.48 1.438-.21 2.149-.093 2.575.427.324.394.863.605 1.199.488.332-.133 1.605.187 2.824.723 1.219.52 2.344.82 2.48.675.157-.156.77.051 1.375.45 1.043.675 2.344 1.03 6.18 1.668.926.156 1.832.507 2 .78.18.27 1.055.552 1.938.614 5.523.375 10.027 1.941 10.058 3.484.012.477.25.5.98.114.551-.301.97-.332.97-.074 0 .25 1.113.605 2.468.804 2.375.324 7.66 2.344 8.16 3.106.426.648 3.243 1.937 3.555 1.617.176-.168.3-.086.3.176 0 .261 1.095.761 2.43 1.093 1.332.344 3.239 1.024 4.22 1.504.991.489 1.968.77 2.167.645.649-.395 3.262 1.46 3.137 2.23-.063.43.23.75.7.75.448.012.968.18 1.167.368.188.187.856.351 1.457.351.594 0 1.23.219 1.399.492.164.262.77.5 1.355.52.57.023 1.707.46 2.5.96.8.512 1.926 1.137 2.492 1.387.57.25 1.352.907 1.75 1.48.395.552 1.313 1.126 2.043 1.263 1.887.343 4.125 1.574 3.98 2.187-.062.293.856.824 2.02 1.18 1.18.351 2.63 1.226 3.23 1.937.606.7 1.337 1.137 1.618.957.281-.175.644.024.812.45.23.593.45.648.957.21.532-.44.668-.386.668.227 0 .43.188.781.418.781s.938.524 1.582 1.137c.625.625 1.743 1.285 2.461 1.461.719.176 2.637 1.137 4.262 2.125a243 243 0 0 0 4.316 2.578c.758.414 2.063 1.445 2.907 2.293.843.852 1.687 1.543 1.875 1.543.18 0 1.093.727 2.011 1.625.918.895 2.18 1.781 2.774 1.98.605.176 2.219 1.407 3.574 2.72 1.363 1.304 2.805 2.378 3.188 2.378.43 0 .585.281.43.719-.188.5.132.824 1.03 1.043 1.407.355 2.52 1.262 2.52 2.023 0 .258.637.625 1.418.79.781.18 1.762.867 2.2 1.523 1.054 1.605 6.929 7.433 7.491 7.433.243 0 .97.489 1.63 1.082.644.594 2.75 2.504 4.687 4.235 7.14 6.41 10.129 9.508 10.129 10.508 0 .906 1.168 1.843 2.054 1.656.2-.05.364.242.364.648 0 .395.28.72.636.72.668 0 2.743 1.968 2.743 2.593 0 .555 5.304 7.078 5.761 7.078.219 0 .657.617.969 1.379.313.758 1.313 2.125 2.219 3.031.906.899 1.648 1.867 1.66 2.149.008.28.664 1.25 1.469 2.148.8.894 1.449 2.031 1.449 2.55 0 .63.226.848.719.66.425-.179 1.05.208 1.57.938a64 64 0 0 0 1.91 2.543c1.606 2.012 3.469 5.766 3.824 7.641.207 1.148.532 1.594.98 1.418.415-.168.665.082.665.668 0 .512.21 1.05.492 1.23.27.164.344.54.176.825-.176.289-.031.414.355.28.875-.292 3.063 2.575 2.313 3.032-.793.492-.051 2.305 1.293 3.18.636.418 1.043.969.894 1.219-.383.625 1.168 3.796 2.012 4.117.375.148.555.472.398.722-.156.25.102 1.27.563 2.25.469.98.937 1.532 1.039 1.211.117-.312-.039-1.004-.32-1.543-.649-1.21-.688-2.355-.063-1.722.906.918 3.918 7.527 3.649 7.976-.168.262.175 1.137.757 1.95.575.812.918 1.605.774 1.761-.168.156-.43-.082-.586-.523-.383-.988-1.176-1.04-1.176-.07 0 .394.418.98.918 1.292s.813.864.664 1.207c-.133.368.094.637.512.637 1.312 0 2.273 1.95 1.95 3.973-.263 1.637-.126 2.023 1.187 3.273 2.437 2.336 2.793 3.313 3.125 8.567.074 1.117.574 2.64 1.117 3.39 1.262 1.707 1.75 3.055 1.156 3.055-.262 0-.457.488-.437 1.082s.156.824.28.492c.345-.847 1.138-.762 1.138.125 0 .395-.22.719-.493.719-.914 0-.507 2.02.461 2.273.825.22.907.594.75 3.137-.168 2.492-.082 2.856.563 2.606.625-.23.719-.032.488 1.093-.156.774-.031 1.625.262 1.93.387.387.363.738-.094 1.27-.512.605-.5.753.05.753.763 0 1.95 3.282 1.317 3.668-.773.48-.43 1.137.438.844.687-.23.664-.144-.125.5-.95.781-.95.813-.055 1.512.781.605.93 1.344.93 4.71 0 3.266.156 4.122.843 4.599.833.593.887 1.605.188 3.828-.242.793-.074 1.113.7 1.355.55.176 1 .531 1 .77 0 .636-.65.562-1.419-.157-.531-.488-.574-.468-.23.125.219.407.43 2.356.437 4.348.024 3.043.168 3.648.875 3.793.93.18 1.168 2.012.25 2.012-.414 0-.437.156-.05.543.292.293.417 1.343.269 2.41-.156 1.168-.062 1.894.25 1.894 1.211 0 1.785 7.914.668 9.04-.25.335-.45 1.062-.3 1.585m0 0"/><path fill="#633039" d="M298.555 288.016c-1.274 1.199-2.438 2.18-2.618 2.18-.488 0-4.761 4.253-4.761 4.73 0 .23-.969 1.441-2.168 2.691-2.125 2.219-2.668 3.223-1.7 3.223.25 0-.093.988-.769 2.219-.68 1.218-1.117 2.343-.96 2.492.386.387-1.25 1.543-2.22 1.562-.449.012-1.25.563-1.773 1.242-.863 1.094-.988 1.137-1.25.364-.156-.48-.977-1.27-1.844-1.774-.906-.53-1.312-1-.969-1.125.332-.125.582-.582.563-1.02-.02-.51-.137-.573-.281-.198-.137.332-.387.593-.563.593-.426 0-.324-5.972.125-6.691.188-.305.426-1.024.543-1.606.113-.574.613-1.5 1.125-2.054.5-.551 1.043-1.563 1.207-2.219.156-.668.938-1.941 1.754-2.816.813-.887 1.469-1.7 1.469-1.836 0-.239.312-.645 2.168-2.73.644-.731 1.289-1.325 1.437-1.325.145 0 .45.012.668.012s.645-.543.946-1.22c.304-.655.886-1.21 1.28-1.21.411 0 .743-.195.743-.45 0-.25.488-.6 1.082-.78.594-.176 1.524-.727 2.055-1.207 1.199-1.075 8.015-4.336 9.078-4.336.426 0 .906-.211 1.07-.493.168-.261.961-.48 1.785-.48.82 0 2.188-.438 3.051-.969l1.574-.957 2.274 1c1.738.77 2.574.895 3.586.543 1.687-.586 3.863 3.469 2.32 4.348-.445.238-.8.707-.8 1.02-.012 1.124-3.4 2.929-5.743 3.074-2.512.156-4.98 1.054-7.836 2.859-1.023.644-2.2 1.187-2.605 1.187-.418-.011-1.793.957-3.043 2.157m62.476 79.944c-.836-.698-.886-.948-.344-1.823.7-1.157.446-6.399-.523-10.371-.445-1.88-.445-2.418.024-2.575.875-.293.726-1.449-.243-2.011-.476-.274-.57-.5-.238-.512.688-.02.844-1.961.168-1.961-.574 0-1.648-3.23-1.348-4.035.262-.676-1.27-4.344-1.644-3.961-.137.137-.645-1.012-1.156-2.531-.512-1.524-1.856-4.004-3.004-5.516-1.145-1.512-2.07-3.004-2.07-3.324 0-.324-1.41-1.973-3.137-3.66-1.73-1.68-3.149-3.23-3.149-3.442-.02-.508-3.629-3.043-4.324-3.043-.75 0-4.734-1.836-5.035-2.324-.137-.207-1.281-.375-2.563-.355-1.28.011-2.441-.125-2.574-.301-.148-.176-1.824-.05-3.754.27-1.926.324-3.937.53-4.469.449-.543-.082-.968.043-.968.27 0 .218-.836.542-1.844.71-1.68.27-4.18 1.856-4.203 2.656 0 .18-1.133 1.524-2.52 2.985-1.386 1.457-2.535 2.875-2.535 3.148-.008.27-.625 1.258-1.375 2.176-3.113 3.828-6.543 12-8.512 20.328-.605 2.535-1.386 5.152-1.742 5.797-.363.656-.594 1.668-.52 2.273.071.582-.03 1.332-.23 1.645-.187.312-.3 1.855-.23 3.43.062 1.66-.133 3.128-.469 3.535-.363.449-.395.699-.07.699.343 0 .363.512.07 1.555-.25.851-.27 1.656-.07 1.812.207.145.414 1.781.457 3.649.043 1.867.386 5.128.77 7.253.429 2.325.542 4.086.273 4.399-.23.285-.274.691-.075.887.188.199.375.511.395.68.023.187.293.937.605 1.687.313.75.563 1.555.563 1.793 0 1.855 3.543 10.101 5.816 13.531.97 1.461 1.856 2.879 1.97 3.137.51 1.273 3.585 5.078 4.105 5.078.312 0 .71.324.867.73.156.395.594.72.988.72.399 0 .899.269 1.106.605.207.332 1.511 1.136 2.898 1.761 1.375.633 2.625 1.438 2.738 1.77.137.344.637.531 1.117.406.489-.113 1.532-.02 2.332.211 1.899.55 9.372.324 10.008-.324.27-.27.79-.387 1.145-.238.719.269 4.574-1.68 5.191-2.63.207-.331.645-.605.957-.605.324-.008 1.625-.976 2.899-2.176 1.27-1.199 2.457-2.168 2.656-2.168.512 0 2.742-2.46 3.45-3.796.323-.614.718-1 .874-.864.149.156.7-.586 1.219-1.648.531-1.051 1.137-1.918 1.355-1.918.762 0 2.188-3.824 3.086-8.258.137-.676.801-2.05 1.47-3.043.812-1.2 1.218-2.46 1.218-3.762 0-1.53.21-2.011.937-2.199 1.055-.281.825-1.605-.28-1.605-.563 0-.571-.125-.071-.68.344-.375.758-.582.926-.488.175.105.425-.25.55-.782.18-.648.012-.96-.488-.96-.594 0-.625-.133-.137-.72.325-.406.856-.73 1.168-.73 1.106.031.7-9.726-.457-10.695m-22.855 20.716c-.25.488-.363 1.168-.238 1.5.125.324-.024.594-.305.594-.29 0-.531.343-.531.761s-.27 1.031-.602 1.356c-1.242 1.23-4.535 1.105-5.898-.219-.25-.238-.856-.45-1.325-.45-.48 0-.886-.167-.906-.355-.273-3.855-.219-4.949.281-6.222.79-1.957 3.075-4.067 4.43-4.067 3.106.012 6.398 4.59 5.094 7.102m7.328-31.899c-.367.145-.668.582-.668 1 0 1.27-2.95 5.43-4.387 6.18-4.941 2.555-12.453-3.45-13.332-10.664-.094-.79-.281-1.793-.426-2.23-.136-.426.094-1.051.5-1.387.813-.676 1.032-4.606.274-5.074-1.012-.618 2.887-6.54 4.3-6.54.325 0 1.231-.457 1.993-1 .77-.542 1.613-.875 1.863-.707.254.165 1.629.395 3.035.543 3.086.29 4.73 1.04 4.73 2.168 0 .457.325.957.731 1.114.395.156.719.605.719 1.011 0 .407.2.739.45.739 1.062 0 1.706 8.039.675 8.433-.707.274-.707.356.062.918 1.012.742.606 5.067-.52 5.496M486.36 550.746l1.05 2.563-.957 2.586c-.992 2.648-2.273 3.543-4.043 2.867-.43-.168-1.148 0-1.598.363-.445.367-.664.43-.5.148.18-.293-.457-.793-1.476-1.16-.98-.351-2.043-1.011-2.367-1.468-.356-.5-1.137-.782-2-.73-1.313.085-2.524-1.157-2.7-2.731-.023-.188-.511-.875-1.085-1.532-.57-.668-.914-1.336-.758-1.504.156-.156-.18-.77-.742-1.363-.551-.594-1.063-1.305-1.125-1.574-.313-1.461-1.493-3.629-1.844-3.41-.586.355-1.367-.719-1.574-2.145-.106-.73-.676-1.449-1.461-1.828-.707-.332-1.57-1.258-1.914-2.02-.348-.78-1.012-1.523-1.493-1.636-.48-.125-.863-.524-.863-.875 0-.367-.68-1.035-1.512-1.512-.906-.523-1.386-1.117-1.23-1.535.312-.832-1.918-3.355-2.586-2.93-.258.168-.488-.156-.488-.695 0-.543-.27-.941-.606-.887-.324.074-.562-.25-.543-.71.086-.946-2.98-3.47-3.675-3.044-.25.157-.95-.207-1.567-.824-.601-.601-1.27-1.05-1.457-.988-.73.238-2.031-2.356-1.387-2.742.407-.25-.074-.649-1.394-1.18-1.094-.445-2.461-1.238-3.035-1.762-.563-.531-1.407-.957-1.875-.957-.457 0-1.168-.324-1.563-.718-.406-.407-1.148-.731-1.648-.731-1.188 0-3.98-1.375-3.98-1.973 0-.238-.563-.445-1.262-.445-.907 0-1.188-.2-.989-.7.176-.491.043-.616-.468-.425-.47.188-.825-.074-.98-.71-.27-1.02-1.458-1.544-3.638-1.556-.707 0-1.363-.25-1.468-.55-.106-.313-1.586-.625-3.461-.73-1.926-.106-3.543-.45-3.938-.845-1.398-1.398-12.828-1.554-17.02-.23-.874.273-2.167.437-2.906.355-.73-.074-1.648.063-2.035.293-.383.239-1.144.489-1.687.543-2.438.282-3.887.696-4.043 1.157-.094.257-.582.488-1.106.488-.508 0-1.355.219-1.886.492-.54.258-1.395.695-1.926.957-.531.27-1.387.492-1.906.492-.524 0-1.086.22-1.254.489-.164.261-.813.355-1.426.199s-1.27-.055-1.45.238c-.175.281-.706.52-1.175.52s-1.586.66-2.473 1.46c-.894.794-1.883 1.45-2.199 1.45-.313 0-1.375.636-2.352 1.418-.98.781-2.097 1.304-2.48 1.168-.399-.168-.836.113-1.024.625-.3.8-1.957 2.324-2.574 2.355-1.73.094-8.535 4.992-7.086 5.117.313.032.02.2-.644.387-.656.18-1.473.899-1.793 1.563-.324.68-1.93 2.285-3.543 3.554-1.629 1.274-4.235 3.973-5.805 5.996-1.574 2.024-3.262 4.13-3.773 4.649-.512.543-1.313 1.629-1.813 2.418-.492.804-1.023 1.566-1.191 1.691-.164.133-.895 1.438-1.625 2.899a111 111 0 0 1-2.719 5.074c-.77 1.336-1.406 2.793-1.418 3.254 0 .457-.418 1.562-.918 2.449-.656 1.187-.781 1.855-.437 2.469.367.66.156 1.273-.907 2.629-.77.968-1.937 2.804-2.593 4.074-.73 1.41-1.524 2.293-2.032 2.293-.468 0-.855.23-.855.523 0 .282-.188.395-.406.25-.23-.136-.836.063-1.325.45-1.386 1.042-1.992.874-2.812-.793-.75-1.5-.617-2.63.227-2.098.648.41.554-.125-.207-1.352-.938-1.523-1.356-3.617-.793-3.972.273-.18.492-.868.492-1.536 0-.675.3-1.918.664-2.75.367-.843.918-2.503 1.254-3.699.32-1.199 1-2.898 1.52-3.785.519-.898.8-1.824.636-2.086-.168-.262.031-.855.426-1.293.406-.449 1.062-1.625 1.48-2.625.406-1 .969-1.816 1.262-1.816.27 0 .512-.32.512-.727 0-.398.207-.722.488-.722.262 0 .48-.227.48-.52 0-.281.54-1.242 1.22-2.105.655-.875 1.206-1.743 1.206-1.938 0-.441 2.535-3.848 3.024-4.066.199-.094.363-.48.363-.868 0-.382.336-.832.742-.988.418-.156 1.043-.855 1.418-1.554.363-.7 1.457-2.137 2.438-3.188.968-1.066 2.093-2.555 2.492-3.316.77-1.493 3.449-4.067 5.25-5.036.605-.324 1.586-1.375 2.168-2.336.593-.949 1.543-1.949 2.093-2.21 3.274-1.489 8.766-5.825 8.16-6.43-.163-.156 0-.274.356-.274s1.344-.539 2.219-1.218c.887-.657 1.855-1.207 2.18-1.207.324 0 1.269-.512 2.082-1.137.824-.625 2.316-1.41 3.316-1.73.988-.325 1.812-.793 1.812-1.032 0-.254.532-.449 1.176-.449.649 0 1.305-.2 1.45-.437.148-.231.867-.575 1.585-.762.73-.188 2.418-.836 3.762-1.43 1.332-.605 3.305-1.344 4.367-1.637 3.336-.937 9.617-2.355 10.64-2.406.532-.031 3.794-.367 7.243-.762 3.438-.386 6.379-.636 6.524-.55.136.093 1.886.218 3.867.289 1.988.086 4.117.304 4.699.523.594.195 2.336.508 3.867.676s3.98.805 5.45 1.406c1.46.617 3.574 1.274 4.69 1.45 1.114.187 2.282.636 2.594 1.023.313.375.97.687 1.45.687.488 0 1.011.207 1.187.48.168.27.719.49 1.25.49.52 0 1.75.522 2.742 1.136 1.512.949 2.594 1.449 4.47 2.035 1.968.613 4.347 1.95 4.347 2.426 0 .336.594.91 1.332 1.285.73.363 1.762.906 2.293 1.195.543.293 1.949.887 3.148 1.293 1.324.469 2.356 1.192 2.656 1.856.262.597 1.157 1.418 1.993 1.824.832.398 2.199 1.43 3.062 2.297.856.875 1.742 1.574 1.98 1.574.45 0 10.141 9.535 10.141 9.965 0 .144.606.761 1.344 1.386 2.688 2.262 10.277 14.133 10.191 15.97-.082 1.812.063 2.23.625 1.874.375-.218.47-.082.274.43-.168.426-.149.844.05.926.188.105.813 1.324 1.387 2.734m52.887-189.113c-.437-.54-.562-1.625-.406-3.313.18-1.847.043-2.722-.5-3.254-.5-.5-.637-1.261-.445-2.418.156-.93.093-1.937-.137-2.222-.742-.946-1.031-3.082-.45-3.274.376-.132.137-1.082-.73-2.918-.707-1.5-1.281-2.968-1.281-3.28 0-.306-.356-1.356-.781-2.337-1.457-3.336-2.262-5.504-2.344-6.36-.012-.144-.524-.78-1.117-1.417-.594-.645-1.082-1.356-1.082-1.574 0-.22-.762-1.145-1.688-2.043-.93-.907-1.687-1.887-1.687-2.168s-.274-.532-.606-.532c-.336 0-1.21-.75-1.937-1.668-.848-1.043-1.617-1.574-2.055-1.398-.395.156-.719.074-.719-.187 0-.262-1.906-.739-4.23-1.082s-4.836-.91-5.586-1.262c-1.75-.836-7.934-1.024-8.672-.281-.313.312-.957.55-1.457.55s-.774.22-.598.493c.168.257-.031.488-.437.488s-1.27.543-1.946 1.21c-.66.665-1.335 1.208-1.503 1.208-.176 0-.614.324-1.008.71-.461.458-1.211.614-2.086.438-1.125-.219-1.45-.086-1.711.75-.188.563-.531.906-.77.75-.25-.156-.668.293-.925.98-.262.7-.7 1.145-.95.981-.468-.281-3.16 2.375-3.16 3.125 0 .219-.594.875-1.32 1.442-.73.57-1.324 1.48-1.324 2 0 .53-.22.832-.493.668-.257-.18-.488.175-.488.761 0 1.164-1.762 4.336-2.75 4.938-.75.472-.844 1.785-.117 1.785.563 0 .262 1.355-.82 3.598-.375.789-.817 2.261-.973 3.27-.164 1.01-.5 1.835-.75 1.835-.238 0-.312.219-.156.492.543.875-.219 1.488-1.188.969-.824-.438-.875-.305-.625 1.531.211 1.563.137 1.918-.355 1.617-.477-.293-.563-.074-.383.887.133.688.05 1.145-.18 1-.218-.148-.414-.156-.414-.023 0 .125-.148.605-.324 1.074-.219.574-.144.73.238.5.344-.207.563-.05.563.406 0 .418-.188.754-.438.754s-.507.945-.601 2.113c-.125 1.543 0 2.043.437 1.88.332-.126.602.007.602.3s-.352.543-.79.543c-.554 0-.636.176-.304.605.262.332.418 1.801.344 3.262-.082 1.606.086 2.781.418 2.992.406.25.406.875-.012 2.418-.3 1.137-.375 2.188-.176 2.325.207.136.532 2.21.688 4.597.187 2.555.55 4.547.906 4.836.625.512.762 1.043 1.074 4.461.207 2.305.594 3.18 1.239 2.785.617-.375 1.574 1.637 1.21 2.574-.168.438-.144.625.063.438.406-.418 2.812 4.441 2.656 5.34-.062.332.45 1.125 1.125 1.75.68.625 1.23 1.387 1.23 1.687 0 .293.18.543.376.543.199 0 .75.875 1.218 1.95.5 1.156 1.317 2.124 2.024 2.398.644.238 2.324 1.55 3.719 2.887 1.386 1.336 2.68 2.43 2.855 2.43.18 0 .586.312.906.699.317.382.887.57 1.274.437.375-.156.687-.031.687.258 0 .293.489.543 1.086.555.594.011 1.633.312 2.301.687.656.363 1.781.55 2.48.418.707-.148 1.418 0 1.625.313h-.007c.187.3.707.425 1.156.238 1.262-.5 2.55-.7 4.898-.781 1.196-.043 2.72-.438 3.387-.887.664-.45 1.781-.844 2.48-.887 1.313-.094 5.25-2.394 5.25-3.086 0-.219.368-.394.813-.394 1.063 0 7.34-6.672 7.734-8.227.176-.656.543-1.351.844-1.55.281-.188.543-.524.563-.731.093-.844.898-2.399 2-3.91.656-.887 1.23-1.856 1.273-2.176.05-.317.23-.817.418-1.098.188-.289.457-1.27.602-2.176.843-5.035 1.418-7.488 1.824-7.757.367-.239 1.031-13.926 1.031-21.309 0-1.113.188-1.656.512-1.48.293.199.23-.02-.137-.47m-32.742 29.148c-.2.668-.375 1.313-.375 1.45-.012.144-.406.667-.899 1.199-.488.52-.812 1.156-.718 1.418.093.27-.27.98-.801 1.605-2.531 2.906-9.203-1.441-8.828-5.746.418-4.742 3.629-6.191 8.965-4.043 3.386 1.344 3.468 1.488 2.656 4.117m1.293-37.476c-.086.261-.219 1.304-.324 2.312-.106 1.004-.375 2.211-.614 2.672-.23.457-.324 1.094-.199 1.426.125.336-.031.605-.336.605-.3 0-.426.207-.25.48.168.27 0 .49-.351.49-.356 0-1 .605-1.438 1.335-.992 1.676-3.617 4.46-3.93 4.148-.125-.125-1.117.22-2.187.77-2.648 1.348-3.297 1.305-2.992-.195.062-.274-.051-.336-.242-.149-.489.492-2.633-1.293-3.489-2.887-.968-1.812-.968-12.207 0-12.207.227 0 .313-.187.176-.406-.887-1.43 2.813-7.847 5.043-8.789 1.762-.719 7.734.594 7.734 1.711 0 .344.27.762.594.906.488.22.488.344 0 .563-.332.156-.48.5-.312.75.168.273.55.117.906-.363.574-.793.644-.793 1.105.093.512 1 1.332 5.934 1.106 6.735m36.403-64.89c-.618-.23-.712-.086-.45.738.344 1.086.094 1.23-2.031 1.137-.594-.02-1.086.176-1.086.457 0 .274-.27.406-.606.281-.332-.125-.925-.062-1.32.137-.398.188-1.46.05-2.355-.332-.899-.375-1.95-.992-2.336-1.379-.387-.383-.887-.695-1.114-.695-.218 0-1.23-.774-2.222-1.7-1.114-1.054-2.106-1.605-2.606-1.449-.445.145-1.8-.273-3.031-.906-1.219-.648-2.344-1.055-2.492-.91-.164.168-.29.074-.29-.188 0-.257-.261-.488-.593-.5-.336-.007-1.48-.394-2.543-.875-4.36-1.949-8.277-3.136-9.453-2.886-.668.144-1.98-.031-2.899-.375-1.925-.742-10.734-.606-13.84.187-.98.262-3.855-.781-4.624-1.66-.95-1.094-1.094-1.52-.368-1.07.274.176.618-.043.782-.45.168-.417.468-.648.687-.511.223.137.2-.469-.05-1.324-.594-2.106-.583-2.211.398-2.461.812-.207.812-.22 0-.282-1.418-.093-.942-.918.726-1.27.868-.187 1.782-.468 2.043-.624s1.75-.313 3.325-.367c1.562-.04 2.98-.282 3.136-.543.367-.54 5.461-.656 5.13-.125-.27.46 1.062.304 1.542-.176.445-.457 1.262-.426.969.031-.125.188.574.363 1.574.375 2.125.031 7.242 1.2 7.574 1.742.137.196.543.258.907.125.367-.148 1.574.313 2.68 1.012 1.105.695 2.366 1.219 2.812 1.156.46-.062 1.586.22 2.511.625.93.407 2.512 1 3.504 1.325.989.332 1.813.8 1.813 1.043 0 .238.406.449.894.449.493 0 1.286.437 1.762.969.492.53 1.149.957 1.469.957.312 0 1.137.437 1.816.96.664.543 1.57.97 2 .97.426 0 .77.269.77.605 0 .32.637.957 1.418 1.406.781.45 1.855 1.648 2.375 2.691.531 1.04 1.304 2.176 1.722 2.52.977.836.97 1.543-.03 1.16m0 0"/><path fill="#633039" d="m487.422 553.309-.961 2.586c-.988 2.648-2.27 3.543-4.043 2.867-.426-.168-1.145 0-1.594.363-.449.367-.668.43-.5.148.176-.293-.457-.793-1.48-1.16-.98-.351-2.043-1.011-2.364-1.468-.355-.5-1.136-.782-2.003-.73-1.313.085-2.52-1.157-2.7-2.731-.02-.188-.507-.875-1.082-1.532-.574-.668-.918-1.336-.761-1.504.156-.156-.176-.77-.739-1.363-.554-.594-1.062-1.305-1.125-1.574-.312-1.461-1.492-3.629-1.847-3.41-.582.355-1.364-.719-1.57-2.145-.106-.73-.68-1.449-1.462-1.824-.707-.336-1.574-1.262-1.918-2.023-.343-.782-1.011-1.524-1.488-1.637-.48-.125-.867-.524-.867-.875 0-.367-.676-1.035-1.512-1.512-.906-.523-1.383-1.117-1.226-1.535.312-.832-1.918-3.355-2.586-2.93-.262.168-.489-.156-.489-.695 0-.543-.273-.941-.605-.887-.324.074-.562-.25-.543-.71.082-.946-2.98-3.47-3.68-3.044-.25.157-.945-.207-1.562-.824-.606-.601-1.27-1.05-1.457-.988-.73.238-2.035-2.356-1.387-2.742.406-.25-.074-.649-1.398-1.18-1.094-.445-2.457-1.238-3.032-1.762-.562-.531-1.406-.957-1.875-.957-.46 0-1.168-.324-1.562-.718-.406-.407-1.149-.731-1.649-.731-1.187 0-3.98-1.375-3.98-1.973 0-.238-.562-.445-1.262-.445-.906 0-1.187-.2-.988-.7.176-.487.04-.616-.469-.425-.469.188-.824-.074-.98-.71-.274-1.02-1.461-1.544-3.637-1.556-.71 0-1.367-.25-1.469-.55-.105-.313-1.586-.625-3.46-.73-1.93-.106-3.544-.45-3.942-.845-1.395-1.398-12.828-1.554-17.016-.23-.875.273-2.168.437-2.91.355-.726-.074-1.644.063-2.031.293-.387.239-1.145.489-1.688.543-2.437.282-3.886.696-4.043 1.157-.093.257-.585.488-1.105.488-.512 0-1.355.219-1.887.492-.543.258-1.394.695-1.925.957-.536.274-1.387.492-1.91.492-.52 0-1.083.22-1.25.489-.169.261-.813.355-1.426.199-.618-.156-1.274-.055-1.45.238-.18.281-.71.52-1.18.52-.468 0-1.581.66-2.468 1.46-.895.794-1.887 1.45-2.2 1.45-.312 0-1.374.636-2.355 1.418s-2.094 1.304-2.48 1.168c-.395-.168-.832.113-1.02.625-.304.8-1.96 2.324-2.574 2.355-1.73.094-8.535 4.992-7.086 5.117.313.032.02.2-.648.387-.657.18-1.47.899-1.793 1.563-.32.68-1.926 2.285-3.543 3.554-1.625 1.274-4.23 3.973-5.805 5.996s-3.262 4.13-3.77 4.649c-.511.543-1.316 1.629-1.816 2.418-.488.804-1.02 1.566-1.187 1.691-.168.133-.895 1.438-1.625 2.899a120 120 0 0 1-2.72 5.074c-.773 1.336-1.41 2.793-1.417 3.254 0 .457-.418 1.562-.918 2.449-.656 1.187-.781 1.855-.438 2.469.364.66.157 1.273-.906 2.629-.773.968-1.937 2.804-2.594 4.074-.73 1.41-1.523 2.293-2.035 2.293-.469 0-.851.23-.851.523 0 .282-.188.395-.407.25-.23-.136-.836.063-1.324.45-1.387 1.042-1.992.874-2.816-.793-.75-1.5-.613-2.63.23-2.098.645.41.551-.125-.207-1.352-.937-1.523-1.355-3.617-.793-3.972.27-.18.489-.868.489-1.532 0-.68.304-1.922.668-2.754.363-.843.917-2.503 1.25-3.699.324-1.199 1-2.898 1.523-3.785.52-.898.8-1.824.633-2.086-.164-.262.031-.855.43-1.293.406-.449 1.062-1.625 1.48-2.625.406-1 .969-1.816 1.262-1.816.27 0 .507-.32.507-.727 0-.398.211-.722.493-.722.257 0 .476-.227.476-.52 0-.281.543-1.242 1.223-2.105.656-.875 1.207-1.743 1.207-1.938 0-.441 2.531-3.848 3.023-4.066.196-.094.364-.48.364-.868 0-.382.332-.832.738-.988.418-.156 1.043-.855 1.418-1.554.367-.7 1.46-2.137 2.441-3.188.969-1.066 2.094-2.555 2.489-3.316.773-1.493 3.449-4.067 5.253-5.036.606-.324 1.582-1.375 2.168-2.336.594-.949 1.543-1.949 2.094-2.21 3.274-1.489 8.766-5.825 8.16-6.43-.168-.156 0-.274.356-.274.351 0 1.344-.539 2.219-1.218.886-.657 1.855-1.207 2.18-1.207.32 0 1.269-.512 2.081-1.137.824-.625 2.313-1.41 3.313-1.73.992-.325 1.816-.793 1.816-1.032 0-.254.531-.449 1.176-.449.648 0 1.305-.2 1.45-.437.144-.231.862-.575 1.585-.762.727-.188 2.414-.836 3.762-1.43 1.332-.601 3.3-1.344 4.363-1.637 3.336-.937 9.621-2.355 10.64-2.406.532-.031 3.794-.367 7.247-.762 3.437-.386 6.375-.636 6.523-.55.133.093 1.887.218 3.864.289 1.992.086 4.117.304 4.703.523.593.195 2.332.512 3.863.676 1.535.168 3.984.805 5.453 1.406 1.457.617 3.574 1.274 4.688 1.45 1.117.187 2.285.636 2.597 1.023.313.375.969.687 1.446.687.492 0 1.011.207 1.19.48.165.27.72.49 1.25.49.52 0 1.75.522 2.74 1.136 1.51.949 2.597 1.449 4.472 2.035 1.969.613 4.344 1.95 4.344 2.426 0 .336.593.91 1.336 1.285.73.363 1.761.906 2.293 1.195.543.293 1.949.887 3.148 1.293 1.32.469 2.355 1.192 2.656 1.856.262.597 1.156 1.418 1.988 1.824.836.398 2.2 1.43 3.067 2.297.855.875 1.738 1.574 1.98 1.574.446 0 10.141 9.535 10.141 9.965 0 .144.602.761 1.344 1.386 2.687 2.262 10.273 14.133 10.191 15.97-.082 1.812.063 2.23.625 1.874.375-.218.469-.082.27.43-.164.426-.145.844.054.926.196.086.832 1.304 1.407 2.722ZM361.031 367.96c-.836-.698-.886-.948-.344-1.823.7-1.157.446-6.399-.523-10.371-.445-1.88-.445-2.418.024-2.575.875-.293.726-1.449-.243-2.011-.476-.274-.57-.5-.238-.512.688-.02.844-1.961.168-1.961-.574 0-1.648-3.23-1.348-4.035.262-.676-1.27-4.344-1.644-3.961-.137.137-.645-1.012-1.156-2.531-.512-1.524-1.856-4.004-3.004-5.516-1.145-1.512-2.07-3.004-2.07-3.324 0-.324-1.41-1.973-3.137-3.66-1.73-1.68-3.149-3.23-3.149-3.442-.02-.508-3.629-3.043-4.324-3.043-.75 0-4.734-1.836-5.035-2.324-.137-.207-1.281-.375-2.563-.355-1.28.011-2.441-.125-2.574-.301-.148-.176-1.824-.05-3.754.27-1.926.324-3.937.53-4.469.449-.543-.082-.968.043-.968.27 0 .218-.836.542-1.844.71-1.68.27-4.18 1.856-4.203 2.656 0 .18-1.133 1.524-2.52 2.985-1.386 1.457-2.535 2.875-2.535 3.148-.008.27-.625 1.258-1.375 2.176-3.113 3.828-6.543 12-8.512 20.328-.605 2.535-1.386 5.152-1.742 5.797-.363.656-.594 1.668-.52 2.273.071.582-.03 1.332-.23 1.645-.187.312-.3 1.855-.23 3.43.062 1.66-.133 3.128-.469 3.535-.363.449-.395.699-.07.699.343 0 .363.512.07 1.555-.25.851-.27 1.656-.07 1.812.207.145.414 1.781.457 3.649.043 1.867.386 5.128.77 7.253.429 2.325.542 4.086.273 4.399-.23.285-.274.691-.075.887.188.199.375.511.395.68.023.187.293.937.605 1.687.313.75.563 1.555.563 1.793 0 1.855 3.543 10.101 5.816 13.531.97 1.461 1.856 2.879 1.97 3.137.51 1.273 3.585 5.078 4.105 5.078.312 0 .71.324.867.73.156.395.594.72.988.72.399 0 .899.269 1.106.605.207.332 1.511 1.136 2.898 1.761 1.375.633 2.625 1.438 2.738 1.77.137.344.637.531 1.117.406.489-.113 1.532-.02 2.332.211 1.899.55 9.372.324 10.008-.324.27-.27.79-.387 1.145-.238.719.269 4.574-1.68 5.191-2.63.207-.331.645-.605.957-.605.324-.008 1.625-.976 2.899-2.176 1.27-1.199 2.457-2.168 2.656-2.168.512 0 2.742-2.46 3.45-3.796.323-.614.718-1 .874-.864.149.156.7-.586 1.219-1.648.531-1.051 1.137-1.918 1.355-1.918.762 0 2.188-3.824 3.086-8.258.137-.676.801-2.05 1.47-3.043.812-1.2 1.218-2.46 1.218-3.762 0-1.53.21-2.011.937-2.199 1.055-.281.825-1.605-.28-1.605-.563 0-.571-.125-.071-.68.344-.375.758-.582.926-.488.175.105.425-.25.55-.782.18-.648.012-.96-.488-.96-.594 0-.625-.133-.137-.72.325-.406.856-.73 1.168-.73 1.106.031.7-9.726-.457-10.695m-22.855 20.716c-.25.488-.363 1.168-.238 1.5.125.324-.024.594-.305.594-.29 0-.531.343-.531.761s-.27 1.031-.602 1.356c-1.242 1.23-4.535 1.105-5.898-.219-.25-.238-.856-.45-1.325-.45-.48 0-.886-.167-.906-.355-.273-3.855-.219-4.949.281-6.222.79-1.957 3.075-4.067 4.43-4.067 3.106.012 6.398 4.59 5.094 7.102m7.328-31.899c-.367.145-.668.582-.668 1 0 1.27-2.95 5.43-4.387 6.18-4.941 2.555-12.453-3.45-13.332-10.664-.094-.79-.281-1.793-.426-2.23-.136-.426.094-1.051.5-1.387.813-.676 1.032-4.606.274-5.074-1.012-.618 2.887-6.54 4.3-6.54.325 0 1.231-.457 1.993-1 .77-.542 1.613-.875 1.863-.707.254.165 1.629.395 3.035.543 3.086.29 4.73 1.04 4.73 2.168 0 .457.325.957.731 1.114.395.156.719.605.719 1.011 0 .407.2.739.45.739 1.062 0 1.706 8.039.675 8.433-.707.274-.707.356.062.918 1.012.742.606 5.067-.52 5.496m193.743 4.855c-.437-.54-.562-1.625-.406-3.313.18-1.847.043-2.722-.5-3.254-.5-.5-.637-1.261-.445-2.418.156-.93.093-1.937-.137-2.222-.742-.946-1.031-3.082-.45-3.274.376-.132.137-1.082-.73-2.918-.707-1.5-1.281-2.968-1.281-3.28 0-.306-.356-1.356-.781-2.337-1.457-3.336-2.262-5.504-2.344-6.36-.012-.144-.524-.78-1.117-1.417-.594-.645-1.082-1.356-1.082-1.574 0-.22-.762-1.145-1.688-2.043-.93-.907-1.687-1.887-1.687-2.168s-.274-.532-.606-.532c-.336 0-1.21-.75-1.937-1.668-.848-1.043-1.617-1.574-2.055-1.398-.395.156-.719.074-.719-.187 0-.262-1.906-.739-4.23-1.082s-4.836-.91-5.586-1.262c-1.75-.836-7.934-1.024-8.672-.281-.313.312-.957.55-1.457.55s-.774.22-.598.493c.168.257-.031.488-.437.488s-1.27.543-1.946 1.21c-.66.665-1.335 1.208-1.503 1.208-.176 0-.614.324-1.008.71-.461.458-1.211.614-2.086.438-1.125-.219-1.45-.086-1.711.75-.188.563-.531.906-.77.75-.25-.156-.668.293-.925.98-.262.7-.7 1.145-.95.981-.468-.281-3.16 2.375-3.16 3.125 0 .219-.594.875-1.32 1.442-.73.57-1.324 1.48-1.324 2 0 .53-.22.832-.493.668-.257-.18-.488.175-.488.761 0 1.164-1.762 4.336-2.75 4.938-.75.472-.844 1.785-.117 1.785.563 0 .262 1.355-.82 3.598-.375.789-.817 2.261-.973 3.27-.164 1.01-.5 1.835-.75 1.835-.238 0-.312.219-.156.492.543.875-.219 1.488-1.188.969-.824-.438-.875-.305-.625 1.531.211 1.563.137 1.918-.355 1.617-.477-.293-.563-.074-.383.887.133.688.05 1.145-.18 1-.218-.148-.414-.156-.414-.023 0 .125-.148.605-.324 1.074-.219.574-.144.73.238.5.344-.207.563-.05.563.406 0 .418-.188.754-.438.754s-.507.945-.601 2.113c-.125 1.543 0 2.043.437 1.88.332-.126.602.007.602.3s-.352.543-.79.543c-.554 0-.636.176-.304.605.262.332.418 1.801.344 3.262-.082 1.606.086 2.781.418 2.992.406.25.406.875-.012 2.418-.3 1.137-.375 2.188-.176 2.325.207.136.532 2.21.688 4.597.187 2.555.55 4.547.906 4.836.625.512.762 1.043 1.074 4.461.207 2.305.594 3.18 1.239 2.785.617-.375 1.574 1.637 1.21 2.574-.168.438-.144.625.063.438.406-.418 2.812 4.441 2.656 5.34-.062.332.45 1.125 1.125 1.75.68.625 1.23 1.387 1.23 1.687 0 .293.18.543.376.543.199 0 .75.875 1.218 1.95.5 1.156 1.317 2.124 2.024 2.398.644.238 2.324 1.55 3.719 2.887 1.386 1.336 2.68 2.43 2.855 2.43.18 0 .586.312.906.699.317.382.887.57 1.274.437.375-.156.687-.031.687.258 0 .293.489.543 1.086.555.594.011 1.633.312 2.301.687.656.363 1.781.55 2.48.418.707-.148 1.418 0 1.625.313h-.007c.187.3.707.425 1.156.238 1.262-.5 2.55-.7 4.898-.781 1.196-.043 2.72-.438 3.387-.887.664-.45 1.781-.844 2.48-.887 1.313-.094 5.25-2.394 5.25-3.086 0-.219.368-.394.813-.394 1.063 0 7.34-6.672 7.734-8.227.176-.656.543-1.351.844-1.55.281-.188.543-.524.563-.731.093-.844.898-2.399 2-3.91.656-.887 1.23-1.856 1.273-2.176.05-.317.23-.817.418-1.098.188-.289.457-1.27.602-2.176.843-5.035 1.418-7.488 1.824-7.757.367-.239 1.031-13.926 1.031-21.309 0-1.113.188-1.656.512-1.48.293.199.23-.02-.137-.47m-32.742 29.148c-.2.668-.375 1.313-.375 1.45-.012.144-.406.667-.899 1.199-.488.52-.812 1.156-.718 1.418.093.27-.27.98-.801 1.605-2.531 2.906-9.203-1.441-8.828-5.746.418-4.742 3.629-6.191 8.965-4.043 3.386 1.344 3.468 1.488 2.656 4.117m1.293-37.476c-.086.261-.219 1.304-.324 2.312-.106 1.004-.375 2.211-.614 2.672-.23.457-.324 1.094-.199 1.426.125.336-.031.605-.336.605-.3 0-.426.207-.25.48.168.27 0 .49-.351.49-.356 0-1 .605-1.438 1.335-.992 1.676-3.617 4.46-3.93 4.148-.125-.125-1.117.22-2.187.77-2.648 1.348-3.297 1.305-2.992-.195.062-.274-.051-.336-.242-.149-.489.492-2.633-1.293-3.489-2.887-.968-1.812-.968-12.207 0-12.207.227 0 .313-.187.176-.406-.887-1.43 2.813-7.847 5.043-8.789 1.762-.719 7.734.594 7.734 1.711 0 .344.27.762.594.906.488.22.488.344 0 .563-.332.156-.48.5-.312.75.168.273.55.117.906-.363.574-.793.644-.793 1.105.093.512 1 1.332 5.934 1.106 6.735m-189.223-75.585c-.449.238-.804.707-.804 1.02-.008 1.124-3.395 2.929-5.743 3.074-2.511.156-4.98 1.054-7.836 2.859-1.02.644-2.199 1.187-2.605 1.187s-1.77.97-3.031 2.168c-1.274 1.2-2.438 2.18-2.618 2.18-.488 0-4.761 4.25-4.761 4.73 0 .231-.969 1.438-2.168 2.692-2.125 2.219-2.668 3.219-1.7 3.219.25 0-.093.992-.769 2.222-.68 1.22-1.117 2.344-.96 2.493.386.382-1.25 1.539-2.22 1.562-.449.008-1.25.563-1.773 1.238-.863 1.098-.988 1.137-1.25.367-.156-.48-.977-1.273-1.844-1.773-.906-.531-1.312-1-.969-1.125.332-.125.582-.586.563-1.023-.02-.508-.137-.57-.281-.196-.137.332-.387.594-.563.594-.426 0-.324-5.973.125-6.691.188-.305.426-1.024.543-1.606.113-.574.613-1.504 1.125-2.055.5-.554 1.043-1.562 1.207-2.222.156-.664.938-1.938 1.754-2.813.813-.886 1.469-1.699 1.469-1.836 0-.238.312-.644 2.168-2.73.644-.73 1.289-1.324 1.437-1.324.145 0 .45.011.668.011s.645-.543.946-1.222c.304-.656.886-1.207 1.28-1.207.411 0 .743-.2.743-.45s.488-.605 1.082-.78c.594-.177 1.524-.731 2.055-1.212 1.199-1.07 8.015-4.336 9.078-4.336.426 0 .906-.207 1.07-.488.168-.262.961-.48 1.785-.48.82 0 2.188-.438 3.051-.97l1.574-.96 2.274 1.004c1.738.77 2.574.894 3.586.539 1.675-.602 3.855 3.46 2.312 4.34M544.2 288.414c-.618-.23-.712-.086-.45.738.344 1.086.094 1.23-2.031 1.137-.594-.02-1.086.176-1.086.457 0 .274-.27.406-.606.281-.332-.125-.925-.062-1.32.137-.398.188-1.46.05-2.355-.332-.899-.375-1.95-.992-2.336-1.379-.387-.383-.887-.695-1.114-.695-.218 0-1.23-.774-2.222-1.7-1.114-1.054-2.106-1.605-2.606-1.449-.445.145-1.8-.273-3.031-.906-1.219-.648-2.344-1.055-2.492-.91-.164.168-.29.074-.29-.188 0-.257-.261-.488-.593-.5-.336-.007-1.48-.394-2.543-.875-4.36-1.949-8.277-3.136-9.453-2.886-.668.144-1.98-.031-2.899-.375-1.925-.742-10.734-.606-13.84.187-.98.262-3.855-.781-4.624-1.66-.95-1.094-1.094-1.52-.368-1.07.274.176.618-.043.782-.45.168-.417.468-.648.687-.511.223.137.2-.469-.05-1.324-.594-2.106-.583-2.211.398-2.461.812-.207.812-.22 0-.282-1.418-.093-.942-.918.726-1.27.868-.187 1.782-.468 2.043-.624s1.75-.313 3.325-.367c1.562-.04 2.98-.282 3.136-.543.367-.54 5.461-.656 5.13-.125-.27.46 1.062.304 1.542-.176.445-.457 1.262-.426.969.031-.125.188.574.363 1.574.375 2.125.031 7.242 1.2 7.574 1.742.137.196.543.258.907.125.367-.148 1.574.313 2.68 1.012 1.105.695 2.366 1.219 2.812 1.156.46-.062 1.586.22 2.511.625.93.407 2.512 1 3.504 1.325.989.332 1.813.8 1.813 1.043 0 .238.406.449.894.449.493 0 1.286.437 1.762.969.492.53 1.149.957 1.469.957.312 0 1.137.437 1.816.96.664.543 1.57.97 2 .97.426 0 .77.269.77.605 0 .32.637.957 1.418 1.406.781.45 1.855 1.648 2.375 2.691.531 1.04 1.304 2.176 1.722 2.52.977.836.97 1.543-.03 1.16m0 0"/><path fill="#633039" fill-opacity=".3" d="M471.613 610.102c49.637-16.461 92.825-46.692 120.38-98.375 59.566-111.688 2.632-246.04-103.54-303.856-41.969-22.848-106.683-41.676-155.195-29.344 22.394-5.691 103.12-23.32 188.074 19.266 27.293 13.676 81.047 46.605 114.492 111.543 8.555 16.605 29.531 58.637 27.188 116.336-1.73 42.55-15.414 75.14-24.782 93.277-5.886 11.383-36.289 67.781-102.183 99.66-38.297 18.536-72.524 20.993-122.16 24.578-30.117 2.168-49.512.711-61.297-.601-43.137-4.816-78.442-18.254-77.902-20.633.406-1.77 20.613 3.547 56.64 4.809 47.574 1.664 96.442-2.13 140.285-16.66m0 0"/></svg>