<svg xmlns="http://www.w3.org/2000/svg" viewBox="0 0 64 64" fill="none">
  <!-- Main sparkle -->
  <path d="M32 4 L36.5 24.5 L56 20 L40 32 L56 44 L36.5 39.5 L32 60 L27.5 39.5 L8 44 L24 32 L8 20 L27.5 24.5 Z" fill="#e91e63" opacity="0.9"/>
  <!-- Small sparkle top-right -->
  <path d="M50 6 L52 12 L58 10 L54 14 L58 18 L52 16 L50 22 L48 16 L42 18 L46 14 L42 10 L48 12 Z" fill="#f48fb1" opacity="0.8"/>
  <!-- Small sparkle bottom-left -->
  <path d="M14 42 L16 48 L22 46 L18 50 L22 54 L16 52 L14 58 L12 52 L6 54 L10 50 L6 46 L12 48 Z" fill="#f48fb1" opacity="0.8"/>
  <!-- Tiny dot accents -->
  <circle cx="46" cy="28" r="2" fill="#ffc6d9" opacity="0.7"/>
  <circle cx="18" cy="36" r="2" fill="#ffc6d9" opacity="0.7"/>
  <circle cx="38" cy="50" r="1.5" fill="#ffc6d9" opacity="0.6"/>
  <circle cx="26" cy="14" r="1.5" fill="#ffc6d9" opacity="0.6"/>
</svg>
