<svg xmlns="http://www.w3.org/2000/svg" xmlns:xlink="http://www.w3.org/1999/xlink" width="1080" zoomAndPan="magnify" viewBox="0 0 810 809.999993" height="1080" preserveAspectRatio="xMidYMid meet" version="1.0"><path fill="#ffcccc" d="M 570.609375 591.566406 C 582.292969 573.726562 578.179688 555.746094 572.492188 543.589844 C 572.1875 542.933594 571.976562 542.25 571.855469 541.535156 C 571.734375 540.820312 571.707031 540.101562 571.78125 539.382812 C 571.851562 538.660156 572.019531 537.960938 572.277344 537.285156 C 572.535156 536.609375 572.878906 535.976562 573.308594 535.394531 C 573.734375 534.808594 574.234375 534.289062 574.800781 533.839844 C 575.367188 533.386719 575.984375 533.019531 576.648438 532.734375 C 577.316406 532.449219 578.007812 532.253906 578.726562 532.15625 C 579.441406 532.054688 580.160156 532.050781 580.878906 532.144531 C 596.675781 534.148438 618.726562 533.914062 628.648438 519.691406 C 637.46875 507.074219 637.285156 497.6875 635.253906 491.707031 C 635.085938 491.203125 634.964844 490.6875 634.898438 490.164062 C 634.832031 489.636719 634.816406 489.109375 634.851562 488.582031 C 634.886719 488.050781 634.972656 487.53125 635.113281 487.019531 C 635.25 486.507812 635.4375 486.015625 635.671875 485.539062 C 635.910156 485.0625 636.1875 484.617188 636.511719 484.195312 C 636.835938 483.777344 637.199219 483.394531 637.597656 483.042969 C 637.996094 482.695312 638.425781 482.390625 638.886719 482.125 C 639.347656 481.859375 639.828125 481.644531 640.332031 481.476562 C 648.519531 478.742188 659.207031 473.332031 661.980469 463.308594 C 664.753906 453.289062 660.511719 444.8125 656.664062 439.660156 C 656.375 439.261719 656.125 438.84375 655.910156 438.402344 C 655.699219 437.960938 655.527344 437.503906 655.398438 437.027344 C 655.269531 436.554688 655.183594 436.074219 655.144531 435.585938 C 655.105469 435.097656 655.109375 434.609375 655.15625 434.121094 C 655.207031 433.632812 655.300781 433.152344 655.4375 432.683594 C 655.574219 432.210938 655.753906 431.757812 655.972656 431.320312 C 656.195312 430.882812 656.453125 430.46875 656.75 430.078125 C 657.046875 429.6875 657.375 429.324219 657.738281 428.996094 C 666.152344 421.265625 680.136719 406.265625 678.644531 393.152344 C 677.472656 382.832031 672.230469 377.046875 667.84375 373.910156 C 667.464844 373.636719 667.113281 373.332031 666.789062 372.996094 C 666.464844 372.660156 666.171875 372.300781 665.914062 371.914062 C 665.652344 371.527344 665.425781 371.121094 665.238281 370.691406 C 665.050781 370.265625 664.898438 369.828125 664.789062 369.375 C 664.675781 368.921875 664.605469 368.460938 664.574219 367.996094 C 664.542969 367.53125 664.554688 367.066406 664.605469 366.601562 C 664.65625 366.136719 664.75 365.683594 664.878906 365.234375 C 665.011719 364.789062 665.179688 364.355469 665.390625 363.9375 C 666.578125 361.566406 667.507812 359.097656 668.179688 356.53125 C 668.851562 353.964844 669.246094 351.359375 669.371094 348.710938 C 669.496094 346.058594 669.34375 343.425781 668.917969 340.808594 C 668.488281 338.191406 667.792969 335.648438 666.832031 333.175781 C 661.757812 320.050781 650.914062 316.957031 643.386719 316.5 C 642.933594 316.476562 642.488281 316.414062 642.042969 316.3125 C 641.601562 316.210938 641.171875 316.074219 640.753906 315.902344 C 640.335938 315.730469 639.933594 315.523438 639.550781 315.28125 C 639.167969 315.039062 638.804688 314.769531 638.46875 314.46875 C 638.128906 314.167969 637.820312 313.839844 637.535156 313.484375 C 637.253906 313.132812 637.003906 312.757812 636.78125 312.359375 C 636.5625 311.964844 636.378906 311.550781 636.226562 311.125 C 636.078125 310.699219 635.964844 310.261719 635.886719 309.8125 C 635.085938 305.066406 632.222656 297.949219 623.859375 288.472656 C 613.996094 277.351562 595.746094 275.644531 582.363281 276.085938 C 582.019531 276.101562 581.679688 276.09375 581.335938 276.0625 C 580.996094 276.03125 580.65625 275.980469 580.320312 275.90625 C 579.988281 275.832031 579.65625 275.738281 579.335938 275.621094 C 579.011719 275.503906 578.699219 275.367188 578.394531 275.210938 C 578.089844 275.050781 577.792969 274.875 577.511719 274.679688 C 577.230469 274.484375 576.960938 274.273438 576.707031 274.042969 C 576.453125 273.8125 576.214844 273.566406 575.992188 273.304688 C 575.769531 273.046875 575.5625 272.769531 575.375 272.484375 C 575.1875 272.195312 575.019531 271.898438 574.871094 271.589844 C 574.722656 271.28125 574.597656 270.960938 574.488281 270.636719 C 574.382812 270.308594 574.296875 269.980469 574.230469 269.640625 C 574.167969 269.304688 574.125 268.964844 574.101562 268.625 C 574.082031 268.28125 574.085938 267.9375 574.109375 267.597656 C 574.132812 267.253906 574.175781 266.914062 574.246094 266.578125 C 574.3125 266.242188 574.402344 265.910156 574.511719 265.585938 C 574.625 265.261719 574.753906 264.945312 574.90625 264.636719 C 581.929688 250.511719 584.664062 230.839844 567.113281 214.394531 C 542.902344 191.714844 522.695312 210.789062 521.351562 209.273438 C 520.003906 207.757812 520.75 189.277344 501.367188 177.507812 C 486.132812 168.257812 467.824219 174.15625 460.679688 177.109375 C 459.714844 177.503906 458.710938 177.703125 457.667969 177.703125 C 456.625 177.703125 455.625 177.503906 454.660156 177.109375 C 448.082031 174.398438 432.207031 170.558594 406.8125 189.132812 C 403.835938 191.285156 401.140625 193.746094 398.730469 196.515625 C 396.320312 199.285156 394.25 202.292969 392.53125 205.535156 C 392.1875 206.175781 391.765625 206.757812 391.265625 207.28125 C 390.765625 207.808594 390.203125 208.257812 389.582031 208.628906 C 388.957031 209 388.296875 209.285156 387.597656 209.476562 C 386.898438 209.671875 386.1875 209.769531 385.460938 209.769531 C 384.738281 209.769531 384.023438 209.671875 383.324219 209.476562 C 382.625 209.285156 381.964844 209 381.34375 208.628906 C 380.71875 208.257812 380.160156 207.808594 379.65625 207.28125 C 379.15625 206.757812 378.734375 206.175781 378.394531 205.535156 C 365.628906 180.964844 343.28125 162.910156 322.617188 165.449219 C 296.609375 168.65625 282.378906 197.207031 277.445312 209.375 C 277.152344 210.09375 276.765625 210.753906 276.28125 211.363281 C 275.800781 211.96875 275.242188 212.5 274.613281 212.949219 C 273.980469 213.398438 273.300781 213.75 272.566406 214.007812 C 271.835938 214.265625 271.082031 214.414062 270.308594 214.460938 C 265.339844 214.773438 257.382812 217.007812 249.375 226.484375 C 236.261719 241.972656 246.808594 260.863281 247.375 261.351562 C 254.105469 267.1875 222.09375 276.6875 239.359375 299.71875 C 239.4375 299.816406 239.511719 299.921875 239.589844 300.023438 C 240.054688 300.65625 240.417969 301.34375 240.683594 302.082031 C 240.949219 302.820312 241.101562 303.582031 241.144531 304.367188 C 241.1875 305.152344 241.121094 305.925781 240.9375 306.6875 C 240.753906 307.453125 240.46875 308.171875 240.074219 308.851562 C 239.683594 309.535156 239.203125 310.144531 238.632812 310.683594 C 238.0625 311.222656 237.425781 311.671875 236.726562 312.027344 C 236.027344 312.378906 235.289062 312.628906 234.519531 312.769531 C 233.746094 312.910156 232.96875 312.9375 232.1875 312.851562 C 204.40625 309.742188 172.3125 314.457031 166.4375 328.085938 C 164.515625 332.429688 163.242188 336.957031 162.628906 341.664062 C 162.011719 346.375 162.070312 351.074219 162.8125 355.769531 C 162.886719 356.246094 162.921875 356.726562 162.910156 357.207031 C 162.902344 357.691406 162.847656 358.167969 162.753906 358.640625 C 162.65625 359.117188 162.519531 359.578125 162.34375 360.027344 C 162.164062 360.476562 161.945312 360.902344 161.691406 361.3125 C 161.433594 361.722656 161.144531 362.105469 160.820312 362.464844 C 160.496094 362.820312 160.140625 363.148438 159.757812 363.441406 C 159.371094 363.734375 158.964844 363.992188 158.535156 364.214844 C 158.105469 364.433594 157.660156 364.613281 157.199219 364.753906 C 149.132812 367.160156 137.015625 372.773438 133.285156 384.75 C 129.558594 396.726562 135.78125 407.375 140.59375 413.3125 C 140.878906 413.667969 141.128906 414.042969 141.351562 414.441406 C 141.574219 414.835938 141.757812 415.25 141.910156 415.679688 C 142.0625 416.105469 142.175781 416.542969 142.253906 416.992188 C 142.328125 417.441406 142.367188 417.890625 142.367188 418.34375 C 142.367188 418.800781 142.328125 419.25 142.253906 419.699219 C 142.175781 420.144531 142.0625 420.585938 141.910156 421.011719 C 141.757812 421.441406 141.574219 421.851562 141.351562 422.25 C 141.128906 422.648438 140.878906 423.023438 140.59375 423.375 C 135.707031 429.523438 129.679688 440.675781 136.519531 453.039062 C 142.667969 464.175781 152.433594 470.476562 159.332031 473.753906 C 159.753906 473.953125 160.15625 474.1875 160.535156 474.457031 C 160.914062 474.726562 161.269531 475.027344 161.59375 475.359375 C 161.921875 475.691406 162.21875 476.050781 162.480469 476.4375 C 162.742188 476.820312 162.96875 477.226562 163.160156 477.652344 C 163.351562 478.078125 163.5 478.515625 163.613281 478.96875 C 163.726562 479.421875 163.796875 479.878906 163.828125 480.34375 C 163.859375 480.8125 163.847656 481.273438 163.796875 481.738281 C 163.742188 482.203125 163.652344 482.65625 163.515625 483.101562 C 161.832031 488.578125 162.714844 497.421875 175.953125 508.757812 C 189.191406 520.09375 218.765625 516.710938 241.347656 511.78125 C 242.152344 511.601562 242.96875 511.550781 243.789062 511.625 C 244.613281 511.699219 245.402344 511.894531 246.164062 512.21875 C 246.925781 512.539062 247.621094 512.964844 248.246094 513.503906 C 248.875 514.039062 249.40625 514.660156 249.839844 515.359375 C 250.273438 516.0625 250.59375 516.816406 250.792969 517.617188 C 250.996094 518.417969 251.070312 519.230469 251.015625 520.050781 C 250.964844 520.875 250.789062 521.671875 250.488281 522.441406 C 250.191406 523.210938 249.78125 523.917969 249.261719 524.558594 C 228.074219 551.085938 223.183594 581.6875 238.652344 594.355469 C 248.890625 602.710938 256.476562 604.851562 261.425781 604.960938 C 261.878906 604.972656 262.332031 605.019531 262.777344 605.109375 C 263.226562 605.199219 263.664062 605.324219 264.089844 605.488281 C 264.511719 605.652344 264.921875 605.851562 265.3125 606.085938 C 265.703125 606.320312 266.070312 606.585938 266.414062 606.882812 C 266.761719 607.179688 267.078125 607.507812 267.363281 607.859375 C 267.652344 608.210938 267.910156 608.589844 268.132812 608.984375 C 268.355469 609.382812 268.542969 609.796875 268.695312 610.226562 C 268.847656 610.65625 268.960938 611.09375 269.035156 611.542969 C 270.300781 618.96875 274.023438 629.429688 284.726562 633.992188 C 296.089844 638.800781 306.835938 635.46875 312.96875 632.53125 C 313.71875 632.179688 314.503906 631.945312 315.328125 631.835938 C 316.148438 631.722656 316.96875 631.738281 317.785156 631.882812 C 318.605469 632.027344 319.378906 632.292969 320.117188 632.675781 C 320.851562 633.058594 321.511719 633.546875 322.09375 634.136719 C 327.507812 639.410156 338.675781 646.636719 356.191406 640.949219 C 371.832031 635.875 384.328125 620.476562 391.769531 609.058594 C 392.152344 608.46875 392.609375 607.9375 393.136719 607.464844 C 393.660156 606.992188 394.238281 606.597656 394.871094 606.28125 C 395.5 605.960938 396.164062 605.730469 396.855469 605.585938 C 397.546875 605.441406 398.242188 605.390625 398.949219 605.429688 C 399.652344 605.472656 400.34375 605.605469 401.011719 605.824219 C 401.683594 606.046875 402.3125 606.355469 402.902344 606.742188 C 403.492188 607.132812 404.019531 607.589844 404.488281 608.121094 C 404.957031 608.648438 405.351562 609.230469 405.664062 609.859375 C 412.832031 624.582031 424.8125 645.390625 434.722656 643.941406 C 444.347656 642.53125 452.367188 633.464844 457.015625 626.976562 C 457.292969 626.578125 457.605469 626.207031 457.953125 625.863281 C 458.300781 625.519531 458.671875 625.210938 459.074219 624.9375 C 459.480469 624.664062 459.902344 624.425781 460.347656 624.230469 C 460.792969 624.03125 461.253906 623.875 461.726562 623.761719 C 462.199219 623.648438 462.679688 623.578125 463.167969 623.554688 C 463.65625 623.527344 464.140625 623.542969 464.621094 623.605469 C 465.105469 623.667969 465.578125 623.773438 466.042969 623.921875 C 466.507812 624.074219 466.953125 624.261719 467.382812 624.492188 C 478.738281 630.839844 491.664062 630.746094 500.4375 624.394531 C 502.277344 623.03125 503.910156 621.453125 505.328125 619.65625 C 506.75 617.859375 507.914062 615.910156 508.816406 613.804688 C 509.007812 613.375 509.234375 612.964844 509.496094 612.574219 C 509.753906 612.183594 510.050781 611.816406 510.375 611.476562 C 510.699219 611.136719 511.050781 610.828125 511.429688 610.550781 C 511.808594 610.269531 512.207031 610.027344 512.628906 609.816406 C 513.050781 609.605469 513.484375 609.433594 513.9375 609.300781 C 514.386719 609.167969 514.847656 609.074219 515.3125 609.019531 C 515.78125 608.964844 516.25 608.949219 516.71875 608.976562 C 517.1875 609.003906 517.652344 609.070312 518.109375 609.179688 C 530.355469 612.074219 555.535156 614.574219 570.609375 591.566406 Z M 570.609375 591.566406 " fill-opacity="1" fill-rule="nonzero"/><path fill="#ffbbbb" d="M 346.503906 313.171875 C 343.785156 307.867188 340.601562 302.824219 337.683594 297.605469 C 334.761719 292.386719 332.132812 287.238281 329.703125 281.882812 C 327.273438 276.527344 325.148438 271.050781 323.226562 265.503906 C 322.269531 262.761719 321.421875 259.996094 320.539062 257.238281 C 320.058594 255.761719 319.601562 254.289062 319.039062 252.84375 C 318.476562 251.402344 317.691406 249.957031 317.28125 248.5 C 317.210938 248.265625 317.066406 248.089844 316.855469 247.972656 C 316.640625 247.851562 316.417969 247.820312 316.179688 247.878906 C 315.941406 247.933594 315.757812 248.0625 315.621094 248.265625 C 315.488281 248.46875 315.4375 248.691406 315.480469 248.933594 C 315.726562 250.441406 315.65625 252.066406 315.832031 253.597656 C 316.015625 255.132812 316.28125 256.648438 316.632812 258.152344 C 317.324219 261.160156 318.238281 264.117188 319.144531 267.050781 C 320.972656 272.753906 323.109375 278.339844 325.558594 283.808594 C 330.371094 294.679688 336.230469 305.988281 344.601562 314.535156 C 344.691406 314.660156 344.804688 314.765625 344.9375 314.847656 C 345.066406 314.925781 345.210938 314.980469 345.363281 315.003906 C 345.515625 315.03125 345.667969 315.023438 345.816406 314.988281 C 345.96875 314.953125 346.105469 314.890625 346.230469 314.800781 C 346.355469 314.710938 346.460938 314.601562 346.542969 314.46875 C 346.625 314.335938 346.679688 314.195312 346.703125 314.042969 C 346.730469 313.890625 346.722656 313.738281 346.6875 313.589844 C 346.65625 313.4375 346.59375 313.300781 346.503906 313.171875 Z M 346.503906 313.171875 " fill-opacity="1" fill-rule="nonzero"/><path fill="#ffbbbb" d="M 352.988281 306.945312 C 352.261719 305.292969 351.386719 303.6875 350.625 302.070312 C 349.070312 298.917969 347.53125 295.769531 346.078125 292.570312 C 343.113281 286.160156 340.488281 279.613281 338.203125 272.925781 C 337.609375 271.132812 334.789062 271.734375 335.292969 273.617188 C 337.113281 280.582031 339.390625 287.398438 342.125 294.058594 C 343.480469 297.265625 344.957031 300.472656 346.574219 303.601562 C 347.378906 305.203125 348.300781 306.769531 349.246094 308.308594 C 350.191406 309.847656 351.179688 311.386719 352.613281 312.273438 C 352.699219 312.324219 352.792969 312.363281 352.886719 312.390625 C 352.984375 312.417969 353.082031 312.433594 353.183594 312.433594 C 353.28125 312.433594 353.382812 312.425781 353.480469 312.398438 C 353.574219 312.375 353.667969 312.339844 353.757812 312.292969 C 353.84375 312.242188 353.925781 312.183594 353.996094 312.117188 C 354.070312 312.046875 354.132812 311.972656 354.1875 311.886719 C 354.238281 311.800781 354.28125 311.710938 354.308594 311.613281 C 354.339844 311.519531 354.355469 311.421875 354.359375 311.320312 C 354.191406 309.773438 353.734375 308.3125 352.988281 306.945312 Z M 352.988281 306.945312 " fill-opacity="1" fill-rule="nonzero"/><path fill="#ffbbbb" d="M 379.621094 267.285156 C 378.929688 262.738281 378.328125 258.167969 377.910156 253.589844 C 377.496094 249.011719 377.199219 244.652344 377.015625 240.179688 C 376.828125 235.503906 376.453125 230.765625 376.484375 226.101562 C 376.476562 225.921875 376.4375 225.753906 376.367188 225.59375 C 376.296875 225.433594 376.195312 225.289062 376.070312 225.164062 C 375.945312 225.042969 375.800781 224.945312 375.640625 224.875 C 375.476562 224.804688 375.308594 224.769531 375.132812 224.761719 C 374.953125 224.757812 374.78125 224.785156 374.617188 224.84375 C 374.449219 224.90625 374.300781 224.992188 374.167969 225.109375 C 374.035156 225.226562 373.929688 225.363281 373.847656 225.519531 C 373.769531 225.675781 373.71875 225.84375 373.703125 226.019531 C 373.511719 228.367188 373.101562 230.675781 372.996094 233.035156 C 372.890625 235.390625 372.835938 237.722656 372.84375 240.066406 C 372.84375 244.753906 373.070312 249.429688 373.476562 254.101562 C 373.886719 258.777344 374.425781 263.394531 375.175781 268.003906 C 375.929688 272.613281 376.78125 277.175781 378.746094 281.296875 C 378.894531 281.539062 379.097656 281.714844 379.359375 281.820312 C 379.621094 281.929688 379.886719 281.949219 380.164062 281.882812 C 380.4375 281.816406 380.667969 281.675781 380.847656 281.460938 C 381.03125 281.242188 381.132812 280.996094 381.152344 280.710938 C 381.199219 276.230469 380.285156 271.699219 379.621094 267.285156 Z M 379.621094 267.285156 " fill-opacity="1" fill-rule="nonzero"/><path fill="#ffbbbb" d="M 285.144531 398.457031 C 283.15625 397.105469 280.886719 396.703125 278.527344 396.335938 C 276.171875 395.964844 273.71875 395.707031 271.246094 395.53125 C 266.46875 395.222656 261.691406 395.246094 256.917969 395.605469 C 252.15625 395.929688 247.449219 396.648438 242.804688 397.753906 C 238.175781 398.984375 233.652344 400.53125 229.238281 402.386719 C 228.226562 402.796875 228.894531 404.429688 229.917969 404.167969 C 238.945312 401.898438 248.109375 400.5625 257.40625 400.160156 C 261.976562 399.894531 266.550781 399.894531 271.121094 400.160156 C 273.347656 400.300781 275.578125 400.511719 277.800781 400.734375 C 280.203125 400.96875 282.449219 401.296875 284.785156 400.734375 C 285.019531 400.664062 285.214844 400.535156 285.375 400.351562 C 285.535156 400.164062 285.636719 399.953125 285.675781 399.710938 C 285.714844 399.46875 285.683594 399.234375 285.589844 399.007812 C 285.492188 398.78125 285.34375 398.597656 285.144531 398.457031 Z M 285.144531 398.457031 " fill-opacity="1" fill-rule="nonzero"/><path fill="#ffbbbb" d="M 436.167969 215.179688 C 434.59375 220.003906 433.34375 224.910156 432.421875 229.898438 C 431.378906 234.863281 430.417969 239.839844 429.585938 244.851562 C 427.980469 254.632812 426.601562 264.453125 425.671875 274.332031 C 423.785156 294.382812 423.273438 314.464844 424.140625 334.585938 C 424.386719 340.296875 424.746094 345.996094 425.222656 351.695312 C 425.445312 354.421875 425.703125 357.148438 426.023438 359.863281 C 426.351562 362.734375 426.5625 365.851562 427.507812 368.578125 C 427.5625 368.777344 427.648438 368.960938 427.769531 369.128906 C 427.886719 369.296875 428.03125 369.441406 428.203125 369.558594 C 428.371094 369.675781 428.558594 369.757812 428.757812 369.808594 C 428.957031 369.859375 429.160156 369.875 429.363281 369.851562 C 429.570312 369.832031 429.765625 369.777344 429.949219 369.683594 C 430.136719 369.59375 430.300781 369.476562 430.441406 369.324219 C 430.585938 369.175781 430.699219 369.007812 430.78125 368.820312 C 430.863281 368.628906 430.910156 368.433594 430.921875 368.226562 C 431.171875 365.726562 430.746094 363.175781 430.59375 360.667969 C 430.441406 358.15625 430.167969 355.609375 429.953125 353.082031 C 429.53125 348.128906 429.195312 343.167969 428.941406 338.203125 C 428.410156 328.15625 428.230469 318.105469 428.414062 308.050781 C 428.714844 288.136719 430.289062 268.324219 433.136719 248.613281 C 433.921875 243.128906 434.792969 237.652344 435.742188 232.183594 C 436.714844 226.644531 437.972656 221.128906 438.597656 215.542969 C 438.75 214.097656 436.609375 213.914062 436.167969 215.179688 Z M 436.167969 215.179688 " fill-opacity="1" fill-rule="nonzero"/><path fill="#ffbbbb" d="M 380.351562 372.210938 C 376.683594 369.558594 372.5625 367.554688 368.546875 365.453125 C 364.6875 363.433594 360.863281 361.347656 357.054688 359.230469 C 349.277344 354.902344 341.660156 350.296875 334.203125 345.410156 C 319.4375 335.726562 305.359375 325.125 291.976562 313.605469 C 284.359375 307.054688 276.820312 300.363281 269.523438 293.425781 C 269.367188 293.265625 269.175781 293.183594 268.949219 293.179688 C 268.722656 293.175781 268.53125 293.253906 268.371094 293.410156 C 268.207031 293.570312 268.125 293.757812 268.121094 293.984375 C 268.117188 294.210938 268.195312 294.402344 268.351562 294.566406 C 292.074219 321.640625 321.003906 343.917969 352.210938 361.742188 C 356.488281 364.183594 360.824219 366.523438 365.21875 368.753906 C 369.726562 371.046875 374.351562 373.421875 379.25 374.664062 C 379.578125 374.761719 379.894531 374.742188 380.207031 374.601562 C 380.515625 374.457031 380.742188 374.230469 380.878906 373.921875 C 381.019531 373.609375 381.039062 373.292969 380.9375 372.964844 C 380.835938 372.640625 380.640625 372.386719 380.351562 372.210938 Z M 380.351562 372.210938 " fill-opacity="1" fill-rule="nonzero"/><path fill="#ffbbbb" d="M 385.296875 410.644531 C 375.082031 409.890625 364.679688 411.046875 354.503906 412.085938 C 344.480469 413.101562 334.5 414.464844 324.554688 416.175781 C 304.4375 419.636719 284.65625 424.488281 265.21875 430.726562 C 254.273438 434.238281 243.566406 438.328125 232.949219 442.753906 C 231.035156 443.554688 232.605469 446.28125 234.480469 445.558594 C 253.347656 438.265625 272.609375 432.226562 292.261719 427.441406 C 311.914062 422.652344 331.792969 419.160156 351.898438 416.960938 C 363.125 415.742188 374.464844 415.535156 385.625 413.988281 C 387.613281 413.699219 387.117188 410.773438 385.296875 410.644531 Z M 385.296875 410.644531 " fill-opacity="1" fill-rule="nonzero"/><path fill="#ffbbbb" d="M 389.554688 436.285156 C 389.550781 435.941406 389.4375 435.640625 389.210938 435.382812 C 388.988281 435.125 388.707031 434.96875 388.367188 434.914062 C 388.03125 434.863281 387.714844 434.925781 387.421875 435.105469 C 387.128906 435.28125 386.929688 435.535156 386.820312 435.859375 C 385.257812 440.066406 384.625 444.757812 383.847656 449.175781 C 383.066406 453.59375 382.242188 458.1875 381.511719 462.691406 C 380.011719 471.496094 378.480469 480.292969 376.925781 489.082031 C 373.78125 506.890625 370.546875 524.683594 367.222656 542.453125 C 366.300781 547.375 365.410156 552.3125 364.496094 557.246094 C 364.015625 559.816406 363.574219 562.398438 363.148438 564.980469 C 362.726562 567.5625 362.539062 570.214844 362.066406 572.796875 C 361.785156 574.328125 364.085938 575.050781 364.425781 573.488281 C 365.378906 569.039062 366.757812 564.667969 367.679688 560.203125 C 368.601562 555.738281 369.523438 551.257812 370.429688 546.773438 C 372.25 537.820312 374 528.851562 375.683594 519.859375 C 379.007812 502.09375 382.214844 484.308594 385.304688 466.5 C 386.15625 461.5625 386.984375 456.621094 387.792969 451.675781 C 388.585938 446.65625 389.707031 441.375 389.554688 436.285156 Z M 389.554688 436.285156 " fill-opacity="1" fill-rule="nonzero"/><path fill="#ffbbbb" d="M 520.570312 560.667969 C 517.011719 551.554688 512.0625 542.847656 507.339844 534.277344 C 502.699219 525.835938 497.863281 517.507812 492.828125 509.285156 C 482.78125 492.84375 471.980469 476.898438 460.488281 461.402344 C 457.28125 457.050781 454 452.738281 450.648438 448.46875 C 448.917969 446.257812 447.160156 444.058594 445.363281 441.902344 C 443.644531 439.679688 441.742188 437.628906 439.648438 435.753906 C 438.390625 434.703125 436.351562 435.929688 437.242188 437.550781 C 439.503906 441.792969 442.925781 445.566406 445.855469 449.390625 C 448.78125 453.214844 451.730469 457.023438 454.625 460.878906 C 460.464844 468.671875 466.140625 476.585938 471.65625 484.617188 C 482.554688 500.511719 492.832031 516.816406 502.496094 533.523438 C 505.214844 538.210938 507.871094 542.933594 510.515625 547.671875 C 513.164062 552.410156 515.648438 557.230469 518.535156 561.796875 C 518.609375 561.933594 518.707031 562.050781 518.828125 562.144531 C 518.949219 562.242188 519.085938 562.308594 519.234375 562.351562 C 519.382812 562.394531 519.53125 562.40625 519.6875 562.390625 C 519.839844 562.371094 519.984375 562.328125 520.117188 562.25 C 520.253906 562.175781 520.371094 562.078125 520.464844 561.957031 C 520.5625 561.835938 520.632812 561.703125 520.671875 561.554688 C 520.714844 561.40625 520.726562 561.253906 520.710938 561.101562 C 520.691406 560.949219 520.648438 560.804688 520.570312 560.667969 Z M 520.570312 560.667969 " fill-opacity="1" fill-rule="nonzero"/><path fill="#ffbbbb" d="M 600.0625 402.964844 C 595.523438 401.59375 590.671875 401.007812 585.988281 400.285156 C 581.304688 399.566406 576.695312 399.011719 572.035156 398.484375 C 562.546875 397.414062 553.035156 396.664062 543.503906 396.230469 C 524.652344 395.371094 505.816406 395.679688 486.996094 397.152344 C 481.683594 397.570312 476.382812 398.078125 471.089844 398.675781 C 465.75 399.269531 460.449219 399.855469 455.332031 401.539062 C 454.007812 401.96875 454.066406 404.015625 455.589844 404.054688 C 460.238281 404.058594 464.859375 403.730469 469.460938 403.070312 C 474.179688 402.535156 478.90625 402.058594 483.636719 401.640625 C 493.046875 400.839844 502.464844 400.328125 511.894531 400.101562 C 530.667969 399.664062 549.40625 400.300781 568.105469 402.011719 C 573.335938 402.484375 578.554688 403.046875 583.765625 403.695312 C 589.027344 404.351562 594.375 405.296875 599.683594 405.523438 C 599.855469 405.546875 600.023438 405.539062 600.1875 405.496094 C 600.355469 405.453125 600.503906 405.382812 600.644531 405.28125 C 600.78125 405.179688 600.894531 405.054688 600.980469 404.90625 C 601.070312 404.757812 601.125 404.601562 601.152344 404.429688 C 601.175781 404.261719 601.167969 404.09375 601.125 403.929688 C 601.082031 403.761719 601.011719 403.609375 600.910156 403.472656 C 600.808594 403.335938 600.683594 403.222656 600.535156 403.132812 C 600.390625 403.046875 600.230469 402.988281 600.0625 402.964844 Z M 600.0625 402.964844 " fill-opacity="1" fill-rule="nonzero"/><path fill="#ffbbbb" d="M 539.730469 460.792969 C 537.441406 459.300781 534.460938 458.746094 531.855469 458.066406 C 529.25 457.382812 526.472656 456.664062 523.78125 455.980469 C 518.292969 454.589844 512.824219 453.148438 507.367188 451.652344 C 507.21875 451.617188 507.070312 451.609375 506.917969 451.632812 C 506.769531 451.652344 506.628906 451.703125 506.496094 451.777344 C 506.367188 451.855469 506.253906 451.953125 506.160156 452.070312 C 506.066406 452.191406 506 452.324219 505.957031 452.46875 C 505.914062 452.613281 505.902344 452.761719 505.917969 452.914062 C 505.929688 453.0625 505.972656 453.207031 506.042969 453.339844 C 506.113281 453.476562 506.207031 453.59375 506.320312 453.691406 C 506.433594 453.789062 506.5625 453.863281 506.707031 453.914062 C 512.089844 455.988281 517.523438 457.921875 523.042969 459.605469 C 525.792969 460.453125 528.574219 461.207031 531.375 461.921875 C 533.957031 462.546875 536.714844 463.324219 539.390625 463.019531 C 540.515625 462.851562 540.53125 461.273438 539.730469 460.792969 Z M 539.730469 460.792969 " fill-opacity="1" fill-rule="nonzero"/><path fill="#ffbbbb" d="M 265.683594 384.628906 C 265.125 384.164062 264.507812 383.792969 263.839844 383.515625 C 263.140625 383.144531 262.414062 382.847656 261.65625 382.617188 C 260.152344 382.207031 258.628906 381.882812 257.085938 381.648438 C 253.992188 381.148438 250.871094 380.78125 247.738281 380.574219 C 245.835938 380.445312 245.804688 383.316406 247.65625 383.5 C 250.621094 383.796875 253.5625 384.257812 256.476562 384.878906 C 257.890625 385.183594 259.300781 385.511719 260.71875 385.785156 C 262.210938 386.167969 263.722656 386.261719 265.25 386.054688 C 265.574219 385.984375 265.785156 385.785156 265.882812 385.46875 C 265.976562 385.152344 265.910156 384.871094 265.683594 384.628906 Z M 265.683594 384.628906 " fill-opacity="1" fill-rule="nonzero"/><path fill="#ffbbbb" d="M 288.65625 367.078125 C 287.050781 365.253906 284.527344 364.152344 282.472656 362.933594 C 280.421875 361.714844 278.34375 360.585938 276.285156 359.40625 C 271.890625 356.890625 267.519531 354.355469 263.253906 351.640625 C 254.839844 346.292969 246.582031 340.625 238.5625 334.699219 C 237.289062 333.753906 235.683594 335.796875 236.839844 336.878906 C 244.292969 343.851562 252.3125 350.105469 260.894531 355.632812 C 265.144531 358.367188 269.46875 361.011719 273.917969 363.390625 C 276.1875 364.609375 278.464844 365.796875 280.8125 366.808594 C 282.996094 367.761719 285.351562 369.078125 287.773438 369.164062 C 288.019531 369.15625 288.242188 369.085938 288.441406 368.949219 C 288.644531 368.8125 288.792969 368.632812 288.886719 368.40625 C 288.980469 368.183594 289.007812 367.949219 288.96875 367.710938 C 288.925781 367.46875 288.820312 367.257812 288.65625 367.078125 Z M 288.65625 367.078125 " fill-opacity="1" fill-rule="nonzero"/><path fill="#ffbbbb" d="M 323.015625 484.683594 C 311.132812 490.238281 300.242188 497.925781 289.804688 505.832031 C 279.328125 513.773438 269.417969 522.359375 260.070312 531.597656 C 257.488281 534.140625 254.960938 536.722656 252.546875 539.421875 C 251.28125 540.851562 250.054688 542.308594 248.835938 543.785156 C 247.5625 545.160156 246.480469 546.671875 245.582031 548.3125 C 245.035156 549.476562 246.179688 551.152344 247.496094 550.308594 C 250.101562 548.640625 252.308594 546.035156 254.457031 543.839844 C 256.605469 541.644531 259.011719 539.246094 261.289062 536.953125 C 265.847656 532.355469 270.554688 527.914062 275.402344 523.628906 C 285.183594 515.003906 295.46875 507.027344 306.257812 499.699219 C 312.328125 495.5625 318.558594 491.679688 324.613281 487.519531 C 324.800781 487.414062 324.960938 487.277344 325.09375 487.105469 C 325.226562 486.9375 325.320312 486.75 325.378906 486.539062 C 325.4375 486.332031 325.453125 486.121094 325.425781 485.910156 C 325.398438 485.695312 325.335938 485.496094 325.230469 485.304688 C 325.125 485.117188 324.984375 484.957031 324.816406 484.824219 C 324.648438 484.691406 324.457031 484.597656 324.25 484.539062 C 324.042969 484.480469 323.832031 484.460938 323.621094 484.488281 C 323.40625 484.511719 323.203125 484.578125 323.015625 484.683594 Z M 323.015625 484.683594 " fill-opacity="1" fill-rule="nonzero"/><path fill="#ffbbbb" d="M 306.914062 480.671875 C 301.980469 481.152344 297.171875 482.191406 292.480469 483.792969 C 287.898438 485.4375 283.4375 487.359375 279.097656 489.566406 C 274.75 491.710938 270.550781 494.117188 266.5 496.78125 C 264.433594 498.152344 262.492188 499.640625 260.472656 501.140625 C 258.769531 502.425781 256.332031 504.195312 255.425781 506.167969 C 255.300781 506.394531 255.242188 506.640625 255.261719 506.902344 C 255.277344 507.164062 255.359375 507.398438 255.515625 507.609375 C 255.667969 507.820312 255.867188 507.972656 256.113281 508.070312 C 256.355469 508.164062 256.605469 508.183594 256.863281 508.132812 C 259.027344 507.683594 261.257812 505.863281 263.054688 504.628906 C 264.847656 503.394531 266.863281 502.152344 268.785156 500.933594 C 272.882812 498.351562 277.070312 495.9375 281.398438 493.71875 C 285.730469 491.496094 289.996094 489.710938 294.398438 487.9375 C 298.800781 486.164062 303.171875 484.203125 307.574219 482.324219 C 308.628906 481.949219 307.851562 480.578125 306.914062 480.671875 Z M 306.914062 480.671875 " fill-opacity="1" fill-rule="nonzero"/><path fill="#ffbbbb" d="M 339.390625 506.984375 C 334.976562 512.457031 331.125 518.300781 327.835938 524.511719 C 326.230469 527.589844 324.742188 530.71875 323.371094 533.898438 C 322.023438 537.042969 320.617188 540.441406 320.371094 543.878906 C 320.273438 545.140625 321.894531 545.371094 322.527344 544.503906 C 324.5 541.84375 325.734375 538.550781 327.121094 535.542969 C 328.507812 532.535156 329.992188 529.394531 331.546875 526.386719 C 334.660156 520.382812 337.921875 514.363281 341.402344 508.589844 C 342.132812 507.371094 340.328125 505.800781 339.390625 506.984375 Z M 339.390625 506.984375 " fill-opacity="1" fill-rule="nonzero"/><path fill="#ffbbbb" d="M 451.003906 596.078125 C 450.585938 594.621094 449.871094 593.226562 449.328125 591.8125 C 448.25 589.039062 447.105469 586.289062 445.992188 583.53125 C 443.773438 578.03125 441.679688 572.488281 439.710938 566.898438 C 435.796875 555.671875 432.382812 544.28125 429.542969 532.746094 C 427.941406 526.179688 426.273438 519.628906 424.796875 513.03125 C 424.292969 510.746094 420.980469 511.613281 421.308594 513.832031 C 424.757812 537.691406 431.734375 560.933594 440.691406 583.285156 C 441.941406 586.417969 443.238281 589.539062 444.699219 592.601562 C 445.382812 594.066406 446.039062 595.605469 446.824219 597.027344 C 447.589844 598.636719 448.539062 600.132812 449.671875 601.515625 C 450.800781 602.71875 452.429688 601.515625 452.269531 600.097656 C 452.109375 598.675781 451.386719 597.433594 451.003906 596.078125 Z M 451.003906 596.078125 " fill-opacity="1" fill-rule="nonzero"/><path fill="#ffbbbb" d="M 417.234375 571.019531 C 417.105469 567.464844 416.980469 563.914062 416.945312 560.355469 C 416.875 553.347656 416.777344 546.339844 416.753906 539.34375 C 416.757812 539.195312 416.734375 539.050781 416.679688 538.910156 C 416.628906 538.773438 416.550781 538.648438 416.445312 538.542969 C 416.34375 538.433594 416.226562 538.347656 416.089844 538.289062 C 415.953125 538.226562 415.8125 538.195312 415.664062 538.191406 C 415.515625 538.1875 415.371094 538.210938 415.234375 538.265625 C 415.09375 538.316406 414.96875 538.394531 414.863281 538.496094 C 414.753906 538.597656 414.667969 538.71875 414.609375 538.851562 C 414.546875 538.988281 414.515625 539.128906 414.507812 539.277344 C 413.464844 546.226562 412.929688 553.214844 412.90625 560.242188 C 412.90625 563.691406 412.90625 567.136719 413.121094 570.585938 C 413.339844 574.03125 413.441406 577.664062 414.644531 580.910156 C 415.007812 581.882812 416.675781 582.273438 416.9375 580.96875 C 417.539062 577.710938 417.332031 574.335938 417.234375 571.019531 Z M 417.234375 571.019531 " fill-opacity="1" fill-rule="nonzero"/><path fill="#ffbbbb" d="M 457.738281 557.796875 C 456.460938 554.855469 455.074219 551.960938 453.617188 549.109375 C 450.671875 543.359375 447.144531 538.050781 443.746094 532.585938 C 442.734375 530.980469 440.105469 532.382812 441.125 534.019531 C 444.441406 539.351562 447.128906 545.179688 449.800781 550.855469 C 451.121094 553.667969 452.375 556.515625 453.59375 559.378906 C 454.660156 561.878906 455.566406 565.792969 458.003906 567.28125 C 458.1875 567.390625 458.382812 567.453125 458.59375 567.46875 C 458.804688 567.484375 459.011719 567.453125 459.207031 567.375 C 459.40625 567.296875 459.574219 567.179688 459.71875 567.019531 C 459.863281 566.863281 459.964844 566.683594 460.023438 566.480469 C 460.839844 563.761719 458.804688 560.25 457.738281 557.796875 Z M 457.738281 557.796875 " fill-opacity="1" fill-rule="nonzero"/><path fill="#ffbbbb" d="M 557.921875 285.722656 C 554.394531 286.476562 551.242188 288.167969 548.066406 289.851562 C 544.894531 291.535156 541.925781 293.257812 538.910156 295.0625 C 532.800781 298.71875 526.824219 302.585938 520.980469 306.664062 C 509.246094 314.804688 498.1875 323.773438 487.800781 333.578125 C 482.011719 339.078125 476.53125 344.871094 471.363281 350.957031 C 470.222656 352.289062 471.996094 354.238281 473.300781 352.953125 C 493.347656 333.199219 514.917969 315.144531 539 300.53125 C 542.40625 298.460938 545.863281 296.472656 549.328125 294.5 C 552.789062 292.527344 556.296875 290.75 559.238281 288.085938 C 559.4375 287.859375 559.554688 287.59375 559.589844 287.292969 C 559.621094 286.992188 559.566406 286.707031 559.417969 286.441406 C 559.269531 286.175781 559.058594 285.976562 558.785156 285.84375 C 558.507812 285.710938 558.222656 285.671875 557.921875 285.722656 Z M 557.921875 285.722656 " fill-opacity="1" fill-rule="nonzero"/><path fill="#ffbbbb" d="M 517.347656 293.980469 C 513.644531 294.644531 510.285156 296.667969 507.15625 298.703125 C 504.027344 300.730469 501.03125 302.941406 498.175781 305.339844 C 492.488281 310.273438 487.460938 315.804688 483.09375 321.9375 C 481.851562 323.636719 484.640625 325.269531 485.882812 323.613281 C 490.304688 317.878906 495.355469 312.765625 501.03125 308.273438 C 503.777344 306.039062 506.640625 303.964844 509.625 302.054688 C 512.640625 300.136719 515.855469 298.453125 518.519531 296.074219 C 519.488281 295.230469 518.503906 293.765625 517.347656 293.980469 Z M 517.347656 293.980469 " fill-opacity="1" fill-rule="nonzero"/><path fill="#ffbbbb" d="M 548.742188 345.042969 C 546.167969 344.535156 543.417969 344.898438 540.851562 345.265625 C 537.980469 345.714844 535.144531 346.308594 532.335938 347.054688 C 526.875 348.425781 521.390625 350.035156 516.394531 352.664062 C 516.136719 352.820312 515.957031 353.039062 515.859375 353.324219 C 515.761719 353.609375 515.769531 353.890625 515.875 354.171875 C 515.984375 354.453125 516.167969 354.667969 516.429688 354.816406 C 516.695312 354.960938 516.972656 355.007812 517.269531 354.949219 C 522.671875 353.949219 527.949219 352.375 533.304688 351.140625 C 535.9375 350.53125 538.597656 350.050781 541.226562 349.441406 C 543.859375 348.832031 546.617188 348.320312 548.964844 347.085938 C 549.164062 346.976562 549.3125 346.824219 549.417969 346.621094 C 549.519531 346.421875 549.558594 346.210938 549.535156 345.988281 C 549.511719 345.765625 549.425781 345.566406 549.28125 345.394531 C 549.136719 345.222656 548.957031 345.105469 548.742188 345.042969 Z M 548.742188 345.042969 " fill-opacity="1" fill-rule="nonzero"/><path fill="#ffbbbb" d="M 556.761719 501.757812 C 552.359375 497.75 547.058594 494.96875 541.894531 492.050781 C 536.730469 489.132812 531.46875 486.070312 526.320312 482.910156 C 516.066406 476.746094 506.375 469.796875 497.246094 462.066406 C 492.226562 457.714844 487.625 452.871094 482.355469 448.863281 C 481.410156 448.140625 480.199219 449.472656 480.75 450.417969 C 483.71875 455.667969 488.082031 459.910156 492.523438 463.949219 C 497.03125 468.015625 501.734375 471.839844 506.636719 475.421875 C 516.453125 482.527344 526.660156 489.023438 537.25 494.914062 C 543.128906 498.253906 549.101562 501.871094 555.695312 503.625 C 556.65625 503.875 557.609375 502.535156 556.761719 501.757812 Z M 556.761719 501.757812 " fill-opacity="1" fill-rule="nonzero"/><path fill="#ffbbbb" d="M 516.332031 495.777344 C 516.140625 495.257812 515.832031 494.820312 515.40625 494.464844 C 515.109375 494.238281 514.789062 494.046875 514.492188 493.820312 C 513.730469 493.269531 512.9375 492.761719 512.152344 492.21875 C 510.691406 491.242188 509.234375 490.253906 507.839844 489.171875 C 505.058594 487.109375 502.476562 484.828125 500.085938 482.324219 C 499.953125 482.195312 499.804688 482.097656 499.632812 482.027344 C 499.464844 481.960938 499.289062 481.925781 499.105469 481.925781 C 498.921875 481.925781 498.746094 481.960938 498.578125 482.027344 C 498.40625 482.097656 498.257812 482.195312 498.128906 482.324219 C 498.003906 482.457031 497.90625 482.605469 497.839844 482.773438 C 497.773438 482.945312 497.742188 483.117188 497.742188 483.300781 C 497.742188 483.480469 497.773438 483.65625 497.839844 483.824219 C 497.90625 483.992188 498.003906 484.140625 498.128906 484.273438 C 501.335938 488.910156 505.3125 492.746094 510.058594 495.785156 C 510.886719 496.320312 511.753906 496.789062 512.65625 497.1875 C 513.058594 497.355469 513.460938 497.589844 513.882812 497.71875 C 514.421875 497.832031 514.957031 497.816406 515.488281 497.671875 C 515.683594 497.621094 515.859375 497.53125 516.015625 497.402344 C 516.167969 497.269531 516.289062 497.113281 516.371094 496.929688 C 516.453125 496.746094 516.488281 496.550781 516.484375 496.347656 C 516.476562 496.148438 516.425781 495.957031 516.332031 495.777344 Z M 516.332031 495.777344 " fill-opacity="1" fill-rule="nonzero"/><path fill="#fffee6" d="M 330.480469 401.464844 C 330.480469 401.464844 317.226562 397.214844 320.730469 388.46875 C 324.234375 379.722656 335.445312 380.683594 335.445312 380.683594 C 335.445312 380.683594 327.699219 373.46875 333.945312 367.191406 C 340.191406 360.914062 351.699219 366.945312 351.699219 366.945312 C 351.699219 366.945312 343.679688 352.699219 351.699219 347.941406 C 359.71875 343.1875 368.449219 349.949219 368.449219 349.949219 C 368.449219 349.949219 369.195312 333.449219 378.449219 330.203125 C 387.703125 326.953125 398.199219 337.945312 398.199219 337.945312 C 398.730469 336.542969 399.445312 335.238281 400.34375 334.039062 C 401.242188 332.835938 402.289062 331.78125 403.488281 330.878906 C 404.683594 329.972656 405.980469 329.25 407.382812 328.710938 C 408.785156 328.171875 410.230469 327.835938 411.726562 327.707031 C 422.222656 326.707031 427.476562 342.203125 427.476562 342.203125 C 427.476562 342.203125 435.726562 335.710938 444.226562 339.203125 C 452.726562 342.699219 450.222656 355.445312 450.222656 355.445312 C 450.222656 355.445312 461.449219 347.953125 470.222656 360.945312 C 478.996094 373.941406 467.753906 386.183594 467.753906 386.183594 C 467.753906 386.183594 476.507812 384.933594 477.761719 398.683594 C 479.011719 412.433594 468.753906 413.914062 468.753906 413.914062 C 468.753906 413.914062 479.757812 414.414062 478.507812 426.40625 C 477.253906 438.398438 464.007812 438.90625 464.007812 438.90625 C 464.007812 438.90625 473.511719 443.410156 469.003906 455.15625 C 464.496094 466.902344 450.007812 459.164062 450.007812 459.164062 C 450.007812 459.164062 456.253906 475.40625 443.257812 481.910156 C 430.257812 488.410156 421.507812 476.160156 421.507812 476.160156 C 421.507812 476.160156 422.761719 491.90625 411.011719 492.898438 C 399.265625 493.894531 396.753906 478.910156 396.753906 478.910156 C 396.753906 478.910156 389.761719 496.652344 379.765625 492.652344 C 369.765625 488.652344 370.011719 475.65625 370.011719 475.65625 C 370.011719 475.65625 355.765625 487.679688 344.761719 476.160156 C 333.761719 464.640625 346.261719 452.664062 346.261719 452.664062 C 346.261719 452.664062 328.261719 456.910156 325.011719 445.664062 C 321.765625 434.414062 334.515625 430.167969 334.515625 430.167969 C 334.515625 430.167969 316.761719 426.15625 319.015625 413.675781 C 321.269531 401.191406 330.480469 401.464844 330.480469 401.464844 Z M 330.480469 401.464844 " fill-opacity="1" fill-rule="nonzero"/><path stroke-linecap="round" transform="matrix(0.801866, 0, 0, 0.801707, -6.951427, -15.422382)" fill="none" stroke-linejoin="round" d="M 462.941656 509.480013 C 465.557626 507.058422 481.3801 492.918669 500.729505 496.222167 C 527.191229 500.748642 545.439686 535.38178 535.389882 555.709503 C 528.170391 570.312136 505.191755 579.910797 493.339513 571.798223 C 486.451281 567.081724 481.838016 555.378179 486.412309 546.719894 C 491.210689 537.637709 502.410156 536.960443 503.662119 536.911719 C 506.321931 536.828888 508.923286 537.199192 511.456441 538.02263 C 513.989596 538.846069 516.313278 540.069045 518.417745 541.701305 " stroke="#fcf7c0" stroke-width="8" stroke-opacity="1" stroke-miterlimit="4"/></svg>